<?xml version="1.0" standalone="no"?>
<!DOCTYPE svg PUBLIC "-//W3C//DTD SVG 1.1//EN" "http://www.w3.org/Graphics/SVG/1.1/DTD/svg11.dtd" >
<svg>
<metadata>
Created by FontForge 20090622 at Thu Jun 15 00:35:38 2017
 By deploy user
Copyright 2015 Indian Type Foundry. All rights reserved.
</metadata>
<defs>
<font id="Volte-Medium" horiz-adv-x="582" >
  <font-face 
    font-family="Volte-Medium"
    font-weight="400"
    font-stretch="normal"
    units-per-em="1000"
    panose-1="0 0 6 0 0 0 0 0 0 0"
    ascent="771"
    descent="-229"
    x-height="479"
    cap-height="641"
    bbox="-218 -208 1482 904"
    underline-thickness="50"
    underline-position="-100"
    unicode-range="U+0020-U+FB02"
  />
<missing-glyph horiz-adv-x="612" 
d="M522 0h-431v641h431v-641zM175 561v-481h263v481h-263z" />
    <glyph glyph-name="fi" unicode="fi" horiz-adv-x="588" 
d="M508 637l-47 -69q-54 49 -135 49q-126 0 -126 -117v-21h302v-479h-89v400h-213v-400h-88v400h-76v79h76v24q0 94 55.5 145.5t153.5 51.5q117 0 187 -63z" />
    <glyph glyph-name="fl" unicode="fl" horiz-adv-x="588" 
d="M36 400v79h76v21q0 95 53 147.5t139 52.5q71 0 121 -22h77v-678h-89v592q-41 25 -101 25q-52 0 -82 -30.5t-30 -86.5v-21h114v-79h-114v-400h-88v400h-76z" />
    <glyph glyph-name=".notdef" horiz-adv-x="612" 
d="M522 0h-431v641h431v-641zM175 561v-481h263v481h-263z" />
    <glyph glyph-name=".null" horiz-adv-x="0" 
 />
    <glyph glyph-name="nonmarkingreturn" horiz-adv-x="333" 
 />
    <glyph glyph-name="space" unicode=" " horiz-adv-x="228" 
 />
    <glyph glyph-name="exclam" unicode="!" horiz-adv-x="291" 
d="M183 207h-73l-12 434h97zM208 52q0 -25 -18.5 -43t-44.5 -18q-25 0 -43 17.5t-18 43.5t18 44.5t43 18.5t44 -18.5t19 -44.5z" />
    <glyph glyph-name="quotedbl" unicode="&#x22;" horiz-adv-x="329" 
d="M137 688l-12 -206h-63l-11 206h86zM278 688l-13 -206h-62l-11 206h86z" />
    <glyph glyph-name="numbersign" unicode="#" horiz-adv-x="601" 
d="M312 0l37 182h-152l-37 -182h-76l37 182h-107l14 66h106l31 149h-108l13 66h108l36 177h76l-36 -177h152l36 177h76l-36 -177h105l-13 -66h-105l-31 -149h106l-13 -66h-106l-37 -182h-76zM362 248l31 149h-152l-31 -149h152z" />
    <glyph glyph-name="dollar" unicode="$" horiz-adv-x="563" 
d="M509 544l-64 -62q-23 32 -66 54t-93 22q-57 0 -91 -23.5t-34 -62.5q0 -36 37 -59t89.5 -38t105 -33t89.5 -57t37 -98q0 -75 -51 -125.5t-138 -60.5v-86h-77v84q-141 10 -211 108l65 61q65 -85 178 -85q65 0 101.5 26.5t36.5 71.5q0 40 -37 65.5t-89.5 40.5t-105 33
t-89.5 55t-37 94q0 70 51.5 117t136.5 55v85h77v-86q120 -15 179 -96z" />
    <glyph glyph-name="percent" unicode="%" horiz-adv-x="672" 
d="M150 315q-56 0 -92.5 47t-36.5 119t35.5 119.5t90.5 47.5q56 0 93 -47.5t36 -119.5q1 -72 -35 -119t-91 -47zM149 371q30 0 47.5 30.5t17.5 79.5t-17.5 79t-47.5 30q-29 0 -47.5 -30t-18.5 -79t18 -79.5t48 -30.5zM80 0l440 641h72l-437 -641h-75zM524 -6q-56 0 -92.5 47
t-36.5 119t35.5 119.5t90.5 47.5q56 0 93 -47.5t36 -119.5q1 -72 -35 -119t-91 -47zM523 50q30 0 47.5 30.5t17.5 79.5t-17.5 79t-47.5 30q-29 0 -47.5 -30t-18.5 -79t18 -79.5t48 -30.5z" />
    <glyph glyph-name="ampersand" unicode="&#x26;" horiz-adv-x="645" 
d="M300 654q56 0 98 -24t63 -61l-62 -59q-31 61 -102 61q-40 0 -66 -25t-26 -62q0 -48 50 -95l206 -188l74 94l66 -50l-79 -99l102 -93l-54 -65l-102 93q-89 -93 -208 -93q-86 0 -143.5 57t-57.5 144q0 108 99 180q-42 56 -42 117q0 72 52.5 120t131.5 48zM267 71
q79 0 141 65l-194 177q-66 -46 -66 -118q0 -54 34 -89t85 -35z" />
    <glyph glyph-name="quotesingle" unicode="'" horiz-adv-x="188" 
d="M137 688l-12 -206h-63l-11 206h86z" />
    <glyph glyph-name="parenleft" unicode="(" horiz-adv-x="332" 
d="M60 276q0 244 201 427l55 -51q-80 -75 -124 -171.5t-44 -204.5t44 -204.5t124 -171.5l-55 -51q-201 183 -201 427z" />
    <glyph glyph-name="parenright" unicode=")" horiz-adv-x="332" 
d="M272 276q0 -244 -201 -427l-55 51q167 156 167 376t-167 376l55 51q201 -183 201 -427z" />
    <glyph glyph-name="asterisk" unicode="*" horiz-adv-x="409" 
d="M264 397l-59 93l-59 -93l-58 42l69 85l-106 26l23 69l102 -41l-8 110h72l-7 -110l103 41l22 -69l-106 -26l70 -85z" />
    <glyph glyph-name="plus" unicode="+" horiz-adv-x="521" 
d="M303 536v-174h161v-80h-161v-174h-84v174h-161v80h161v174h84z" />
    <glyph glyph-name="comma" unicode="," horiz-adv-x="194" 
d="M150 108l-79 -227h-74l53 227h100z" />
    <glyph glyph-name="hyphen" unicode="-" horiz-adv-x="318" 
d="M40 281h238v-77h-238v77z" />
    <glyph glyph-name="period" unicode="." horiz-adv-x="194" 
d="M96 -9q-25 0 -43 18t-18 43q0 26 18 44.5t43 18.5q26 0 44.5 -18.5t18.5 -44.5q0 -25 -18.5 -43t-44.5 -18z" />
    <glyph glyph-name="slash" unicode="/" horiz-adv-x="416" 
d="M21 0l283 641h91l-283 -641h-91z" />
    <glyph glyph-name="zero" unicode="0" horiz-adv-x="600" 
d="M302 -12q-105 0 -174 94.5t-69 238.5q0 143 68 237.5t171 94.5q106 0 175 -94.5t68 -237.5q1 -144 -67 -238.5t-172 -94.5zM300 71q67 0 109.5 70t42.5 180t-43 179.5t-111 69.5q-66 0 -108 -69.5t-42 -179.5t42.5 -180t109.5 -70z" />
    <glyph glyph-name="one" unicode="1" horiz-adv-x="425" 
d="M303 0h-89v534l-115 -112l-53 59l167 160h90v-641z" />
    <glyph glyph-name="two" unicode="2" horiz-adv-x="504" 
d="M30 0v69l250 241q79 76 79 148q0 46 -34.5 79t-87.5 33q-93 0 -143 -97l-69 45q67 135 216 135q92 0 149 -56.5t57 -137.5q0 -53 -24 -99.5t-81 -99.5l-191 -181h303v-79h-424z" />
    <glyph glyph-name="three" unicode="3" horiz-adv-x="512" 
d="M231 -12q-139 0 -212 104l65 58q59 -79 151 -79q67 0 102 34.5t35 88.5q0 125 -161 125h-55v53l181 190h-284v79h392v-70l-181 -187q100 -11 148.5 -61.5t48.5 -128.5q0 -89 -60 -147.5t-170 -58.5z" />
    <glyph glyph-name="four" unicode="4" horiz-adv-x="556" 
d="M342 0v136h-309v79l317 426h79v-426h97v-79h-97v-136h-87zM342 215v305l-224 -305h224z" />
    <glyph glyph-name="five" unicode="5" horiz-adv-x="547" 
d="M259 70q65 0 102.5 37t37.5 92q0 57 -36 94.5t-103 37.5q-76 0 -137 -39l-41 28l53 321h318v-79h-246l-31 -176q40 21 100 21q100 0 156 -59t56 -150t-61 -151t-167 -60q-138 0 -212 104l65 59q60 -80 146 -80z" />
    <glyph glyph-name="six" unicode="6" horiz-adv-x="570" 
d="M289 -12q-98 0 -164 64.5t-66 159.5q0 52 20 98.5t74 123.5l149 207h101l-156 -221q20 5 42 5q100 0 163.5 -62t63.5 -151q0 -96 -64.5 -160t-162.5 -64zM288 351q-60 0 -100 -40t-40 -99q0 -61 40 -101t100 -40q59 0 99 40t40 101q0 59 -40 99t-99 40z" />
    <glyph glyph-name="seven" unicode="7" horiz-adv-x="458" 
d="M175 0h-95l253 562h-312v79h407v-71z" />
    <glyph glyph-name="eight" unicode="8" horiz-adv-x="542" 
d="M402 188q0 53 -37 88t-93 35q-57 0 -94.5 -35t-37.5 -88t37.5 -88.5t94.5 -35.5q56 0 93 35.5t37 88.5zM377 480q0 42 -30 69.5t-75 27.5q-46 0 -76.5 -27.5t-30.5 -69.5q0 -41 30.5 -68.5t76.5 -27.5q45 0 75 27.5t30 68.5zM270 653q84 0 139 -46.5t55 -117.5
q0 -93 -88 -139q53 -24 84 -68t31 -100q0 -84 -62.5 -139t-158.5 -55q-95 0 -157 55t-62 139q0 56 31.5 100t85.5 68q-42 20 -65.5 57t-23.5 82q0 71 54 117.5t137 46.5z" />
    <glyph glyph-name="nine" unicode="9" horiz-adv-x="570" 
d="M281 647q97 0 163 -65t66 -159q0 -52 -19.5 -98.5t-73.5 -123.5l-149 -208h-102l156 222q-18 -6 -41 -6q-100 0 -163.5 62.5t-63.5 151.5q0 95 64.5 159.5t162.5 64.5zM281 283q60 0 100.5 40t40.5 100t-40.5 100t-100.5 40q-59 0 -98.5 -40t-39.5 -100t39.5 -100
t98.5 -40z" />
    <glyph glyph-name="colon" unicode=":" horiz-adv-x="194" 
d="M96 -9q-25 0 -43 18t-18 43q0 26 18 44.5t43 18.5q26 0 44.5 -18.5t18.5 -44.5q0 -25 -18.5 -43t-44.5 -18zM96 345q-25 0 -43 18.5t-18 43.5t18 43.5t43 18.5q26 0 44.5 -18t18.5 -44t-18.5 -44t-44.5 -18z" />
    <glyph glyph-name="semicolon" unicode=";" horiz-adv-x="194" 
d="M96 345q-25 0 -43 18.5t-18 43.5t18 43.5t43 18.5q26 0 44.5 -18t18.5 -44t-18.5 -44t-44.5 -18zM150 108l-79 -227h-74l53 227h100z" />
    <glyph glyph-name="less" unicode="&#x3c;" horiz-adv-x="521" 
d="M464 181v-88l-406 194v75l406 192v-87l-308 -143z" />
    <glyph glyph-name="equal" unicode="=" horiz-adv-x="521" 
d="M58 369v81h406v-81h-406zM58 194v81h406v-81h-406z" />
    <glyph glyph-name="greater" unicode="&#x3e;" horiz-adv-x="521" 
d="M58 181l307 143l-307 143v87l406 -192v-75l-406 -194v88z" />
    <glyph glyph-name="question" unicode="?" horiz-adv-x="490" 
d="M86 487l-59 52q30 50 82 82t118 32q93 0 146 -54.5t53 -130.5q0 -58 -29 -104t-100 -94l-75 -51l-41 65l77 53q42 29 61 58t19 68q0 47 -32.5 77t-82.5 30q-76 0 -137 -83zM225 -9q-26 0 -44 18t-18 43q0 26 18.5 44.5t43.5 18.5t43.5 -18.5t18.5 -44.5q0 -25 -18 -43
t-44 -18z" />
    <glyph glyph-name="at" unicode="@" horiz-adv-x="861" 
d="M407 152q52 0 83 39.5t31 95.5q0 47 -24 78.5t-64 31.5q-48 0 -81 -38.5t-33 -94.5q0 -48 26 -80t62 -32zM435 -106q-158 0 -271 113t-113 271t113 271t271 113q157 0 265.5 -104t108.5 -248q0 -94 -44.5 -159t-125.5 -65q-88 0 -112 77q-41 -78 -134 -78
q-62 0 -103.5 47.5t-41.5 125.5q0 87 51.5 146.5t125.5 59.5q72 0 104 -54l2 43h70l-12 -209q-5 -93 56 -93q45 0 70 44.5t25 113.5q0 117 -88 202t-217 85q-131 0 -223 -93t-92 -225q0 -130 92 -224t223 -94q89 0 153 38l28 -58q-72 -46 -181 -46z" />
    <glyph glyph-name="A" unicode="A" horiz-adv-x="676" 
d="M554 0l-66 164h-306l-66 -164h-95l264 641h106l264 -641h-101zM456 245l-121 300l-120 -300h241z" />
    <glyph glyph-name="B" unicode="B" horiz-adv-x="611" 
d="M91 0v640h254q84 0 141.5 -49t57.5 -123q0 -52 -29.5 -87t-68.5 -50q52 -15 85.5 -54.5t33.5 -99.5q0 -74 -56 -125.5t-148 -51.5h-270zM336 560h-155v-195h155q49 0 81.5 28t32.5 69t-32.5 69.5t-81.5 28.5zM351 289h-170v-208h169q52 0 86.5 30t34.5 74t-34.5 74
t-85.5 30z" />
    <glyph glyph-name="C" unicode="C" horiz-adv-x="640" 
d="M611 573l-60 -70q-73 61 -169 61t-163.5 -71.5t-67.5 -172.5t69 -172t170 -71q100 0 162 59l59 -66q-83 -82 -227 -82q-139 0 -234 97t-95 235t95.5 235.5t231.5 97.5q141 0 229 -80z" />
    <glyph glyph-name="D" unicode="D" horiz-adv-x="703" 
d="M91 0v640h196q160 0 260.5 -89t100.5 -231t-98 -231t-254 -89h-205zM289 555h-105v-470h105q119 0 191 64t72 171t-72 171t-191 64z" />
    <glyph glyph-name="E" unicode="E" horiz-adv-x="542" 
d="M91 0v641h407v-85h-317v-192h277v-85h-277v-194h317v-85h-407z" />
    <glyph glyph-name="F" unicode="F" horiz-adv-x="529" 
d="M91 0v640h397v-85h-307v-201h267v-85h-267v-269h-90z" />
    <glyph glyph-name="G" unicode="G" horiz-adv-x="684" 
d="M614 50q-89 -62 -230 -62q-139 0 -234 97t-95 235t95.5 235.5t231.5 97.5q141 0 229 -80l-60 -70q-73 61 -169 61t-163.5 -71.5t-67.5 -172.5t69 -172t170 -71q72 0 134 30v208h90v-265z" />
    <glyph glyph-name="H" unicode="H" horiz-adv-x="719" 
d="M538 0v282h-357v-282h-90v641h90v-274h357v274h91v-641h-91z" />
    <glyph glyph-name="I" unicode="I" horiz-adv-x="272" 
d="M91 0v641h90v-641h-90z" />
    <glyph glyph-name="J" unicode="J" horiz-adv-x="450" 
d="M21 62l62 63q36 -48 93 -48q101 0 101 121v443h90v-441q0 -105 -52.5 -158.5t-136.5 -53.5q-50 0 -92 20.5t-65 53.5z" />
    <glyph glyph-name="K" unicode="K" horiz-adv-x="602" 
d="M91 0v641h90v-282h74l208 282h103l-235 -319l249 -322h-112l-209 274h-78v-274h-90z" />
    <glyph glyph-name="L" unicode="L" horiz-adv-x="534" 
d="M91 0v641h90v-556h332v-85h-422z" />
    <glyph glyph-name="M" unicode="M" horiz-adv-x="839" 
d="M420 126l-239 371v-497h-90v641h104l231 -367l230 367h92v-641h-90v497z" />
    <glyph glyph-name="N" unicode="N" horiz-adv-x="719" 
d="M533 0l-354 494v-494h-91v641h98l355 -497v497h90v-641h-98z" />
    <glyph glyph-name="O" unicode="O" horiz-adv-x="767" 
d="M383 653q136 0 232.5 -98t96.5 -236q0 -137 -96.5 -234t-232.5 -97t-232 97.5t-96 234.5q0 138 96 235.5t232 97.5zM383 77q97 0 165 71t68 171q0 101 -68 173t-165 72q-96 0 -164 -71.5t-68 -172.5t68 -172t164 -71z" />
    <glyph glyph-name="P" unicode="P" horiz-adv-x="606" 
d="M91 0v641h224q111 0 178.5 -55.5t67.5 -147.5t-68 -148t-180 -56h-132v-234h-90zM323 560h-142v-245h142q65 0 104 34t39 89t-39 88.5t-104 33.5z" />
    <glyph glyph-name="Q" unicode="Q" horiz-adv-x="767" 
d="M383 653q136 0 232.5 -98t96.5 -236q0 -97 -51.5 -178t-136.5 -121l177 -92l-41 -73l-247 134q-10 -1 -30 -1q-136 0 -232 97.5t-96 234.5q0 138 96 235.5t232 97.5zM383 77q97 0 165 71t68 171q0 101 -68 173t-165 72q-96 0 -164 -71.5t-68 -172.5t68 -172t164 -71z" />
    <glyph glyph-name="R" unicode="R" horiz-adv-x="616" 
d="M91 0v641h224q106 0 170 -52.5t64 -140.5q0 -68 -39.5 -116t-109.5 -67l160 -265h-104l-150 254h-125v-254h-90zM323 560h-142v-225h142q59 0 95.5 31t36.5 82t-36.5 81.5t-95.5 30.5z" />
    <glyph glyph-name="S" unicode="S" horiz-adv-x="563" 
d="M509 554l-64 -62q-23 32 -66 54t-93 22q-57 0 -91 -23.5t-34 -62.5q0 -33 26.5 -56t66.5 -35t86 -29t86 -36t66.5 -57.5t26.5 -91.5q0 -85 -64 -137t-171 -52q-165 0 -242 109l65 61q65 -85 178 -85q65 0 101.5 26.5t36.5 71.5q0 43 -37 70t-89.5 43t-105 35t-89.5 59
t-37 101q0 77 62 125.5t162 48.5q72 0 130.5 -28t89.5 -71z" />
    <glyph glyph-name="T" unicode="T" horiz-adv-x="528" 
d="M513 556h-204v-556h-90v556h-203v85h497v-85z" />
    <glyph glyph-name="U" unicode="U" horiz-adv-x="668" 
d="M83 250v391h91v-391q0 -78 44 -125.5t116 -47.5q73 0 116.5 47.5t43.5 125.5v391h91v-391q0 -118 -69.5 -190t-182.5 -72t-181.5 71.5t-68.5 190.5z" />
    <glyph glyph-name="V" unicode="V" horiz-adv-x="641" 
d="M124 641l199 -541l200 541h94l-244 -641h-106l-244 641h101z" />
    <glyph glyph-name="W" unicode="W" horiz-adv-x="997" 
d="M871 641h95l-206 -641h-112l-151 528l-152 -528h-108l-206 641h100l161 -531l152 531h113l153 -532z" />
    <glyph glyph-name="X" unicode="X" horiz-adv-x="607" 
d="M150 641l159 -236l162 236h102l-213 -310l223 -331h-112l-172 253l-174 -253h-102l225 328l-213 313h115z" />
    <glyph glyph-name="Y" unicode="Y" horiz-adv-x="599" 
d="M254 0v216l-238 425h101l184 -330l186 330h96l-238 -425v-216h-91z" />
    <glyph glyph-name="Z" unicode="Z" horiz-adv-x="569" 
d="M43 85l362 471h-357v85h473v-85l-362 -471h366v-85h-482v85z" />
    <glyph glyph-name="bracketleft" unicode="[" horiz-adv-x="333" 
d="M95 -130v818h207v-79h-118v-660h118v-79h-207z" />
    <glyph glyph-name="backslash" unicode="\" horiz-adv-x="416" 
d="M395 0h-91l-283 641h91z" />
    <glyph glyph-name="bracketright" unicode="]" horiz-adv-x="333" 
d="M238 -130h-207v79h118v660h-118v79h207v-818z" />
    <glyph glyph-name="asciicircum" unicode="^" horiz-adv-x="521" 
d="M226 641h74l156 -320h-81l-112 238l-116 -238h-81z" />
    <glyph glyph-name="underscore" unicode="_" horiz-adv-x="433" 
d="M0 -20h433v-63h-433v63z" />
    <glyph glyph-name="grave" unicode="`" horiz-adv-x="400" 
d="M153 688l98 -156h-81l-123 156h106z" />
    <glyph glyph-name="a" unicode="a" horiz-adv-x="626" 
d="M451 0v75q-61 -87 -168 -87q-98 0 -165 72t-67 180q0 107 66 179t166 72q108 0 168 -84v72h89v-479h-89zM296 71q67 0 111 49t44 120t-44 119.5t-111 48.5t-111.5 -48.5t-44.5 -119.5t44.5 -120t111.5 -49z" />
    <glyph glyph-name="b" unicode="b" horiz-adv-x="626" 
d="M342 491q98 0 165.5 -72t67.5 -180q0 -107 -66.5 -179t-166.5 -72q-108 0 -167 82v-70h-89v688h89v-282q60 85 167 85zM331 408q-67 0 -111.5 -49t-44.5 -120t44 -119.5t112 -48.5q67 0 111 48.5t44 119.5t-44 120t-111 49z" />
    <glyph glyph-name="c" unicode="c" horiz-adv-x="500" 
d="M427 361q-50 47 -126 47q-70 0 -115.5 -48.5t-45.5 -119.5t45.5 -120t114.5 -49q80 0 129 49l46 -65q-29 -31 -76.5 -49t-101.5 -18q-104 0 -175 73.5t-71 178.5t71.5 178t175.5 73q115 0 180 -67z" />
    <glyph glyph-name="d" unicode="d" horiz-adv-x="626" 
d="M296 71q67 0 111 49t44 120t-44 119.5t-111 48.5t-111.5 -48.5t-44.5 -119.5t44.5 -120t111.5 -49zM451 688h89v-688h-89v75q-61 -87 -168 -87q-98 0 -165 72t-67 180q0 107 66 179t166 72q108 0 168 -84v281z" />
    <glyph glyph-name="e" unicode="e" horiz-adv-x="565" 
d="M302 -12q-108 0 -179.5 73t-71.5 179q0 105 68 178t169 73q100 0 168 -70t68 -172q0 -21 -3 -32h-380q8 -66 52.5 -108t111.5 -42q81 0 134 53l47 -61q-30 -32 -79 -51.5t-105 -19.5zM289 415q-57 0 -96.5 -39t-49.5 -100h290q-10 66 -48.5 102.5t-95.5 36.5z" />
    <glyph glyph-name="f" unicode="f" horiz-adv-x="358" 
d="M385 654l-45 -65q-26 28 -68 28q-35 0 -53.5 -22t-18.5 -62v-54h127v-79h-127v-400h-88v400h-76v79h76v55q0 79 41 122.5t111 43.5q78 0 121 -46z" />
    <glyph glyph-name="g" unicode="g" horiz-adv-x="621" 
d="M134 -77q67 -50 154 -50q76 0 117.5 40t41.5 116v57q-60 -85 -168 -85q-97 0 -162.5 70t-65.5 175q0 104 66 173.5t162 69.5q108 0 168 -81v71h88v-445q0 -125 -67.5 -183.5t-174.5 -58.5q-132 0 -204 61zM294 84q66 0 109.5 47.5t43.5 115.5t-43.5 114.5t-109.5 46.5
t-110 -47t-44 -114q0 -68 44 -115.5t110 -47.5z" />
    <glyph glyph-name="h" unicode="h" 
d="M175 279v-279h-89v688h89v-268q47 71 144 71q85 0 135.5 -53.5t50.5 -144.5v-293h-89v279q0 59 -32.5 94t-88.5 35t-88 -34.5t-32 -94.5z" />
    <glyph glyph-name="i" unicode="i" horiz-adv-x="260" 
d="M175 479v-479h-89v479h89zM130 562q-22 0 -38.5 16t-16.5 39t16.5 39t38.5 16t38.5 -16t16.5 -39t-16.5 -39t-38.5 -16z" />
    <glyph glyph-name="j" unicode="j" horiz-adv-x="260" 
d="M130 672q22 0 38.5 -16t16.5 -39t-16.5 -39t-38.5 -16t-38.5 16t-16.5 39t16.5 39t38.5 16zM175 479v-519q0 -79 -38.5 -123.5t-109.5 -44.5q-63 0 -104 36l42 66q26 -21 58 -21q30 0 46.5 21t16.5 61v524h89z" />
    <glyph glyph-name="k" unicode="k" horiz-adv-x="539" 
d="M86 0v688h89v-397h75l143 188h106l-170 -223l181 -256h-110l-148 211h-77v-211h-89z" />
    <glyph glyph-name="l" unicode="l" horiz-adv-x="260" 
d="M86 0v688h89v-688h-89z" />
    <glyph glyph-name="m" unicode="m" horiz-adv-x="890" 
d="M175 279v-279h-89v479h89v-60q47 72 138 72q114 0 160 -97q21 44 61 70.5t95 26.5q84 0 133.5 -53t49.5 -145v-293h-89v279q0 59 -30.5 94t-83.5 35q-54 0 -85 -35t-31 -94v-279h-88v279q0 59 -31 94t-84 35q-54 0 -84.5 -34.5t-30.5 -94.5z" />
    <glyph glyph-name="n" unicode="n" 
d="M175 279v-279h-89v479h89v-59q47 71 144 71q85 0 135.5 -53.5t50.5 -144.5v-293h-89v279q0 59 -32.5 94t-88.5 35t-88 -34.5t-32 -94.5z" />
    <glyph glyph-name="o" unicode="o" horiz-adv-x="591" 
d="M295 -12q-102 0 -173 73.5t-71 178.5t71 178t173 73q103 0 174 -73t71 -178t-71 -178.5t-174 -73.5zM296 71q67 0 111 49t44 120t-44 119.5t-111 48.5t-111.5 -48.5t-44.5 -119.5t44.5 -120t111.5 -49z" />
    <glyph glyph-name="p" unicode="p" horiz-adv-x="626" 
d="M86 479h89v-73q60 85 167 85q98 0 165.5 -72t67.5 -180q0 -107 -66.5 -179t-166.5 -72q-108 0 -167 82v-266h-89v675zM331 408q-67 0 -111.5 -49t-44.5 -120t44 -119.5t112 -48.5q67 0 111 48.5t44 119.5t-44 120t-111 49z" />
    <glyph glyph-name="q" unicode="q" horiz-adv-x="626" 
d="M296 71q67 0 111 49t44 120t-44 119.5t-111 48.5t-111.5 -48.5t-44.5 -119.5t44.5 -120t111.5 -49zM451 479h89v-675h-89v271q-61 -87 -168 -87q-98 0 -165 72t-67 180q0 107 66 179t166 72q108 0 168 -84v72z" />
    <glyph glyph-name="r" unicode="r" horiz-adv-x="389" 
d="M175 276v-276h-89v479h89v-60q43 72 120 72q47 0 73 -21l-37 -83q-28 19 -62 19q-43 0 -68.5 -35t-25.5 -95z" />
    <glyph glyph-name="s" unicode="s" horiz-adv-x="457" 
d="M142 358q0 -28 28 -45.5t68 -28.5t80 -25.5t68 -46.5t28 -81q0 -63 -49.5 -103t-137.5 -40q-129 0 -192 78l52 58q53 -64 146 -64q44 0 68.5 19t24.5 50q0 30 -28 49t-67.5 30.5t-79.5 26t-68 45.5t-28 78q0 55 46.5 94t126.5 39q126 0 178 -74l-53 -53q-44 55 -123 55
q-40 0 -64 -17t-24 -44z" />
    <glyph glyph-name="t" unicode="t" horiz-adv-x="391" 
d="M32 400v79h80v119h88v-119h136v-79h-135v-253q0 -76 66 -76q40 0 62 25l41 -67q-41 -41 -115 -41q-68 0 -106 40t-38 116v256h-79z" />
    <glyph glyph-name="u" unicode="u" 
d="M167 479v-265q0 -63 34 -101.5t89 -38.5q57 0 91 38.5t34 101.5v265h89v-272q0 -98 -58.5 -157t-155.5 -59q-96 0 -154 59t-58 157v272h89z" />
    <glyph glyph-name="v" unicode="v" horiz-adv-x="519" 
d="M407 479h91l-181 -479h-115l-181 479h98l143 -399z" />
    <glyph glyph-name="w" unicode="w" horiz-adv-x="809" 
d="M685 479h95l-154 -479h-109l-117 366l-116 -366h-101l-154 479h95l111 -380l120 380h97l121 -381z" />
    <glyph glyph-name="x" unicode="x" horiz-adv-x="521" 
d="M389 0l-133 177l-135 -177h-100l185 244l-177 235h110l126 -167l127 167h100l-177 -234l185 -245h-111z" />
    <glyph glyph-name="y" unicode="y" horiz-adv-x="519" 
d="M112 479l160 -374l136 374h90l-207 -557q-46 -130 -155 -130q-66 0 -115 44l42 69q31 -30 75 -30q27 0 45.5 17.5t33.5 60.5l15 41l-217 485h97z" />
    <glyph glyph-name="z" unicode="z" horiz-adv-x="487" 
d="M46 79l274 321h-267v79h382v-79l-275 -321h281v-79h-395v79z" />
    <glyph glyph-name="braceleft" unicode="{" horiz-adv-x="347" 
d="M38 240v78q46 0 63.5 19t17.5 63v152q0 61 35.5 98.5t106.5 37.5h55v-79h-36q-72 0 -72 -72v-153q0 -97 -82 -105q82 -8 82 -105v-153q0 -72 72 -72h36v-79h-55q-71 0 -106.5 37.5t-35.5 98.5v152q0 44 -17.5 63t-63.5 19z" />
    <glyph glyph-name="bar" unicode="|" horiz-adv-x="277" 
d="M181 -196h-86v884h86v-884z" />
    <glyph glyph-name="braceright" unicode="}" horiz-adv-x="347" 
d="M309 240q-46 0 -63.5 -19t-17.5 -63v-152q0 -61 -35.5 -98.5t-106.5 -37.5h-55v79h36q72 0 72 72v153q0 97 82 105q-82 8 -82 105v153q0 72 -72 72h-36v79h55q71 0 106.5 -37.5t35.5 -98.5v-152q0 -44 17.5 -63t63.5 -19v-78z" />
    <glyph glyph-name="asciitilde" unicode="~" horiz-adv-x="521" 
d="M58 269v84q57 37 108 37q43 0 99 -26t91 -26q63 0 108 31v-83q-48 -30 -106 -30q-42 0 -99 26t-92 26q-66 0 -109 -39z" />
    <glyph glyph-name="uni00A0" unicode="&#xa0;" horiz-adv-x="228" 
 />
    <glyph glyph-name="exclamdown" unicode="&#xa1;" horiz-adv-x="291" 
d="M193 -159h-97l12 434h73zM208 430q0 -26 -18 -44.5t-44 -18.5t-44 18.5t-18 44.5q0 25 18.5 43t43.5 18t43.5 -18t18.5 -43z" />
    <glyph glyph-name="cent" unicode="&#xa2;" horiz-adv-x="511" 
d="M427 439q-50 47 -126 47q-70 0 -115.5 -48.5t-45.5 -119.5t45.5 -120t114.5 -49q80 0 129 49l46 -65q-51 -55 -146 -65v-80h-77v82q-88 16 -144.5 85.5t-56.5 162.5t57 162t145 85v82h76v-79q94 -9 149 -66z" />
    <glyph glyph-name="sterling" unicode="&#xa3;" horiz-adv-x="558" 
d="M59 81h26q58 0 58 76v118h-68v63h68v113q0 91 53.5 147t145.5 56q117 0 177 -86l-57 -57q-47 60 -116 60q-55 0 -84.5 -34.5t-29.5 -90.5v-108h217v-63h-217v-121q0 -64 -45 -73h335v-81h-463v81z" />
    <glyph glyph-name="currency" unicode="&#xa4;" horiz-adv-x="564" 
d="M417 306q0 60 -39.5 101.5t-96.5 41.5q-58 0 -97.5 -41.5t-39.5 -101.5q0 -59 39.5 -101t97.5 -42q57 0 96.5 42t39.5 101zM31 492l57 58l67 -65q55 41 126 41q73 0 127 -42l68 66l56 -58l-69 -67q33 -55 33 -119t-33 -119l69 -68l-56 -57l-68 65q-57 -42 -127 -42
q-72 0 -126 42l-67 -65l-57 57l69 67q-35 56 -35 120t35 120z" />
    <glyph glyph-name="yen" unicode="&#xa5;" horiz-adv-x="599" 
d="M522 186h-177v-186h-91v186h-177v63h159l-52 92h-107v63h72l-133 237h101l184 -339l186 339h96l-133 -237h72v-63h-107l-52 -92h159v-63z" />
    <glyph glyph-name="brokenbar" unicode="&#xa6;" horiz-adv-x="277" 
d="M181 688v-365h-86v365h86zM181 169v-365h-86v365h86z" />
    <glyph glyph-name="section" unicode="&#xa7;" horiz-adv-x="689" 
d="M186 269q0 -32 29.5 -55t67.5 -34l95 -28q57 -17 91 -32q41 25 41 69q0 34 -28.5 58.5t-63 36t-92.5 28.5t-89 29q-51 -22 -51 -72zM565 554l-63 -62q-23 32 -67 54t-96 22q-56 0 -89 -23t-33 -61q0 -31 29 -53t72 -33.5t93.5 -27.5t93.5 -34.5t72 -55t29 -87.5
q0 -74 -68 -119q37 -37 37 -93q0 -85 -64 -137t-170 -52q-166 0 -243 109l65 61q65 -85 181 -85q64 0 99.5 26t35.5 70q0 40 -40 66t-97.5 41t-114.5 33.5t-97 56.5t-40 96q0 75 77 115q-46 39 -46 98q0 77 62.5 125.5t161.5 48.5q72 0 130.5 -28t89.5 -71z" />
    <glyph glyph-name="dieresis" unicode="&#xa8;" horiz-adv-x="400" 
d="M116 563q-21 0 -35.5 14.5t-14.5 36.5q0 21 14.5 36t35.5 15q22 0 37 -15.5t15 -35.5q0 -22 -15 -36.5t-37 -14.5zM283 563q-21 0 -36 14.5t-15 36.5q0 20 15 35.5t36 15.5t36 -15.5t15 -35.5q0 -22 -15 -36.5t-36 -14.5z" />
    <glyph glyph-name="copyright" unicode="&#xa9;" horiz-adv-x="831" 
d="M416 683q149 0 255 -106.5t106 -255.5t-106 -255t-255 -106q-150 0 -256 106t-106 255t106 255.5t256 106.5zM416 625q-124 0 -212.5 -89t-88.5 -214t88 -213.5t213 -88.5t213.5 88.5t88.5 213.5t-88.5 214t-213.5 89zM571 476l-42 -53q-47 42 -110 42q-59 0 -99 -42
t-40 -102q0 -59 41 -100.5t102 -41.5q64 0 110 43l39 -53q-58 -60 -152 -60q-90 0 -152 62t-62 150q0 89 61 151.5t149 62.5q97 0 155 -59z" />
    <glyph glyph-name="ordfeminine" unicode="&#xaa;" horiz-adv-x="401" 
d="M280 322v52q-37 -59 -106 -59q-61 0 -104 46.5t-43 118.5q0 71 42 119.5t104 48.5q70 0 107 -59v51h73v-318h-73zM190 381q39 0 64 28.5t25 70.5t-25 70t-64 28t-64.5 -28t-25.5 -70t25.5 -70.5t64.5 -28.5z" />
    <glyph glyph-name="guillemotleft" unicode="&#xab;" horiz-adv-x="512" 
d="M51 245l157 197l55 -45l-123 -152l123 -151l-55 -46zM249 245l157 197l55 -45l-123 -152l123 -151l-55 -46z" />
    <glyph glyph-name="logicalnot" unicode="&#xac;" horiz-adv-x="521" 
d="M464 143h-82v139h-324v80h406v-219z" />
    <glyph glyph-name="uni00AD" unicode="&#xad;" horiz-adv-x="318" 
d="M40 281h238v-77h-238v77z" />
    <glyph glyph-name="registered" unicode="&#xae;" horiz-adv-x="543" 
d="M272 714q99 0 168 -71t69 -170q0 -102 -68 -171t-169 -69q-99 0 -168.5 70.5t-69.5 169.5t69.5 170t168.5 71zM272 664q-78 0 -132 -56t-54 -135q0 -78 54 -134t132 -56q80 0 133 54.5t53 135.5q0 79 -54 135t-132 56zM179 352v246h100q40 0 67.5 -17t27.5 -56
q0 -55 -60 -68l72 -105h-64l-67 101h-19v-101h-57zM275 553h-39v-59h39q40 0 40 30q0 29 -40 29z" />
    <glyph glyph-name="macron" unicode="&#xaf;" horiz-adv-x="400" 
d="M59 651h281v-68h-281v68z" />
    <glyph glyph-name="degree" unicode="&#xb0;" horiz-adv-x="367" 
d="M182 325q-69 0 -117.5 47.5t-48.5 115.5q0 70 47 117.5t121 47.5q75 0 121 -47.5t46 -117.5q0 -68 -48 -115.5t-121 -47.5zM183 384q44 0 73.5 29t29.5 75q0 48 -30 76.5t-72 28.5t-72.5 -29t-30.5 -76t30.5 -75.5t71.5 -28.5z" />
    <glyph glyph-name="plusminus" unicode="&#xb1;" horiz-adv-x="521" 
d="M303 571v-165h161v-80h-161v-165h-84v165h-161v80h161v165h84zM58 0v81h406v-81h-406z" />
    <glyph glyph-name="twosuperior" unicode="&#xb2;" horiz-adv-x="298" 
d="M38 321v50l119 103q39 32 39 67q0 21 -14 35.5t-38 14.5q-44 0 -68 -48l-44 31q33 74 119 74q49 0 79 -29t30 -70q0 -59 -63 -107l-76 -68h140v-53h-223z" />
    <glyph glyph-name="threesuperior" unicode="&#xb3;" horiz-adv-x="298" 
d="M143 315q-76 0 -111 51l42 41q28 -36 68 -36q28 0 43.5 14.5t15.5 37.5q0 25 -18 39.5t-53 14.5h-30v30l84 80h-134v54h206v-46l-86 -80q94 -13 94 -94q0 -46 -32 -76t-89 -30z" />
    <glyph glyph-name="acute" unicode="&#xb4;" horiz-adv-x="400" 
d="M247 688h106l-123 -156h-81z" />
    <glyph glyph-name="uni00B5" unicode="&#xb5;" horiz-adv-x="588" 
d="M172 479v-265q0 -63 34 -101.5t90 -38.5t90.5 38.5t34.5 101.5v265h89v-272q0 -98 -58.5 -157t-155.5 -59q-72 0 -124 35v-204h-88v657h88z" />
    <glyph glyph-name="paragraph" unicode="&#xb6;" horiz-adv-x="565" 
d="M474 641v-837h-67v758h-57v-758h-92v432q-97 7 -153 64.5t-56 142.5q0 91 60.5 144.5t165.5 53.5h199z" />
    <glyph glyph-name="periodcentered" unicode="&#xb7;" horiz-adv-x="400" 
d="M200 251q-23 0 -39 15.5t-16 38.5t16 39.5t39 16.5q22 0 38.5 -16.5t16.5 -39.5q0 -22 -16 -38t-39 -16z" />
    <glyph glyph-name="cedilla" unicode="&#xb8;" horiz-adv-x="400" 
d="M182 15h61l-77 -195l-74 30z" />
    <glyph glyph-name="onesuperior" unicode="&#xb9;" horiz-adv-x="298" 
d="M192 321h-66v246l-51 -50l-37 42l86 82h68v-320z" />
    <glyph glyph-name="ordmasculine" unicode="&#xba;" horiz-adv-x="380" 
d="M190 315q-68 0 -115.5 48.5t-47.5 117.5t47.5 118.5t115.5 49.5t115.5 -49.5t47.5 -118.5t-47.5 -117.5t-115.5 -48.5zM190 383q39 0 64 28t25 70t-25 70t-64 28t-64.5 -28t-25.5 -70t25.5 -70t64.5 -28z" />
    <glyph glyph-name="guillemotright" unicode="&#xbb;" horiz-adv-x="512" 
d="M461 245l-157 -197l-55 46l122 151l-122 152l55 45zM263 245l-157 -197l-55 46l123 151l-123 152l55 45z" />
    <glyph glyph-name="onequarter" unicode="&#xbc;" horiz-adv-x="672" 
d="M192 321h-66v246l-51 -50l-37 42l86 82h68v-320zM92 0l440 641h72l-437 -641h-75zM546 0v58h-155v57l155 205h60v-205h45v-57h-45v-58h-60zM546 115v137l-103 -137h103z" />
    <glyph glyph-name="onehalf" unicode="&#xbd;" horiz-adv-x="672" 
d="M192 321h-66v246l-51 -50l-37 42l86 82h68v-320zM68 0l440 641h72l-437 -641h-75zM412 0v50l119 103q39 32 39 67q0 21 -14 35.5t-38 14.5q-44 0 -68 -48l-44 31q33 74 119 74q49 0 79 -29t30 -70q0 -59 -63 -107l-76 -68h140v-53h-223z" />
    <glyph glyph-name="threequarters" unicode="&#xbe;" horiz-adv-x="672" 
d="M143 315q-76 0 -111 51l42 41q28 -36 68 -36q28 0 43.5 14.5t15.5 37.5q0 25 -18 39.5t-53 14.5h-30v30l84 80h-134v54h206v-46l-86 -80q94 -13 94 -94q0 -46 -32 -76t-89 -30zM104 0l440 641h72l-437 -641h-75zM546 0v58h-155v57l155 205h60v-205h45v-57h-45v-58h-60z
M546 115v137l-103 -137h103z" />
    <glyph glyph-name="questiondown" unicode="&#xbf;" horiz-adv-x="490" 
d="M404 -5l59 -52q-30 -50 -82 -82t-118 -32q-93 0 -146.5 54.5t-53.5 130.5q0 58 29.5 103.5t100.5 94.5l75 51l41 -65l-77 -53q-42 -29 -61 -58t-19 -68q0 -47 32.5 -77t82.5 -30q77 0 137 83zM265 491q25 0 43.5 -18t18.5 -43q0 -26 -18 -44.5t-44 -18.5t-44 18.5
t-18 44.5q0 25 18.5 43t43.5 18z" />
    <glyph glyph-name="Agrave" unicode="&#xc0;" horiz-adv-x="676" 
d="M554 0l-66 164h-306l-66 -164h-95l264 641h106l264 -641h-101zM291 850l98 -156h-81l-123 156h106zM456 245l-121 300l-120 -300h241z" />
    <glyph glyph-name="Aacute" unicode="&#xc1;" horiz-adv-x="676" 
d="M554 0l-66 164h-306l-66 -164h-95l264 641h106l264 -641h-101zM385 850h106l-123 -156h-81zM456 245l-121 300l-120 -300h241z" />
    <glyph glyph-name="Acircumflex" unicode="&#xc2;" horiz-adv-x="676" 
d="M554 0l-66 164h-306l-66 -164h-95l264 641h106l264 -641h-101zM297 850h82l120 -156h-85l-76 101l-76 -101h-85zM456 245l-121 300l-120 -300h241z" />
    <glyph glyph-name="Atilde" unicode="&#xc3;" horiz-adv-x="676" 
d="M554 0l-66 164h-306l-66 -164h-95l264 641h106l264 -641h-101zM411 710q-30 0 -72 27t-65 27q-34 0 -62 -52l-44 36q34 83 97 83q30 0 71.5 -27.5t64.5 -27.5q35 0 62 53l44 -36q-33 -83 -96 -83zM456 245l-121 300l-120 -300h241z" />
    <glyph glyph-name="Adieresis" unicode="&#xc4;" horiz-adv-x="676" 
d="M554 0l-66 164h-306l-66 -164h-95l264 641h106l264 -641h-101zM254 725q-21 0 -35.5 14.5t-14.5 36.5q0 21 14.5 36t35.5 15q22 0 37 -15.5t15 -35.5q0 -22 -15 -36.5t-37 -14.5zM421 725q-21 0 -36 14.5t-15 36.5q0 20 15 35.5t36 15.5t36 -15.5t15 -35.5
q0 -22 -15 -36.5t-36 -14.5zM456 245l-121 300l-120 -300h241z" />
    <glyph glyph-name="Aring" unicode="&#xc5;" horiz-adv-x="676" 
d="M554 0l-66 164h-306l-66 -164h-95l264 641h106l264 -641h-101zM338 684q-48 0 -81 32t-33 78t33 78t81 32t81 -32t33 -78t-33 -78t-81 -32zM339 734q25 0 42.5 17t17.5 43t-17.5 43.5t-42.5 17.5t-43 -17.5t-18 -43.5t18 -43t43 -17zM456 245l-121 300l-120 -300h241z
" />
    <glyph glyph-name="AE" unicode="&#xc6;" horiz-adv-x="837" 
d="M367 561l-148 -316h191v316h-43zM410 0v164h-228l-77 -164h-95l301 641h482v-85h-293v-192h253v-85h-253v-194h293v-85h-383z" />
    <glyph glyph-name="Ccedilla" unicode="&#xc7;" horiz-adv-x="640" 
d="M611 573l-60 -70q-73 61 -169 61t-163.5 -71.5t-67.5 -172.5t69 -172t170 -71q100 0 162 59l59 -66q-77 -76 -207 -82l-66 -168l-74 30l77 141q-124 16 -205 109t-81 220q0 138 95.5 235.5t231.5 97.5q141 0 229 -80z" />
    <glyph glyph-name="Egrave" unicode="&#xc8;" horiz-adv-x="542" 
d="M91 0v641h407v-85h-317v-192h277v-85h-277v-194h317v-85h-407zM245 850l98 -156h-81l-123 156h106z" />
    <glyph glyph-name="Eacute" unicode="&#xc9;" horiz-adv-x="542" 
d="M91 0v641h407v-85h-317v-192h277v-85h-277v-194h317v-85h-407zM339 850h106l-123 -156h-81z" />
    <glyph glyph-name="Ecircumflex" unicode="&#xca;" horiz-adv-x="542" 
d="M91 0v641h407v-85h-317v-192h277v-85h-277v-194h317v-85h-407zM251 850h82l120 -156h-85l-76 101l-76 -101h-85z" />
    <glyph glyph-name="Edieresis" unicode="&#xcb;" horiz-adv-x="542" 
d="M91 0v641h407v-85h-317v-192h277v-85h-277v-194h317v-85h-407zM208 725q-21 0 -35.5 14.5t-14.5 36.5q0 21 14.5 36t35.5 15q22 0 37 -15.5t15 -35.5q0 -22 -15 -36.5t-37 -14.5zM375 725q-21 0 -36 14.5t-15 36.5q0 20 15 35.5t36 15.5t36 -15.5t15 -35.5
q0 -22 -15 -36.5t-36 -14.5z" />
    <glyph glyph-name="Igrave" unicode="&#xcc;" horiz-adv-x="272" 
d="M91 0v641h90v-641h-90zM89 850l98 -156h-81l-123 156h106z" />
    <glyph glyph-name="Iacute" unicode="&#xcd;" horiz-adv-x="272" 
d="M91 0v641h90v-641h-90zM183 850h106l-123 -156h-81z" />
    <glyph glyph-name="Icircumflex" unicode="&#xce;" horiz-adv-x="272" 
d="M91 0v641h90v-641h-90zM95 850h82l120 -156h-85l-76 101l-76 -101h-85z" />
    <glyph glyph-name="Idieresis" unicode="&#xcf;" horiz-adv-x="272" 
d="M91 0v641h90v-641h-90zM52 725q-21 0 -35.5 14.5t-14.5 36.5q0 21 14.5 36t35.5 15q22 0 37 -15.5t15 -35.5q0 -22 -15 -36.5t-37 -14.5zM219 725q-21 0 -36 14.5t-15 36.5q0 20 15 35.5t36 15.5t36 -15.5t15 -35.5q0 -22 -15 -36.5t-36 -14.5z" />
    <glyph glyph-name="Eth" unicode="&#xd0;" horiz-adv-x="703" 
d="M91 0v290h-75v77h75v273h196q160 0 260.5 -89t100.5 -231t-98 -231t-254 -89h-205zM289 555h-105v-188h146v-77h-146v-205h105q119 0 191 64t72 171t-72 171t-191 64z" />
    <glyph glyph-name="Ntilde" unicode="&#xd1;" horiz-adv-x="719" 
d="M533 0l-354 494v-494h-91v641h98l355 -497v497h90v-641h-98zM433 710q-30 0 -72 27t-65 27q-34 0 -62 -52l-44 36q34 83 97 83q30 0 71.5 -27.5t64.5 -27.5q35 0 62 53l44 -36q-33 -83 -96 -83z" />
    <glyph glyph-name="Ograve" unicode="&#xd2;" horiz-adv-x="767" 
d="M383 653q136 0 232.5 -98t96.5 -236q0 -137 -96.5 -234t-232.5 -97t-232 97.5t-96 234.5q0 138 96 235.5t232 97.5zM383 77q97 0 165 71t68 171q0 101 -68 173t-165 72q-96 0 -164 -71.5t-68 -172.5t68 -172t164 -71zM336 850l98 -156h-81l-123 156h106z" />
    <glyph glyph-name="Oacute" unicode="&#xd3;" horiz-adv-x="767" 
d="M383 653q136 0 232.5 -98t96.5 -236q0 -137 -96.5 -234t-232.5 -97t-232 97.5t-96 234.5q0 138 96 235.5t232 97.5zM383 77q97 0 165 71t68 171q0 101 -68 173t-165 72q-96 0 -164 -71.5t-68 -172.5t68 -172t164 -71zM430 850h106l-123 -156h-81z" />
    <glyph glyph-name="Ocircumflex" unicode="&#xd4;" horiz-adv-x="767" 
d="M383 653q136 0 232.5 -98t96.5 -236q0 -137 -96.5 -234t-232.5 -97t-232 97.5t-96 234.5q0 138 96 235.5t232 97.5zM383 77q97 0 165 71t68 171q0 101 -68 173t-165 72q-96 0 -164 -71.5t-68 -172.5t68 -172t164 -71zM342 850h82l120 -156h-85l-76 101l-76 -101h-85z" />
    <glyph glyph-name="Otilde" unicode="&#xd5;" horiz-adv-x="767" 
d="M383 653q136 0 232.5 -98t96.5 -236q0 -137 -96.5 -234t-232.5 -97t-232 97.5t-96 234.5q0 138 96 235.5t232 97.5zM383 77q97 0 165 71t68 171q0 101 -68 173t-165 72q-96 0 -164 -71.5t-68 -172.5t68 -172t164 -71zM456 710q-30 0 -72 27t-65 27q-34 0 -62 -52l-44 36
q34 83 97 83q30 0 71.5 -27.5t64.5 -27.5q36 0 62 53l44 -36q-33 -83 -96 -83z" />
    <glyph glyph-name="Odieresis" unicode="&#xd6;" horiz-adv-x="767" 
d="M383 653q136 0 232.5 -98t96.5 -236q0 -137 -96.5 -234t-232.5 -97t-232 97.5t-96 234.5q0 138 96 235.5t232 97.5zM383 77q97 0 165 71t68 171q0 101 -68 173t-165 72q-96 0 -164 -71.5t-68 -172.5t68 -172t164 -71zM299 725q-21 0 -35.5 14.5t-14.5 36.5q0 21 14.5 36
t35.5 15t36.5 -15.5t15.5 -35.5q0 -22 -15 -36.5t-37 -14.5zM466 725q-21 0 -36 14.5t-15 36.5q0 20 15 35.5t36 15.5t36 -15.5t15 -35.5q0 -22 -15 -36.5t-36 -14.5z" />
    <glyph glyph-name="multiply" unicode="&#xd7;" horiz-adv-x="521" 
d="M140 503l122 -122l122 123l59 -59l-122 -122l121 -122l-60 -60l-121 122l-123 -123l-59 58l123 123l-122 122z" />
    <glyph glyph-name="Oslash" unicode="&#xd8;" horiz-adv-x="767" 
d="M383 653q84 0 157 -41l52 76l54 -35l-53 -78q56 -47 87.5 -113.5t31.5 -142.5q0 -137 -96.5 -234t-232.5 -97q-87 0 -160 42l-53 -77l-53 35l54 79q-54 47 -85 113t-31 140q0 138 96 235.5t232 97.5zM151 320q0 -104 72 -176l267 393q-51 27 -107 27q-96 0 -164 -71.5
t-68 -172.5zM383 77q97 0 165 71t68 171q0 107 -75 180l-267 -393q49 -29 109 -29z" />
    <glyph glyph-name="Ugrave" unicode="&#xd9;" horiz-adv-x="668" 
d="M83 250v391h91v-391q0 -78 44 -125.5t116 -47.5q73 0 116.5 47.5t43.5 125.5v391h91v-391q0 -118 -69.5 -190t-182.5 -72t-181.5 71.5t-68.5 190.5zM287 850l98 -156h-81l-123 156h106z" />
    <glyph glyph-name="Uacute" unicode="&#xda;" horiz-adv-x="668" 
d="M83 250v391h91v-391q0 -78 44 -125.5t116 -47.5q73 0 116.5 47.5t43.5 125.5v391h91v-391q0 -118 -69.5 -190t-182.5 -72t-181.5 71.5t-68.5 190.5zM381 850h106l-123 -156h-81z" />
    <glyph glyph-name="Ucircumflex" unicode="&#xdb;" horiz-adv-x="668" 
d="M83 250v391h91v-391q0 -78 44 -125.5t116 -47.5q73 0 116.5 47.5t43.5 125.5v391h91v-391q0 -118 -69.5 -190t-182.5 -72t-181.5 71.5t-68.5 190.5zM293 850h82l120 -156h-85l-76 101l-76 -101h-85z" />
    <glyph glyph-name="Udieresis" unicode="&#xdc;" horiz-adv-x="668" 
d="M83 250v391h91v-391q0 -78 44 -125.5t116 -47.5q73 0 116.5 47.5t43.5 125.5v391h91v-391q0 -118 -69.5 -190t-182.5 -72t-181.5 71.5t-68.5 190.5zM250 725q-21 0 -35.5 14.5t-14.5 36.5q0 21 14.5 36t35.5 15q22 0 37 -15.5t15 -35.5q0 -22 -15 -36.5t-37 -14.5z
M417 725q-21 0 -36 14.5t-15 36.5q0 20 15 35.5t36 15.5t36 -15.5t15 -35.5q0 -22 -15 -36.5t-36 -14.5z" />
    <glyph glyph-name="Yacute" unicode="&#xdd;" horiz-adv-x="599" 
d="M254 0v216l-238 425h101l184 -330l186 330h96l-238 -425v-216h-91zM346 850h106l-123 -156h-81z" />
    <glyph glyph-name="Thorn" unicode="&#xde;" horiz-adv-x="606" 
d="M323 454h-142v-245h142q65 0 104 34t39 89t-39 88.5t-104 33.5zM181 0h-90v641h90v-106h134q111 0 178.5 -55.5t67.5 -147.5t-68 -148t-180 -56h-132v-128z" />
    <glyph glyph-name="germandbls" unicode="&#xdf;" horiz-adv-x="597" 
d="M301 617q-58 0 -89.5 -35.5t-31.5 -103.5v-478h-89v478q0 103 56.5 162.5t152.5 59.5q93 0 149.5 -52.5t56.5 -137.5q0 -91 -78 -139q118 -46 118 -177q0 -93 -60 -149.5t-152 -56.5q-66 0 -104 18l22 79q31 -14 75 -14q58 0 94.5 35t36.5 91q0 58 -37 92.5t-108 34.5
h-55v74h49q53 0 82 32.5t29 76.5q0 49 -31 79.5t-86 30.5z" />
    <glyph glyph-name="agrave" unicode="&#xe0;" horiz-adv-x="626" 
d="M451 0v75q-61 -87 -168 -87q-98 0 -165 72t-67 180q0 107 66 179t166 72q108 0 168 -84v72h89v-479h-89zM296 71q67 0 111 49t44 120t-44 119.5t-111 48.5t-111.5 -48.5t-44.5 -119.5t44.5 -120t111.5 -49zM255 688l98 -156h-81l-123 156h106z" />
    <glyph glyph-name="aacute" unicode="&#xe1;" horiz-adv-x="626" 
d="M451 0v75q-61 -87 -168 -87q-98 0 -165 72t-67 180q0 107 66 179t166 72q108 0 168 -84v72h89v-479h-89zM296 71q67 0 111 49t44 120t-44 119.5t-111 48.5t-111.5 -48.5t-44.5 -119.5t44.5 -120t111.5 -49zM349 688h106l-123 -156h-81z" />
    <glyph glyph-name="acircumflex" unicode="&#xe2;" horiz-adv-x="626" 
d="M451 0v75q-61 -87 -168 -87q-98 0 -165 72t-67 180q0 107 66 179t166 72q108 0 168 -84v72h89v-479h-89zM296 71q67 0 111 49t44 120t-44 119.5t-111 48.5t-111.5 -48.5t-44.5 -119.5t44.5 -120t111.5 -49zM261 688h82l120 -156h-85l-76 101l-76 -101h-85z" />
    <glyph glyph-name="atilde" unicode="&#xe3;" horiz-adv-x="626" 
d="M451 0v75q-61 -87 -168 -87q-98 0 -165 72t-67 180q0 107 66 179t166 72q108 0 168 -84v72h89v-479h-89zM296 71q67 0 111 49t44 120t-44 119.5t-111 48.5t-111.5 -48.5t-44.5 -119.5t44.5 -120t111.5 -49zM375 548q-30 0 -72 27t-65 27q-34 0 -62 -52l-44 36
q34 83 97 83q30 0 71.5 -27.5t64.5 -27.5q35 0 62 53l44 -36q-33 -83 -96 -83z" />
    <glyph glyph-name="adieresis" unicode="&#xe4;" horiz-adv-x="626" 
d="M451 0v75q-61 -87 -168 -87q-98 0 -165 72t-67 180q0 107 66 179t166 72q108 0 168 -84v72h89v-479h-89zM296 71q67 0 111 49t44 120t-44 119.5t-111 48.5t-111.5 -48.5t-44.5 -119.5t44.5 -120t111.5 -49zM218 563q-21 0 -35.5 14.5t-14.5 36.5q0 21 14.5 36t35.5 15
q22 0 37 -15.5t15 -35.5q0 -22 -15 -36.5t-37 -14.5zM385 563q-21 0 -36 14.5t-15 36.5q0 20 15 35.5t36 15.5t36 -15.5t15 -35.5q0 -22 -15 -36.5t-36 -14.5z" />
    <glyph glyph-name="aring" unicode="&#xe5;" horiz-adv-x="626" 
d="M451 0v75q-61 -87 -168 -87q-98 0 -165 72t-67 180q0 107 66 179t166 72q108 0 168 -84v72h89v-479h-89zM296 71q67 0 111 49t44 120t-44 119.5t-111 48.5t-111.5 -48.5t-44.5 -119.5t44.5 -120t111.5 -49zM302 522q-48 0 -81 32t-33 78t33 78t81 32t81 -32t33 -78
t-33 -78t-81 -32zM303 572q25 0 42.5 17t17.5 43t-17.5 43.5t-42.5 17.5t-43 -17.5t-18 -43.5t18 -43t43 -17z" />
    <glyph glyph-name="ae" unicode="&#xe6;" horiz-adv-x="961" 
d="M451 0v79q-60 -91 -168 -91q-98 0 -165 72t-67 180q0 107 66 179t166 72q109 0 168 -88v76h84v-74q58 86 162 86q91 0 156.5 -70.5t65.5 -171.5q0 -18 -2 -32h-381q8 -65 52.5 -107.5t109.5 -42.5q84 0 137 53l46 -61q-29 -32 -78.5 -51.5t-99.5 -19.5q-109 0 -168 88
v-76h-84zM296 71q67 0 111 49t44 120t-44 119.5t-111 48.5t-111.5 -48.5t-44.5 -119.5t44.5 -120t111.5 -49zM685 415q-58 0 -97.5 -38.5t-49.5 -100.5h291q-10 66 -48.5 102.5t-95.5 36.5z" />
    <glyph glyph-name="ccedilla" unicode="&#xe7;" horiz-adv-x="500" 
d="M427 361q-50 47 -126 47q-70 0 -115.5 -48.5t-45.5 -119.5t45.5 -120t114.5 -49q80 0 129 49l46 -65q-52 -56 -151 -66l-67 -169l-74 30l77 141q-91 13 -150 83.5t-59 165.5q0 105 71.5 178t175.5 73q115 0 180 -67z" />
    <glyph glyph-name="egrave" unicode="&#xe8;" horiz-adv-x="565" 
d="M302 -12q-108 0 -179.5 73t-71.5 179q0 105 68 178t169 73q100 0 168 -70t68 -172q0 -21 -3 -32h-380q8 -66 52.5 -108t111.5 -42q81 0 134 53l47 -61q-30 -32 -79 -51.5t-105 -19.5zM289 415q-57 0 -96.5 -39t-49.5 -100h290q-10 66 -48.5 102.5t-95.5 36.5zM236 688
l98 -156h-81l-123 156h106z" />
    <glyph glyph-name="eacute" unicode="&#xe9;" horiz-adv-x="565" 
d="M302 -12q-108 0 -179.5 73t-71.5 179q0 105 68 178t169 73q100 0 168 -70t68 -172q0 -21 -3 -32h-380q8 -66 52.5 -108t111.5 -42q81 0 134 53l47 -61q-30 -32 -79 -51.5t-105 -19.5zM289 415q-57 0 -96.5 -39t-49.5 -100h290q-10 66 -48.5 102.5t-95.5 36.5zM330 688
h106l-123 -156h-81z" />
    <glyph glyph-name="ecircumflex" unicode="&#xea;" horiz-adv-x="565" 
d="M302 -12q-108 0 -179.5 73t-71.5 179q0 105 68 178t169 73q100 0 168 -70t68 -172q0 -21 -3 -32h-380q8 -66 52.5 -108t111.5 -42q81 0 134 53l47 -61q-30 -32 -79 -51.5t-105 -19.5zM289 415q-57 0 -96.5 -39t-49.5 -100h290q-10 66 -48.5 102.5t-95.5 36.5zM242 688h82
l120 -156h-85l-76 101l-76 -101h-85z" />
    <glyph glyph-name="edieresis" unicode="&#xeb;" horiz-adv-x="565" 
d="M302 -12q-108 0 -179.5 73t-71.5 179q0 105 68 178t169 73q100 0 168 -70t68 -172q0 -21 -3 -32h-380q8 -66 52.5 -108t111.5 -42q81 0 134 53l47 -61q-30 -32 -79 -51.5t-105 -19.5zM289 415q-57 0 -96.5 -39t-49.5 -100h290q-10 66 -48.5 102.5t-95.5 36.5zM199 563
q-21 0 -35.5 14.5t-14.5 36.5q0 21 14.5 36t35.5 15t36.5 -15.5t15.5 -35.5q0 -22 -15 -36.5t-37 -14.5zM366 563q-21 0 -36 14.5t-15 36.5q0 20 15 35.5t36 15.5t36 -15.5t15 -35.5q0 -22 -15 -36.5t-36 -14.5z" />
    <glyph glyph-name="igrave" unicode="&#xec;" horiz-adv-x="260" 
d="M175 479v-479h-89v479h89zM83 688l98 -156h-81l-123 156h106z" />
    <glyph glyph-name="iacute" unicode="&#xed;" horiz-adv-x="260" 
d="M175 479v-479h-89v479h89zM177 688h106l-123 -156h-81z" />
    <glyph glyph-name="icircumflex" unicode="&#xee;" horiz-adv-x="260" 
d="M175 479v-479h-89v479h89zM89 688h82l120 -156h-85l-76 101l-76 -101h-85z" />
    <glyph glyph-name="idieresis" unicode="&#xef;" horiz-adv-x="260" 
d="M175 479v-479h-89v479h89zM46 563q-21 0 -35.5 14.5t-14.5 36.5q0 21 14.5 36t35.5 15q22 0 37 -15.5t15 -35.5q0 -22 -15 -36.5t-37 -14.5zM213 563q-21 0 -36 14.5t-15 36.5q0 20 15 35.5t36 15.5t36 -15.5t15 -35.5q0 -22 -15 -36.5t-36 -14.5z" />
    <glyph glyph-name="eth" unicode="&#xf0;" horiz-adv-x="591" 
d="M296 71q67 0 111 46.5t44 114.5q0 69 -44 114.5t-111 45.5t-111.5 -46t-44.5 -114t44.5 -114.5t111.5 -46.5zM295 469q68 0 124 -51q-36 81 -109 151l-78 -44l-29 50l60 34q-40 29 -75 46l59 56q50 -24 94 -59l67 38l29 -50l-50 -28q71 -70 112 -160.5t41 -189.5
q0 -125 -68 -199.5t-177 -74.5q-103 0 -173.5 71t-70.5 173q0 101 70.5 169t173.5 68z" />
    <glyph glyph-name="ntilde" unicode="&#xf1;" 
d="M175 279v-279h-89v479h89v-59q47 71 144 71q85 0 135.5 -53.5t50.5 -144.5v-293h-89v279q0 59 -32.5 94t-88.5 35t-88 -34.5t-32 -94.5zM370 548q-30 0 -72 27t-65 27q-34 0 -62 -52l-44 36q34 83 97 83q30 0 71.5 -27.5t64.5 -27.5q36 0 62 53l44 -36q-33 -83 -96 -83z
" />
    <glyph glyph-name="ograve" unicode="&#xf2;" horiz-adv-x="591" 
d="M295 -12q-102 0 -173 73.5t-71 178.5t71 178t173 73q103 0 174 -73t71 -178t-71 -178.5t-174 -73.5zM296 71q67 0 111 49t44 120t-44 119.5t-111 48.5t-111.5 -48.5t-44.5 -119.5t44.5 -120t111.5 -49zM248 688l98 -156h-81l-123 156h106z" />
    <glyph glyph-name="oacute" unicode="&#xf3;" horiz-adv-x="591" 
d="M295 -12q-102 0 -173 73.5t-71 178.5t71 178t173 73q103 0 174 -73t71 -178t-71 -178.5t-174 -73.5zM296 71q67 0 111 49t44 120t-44 119.5t-111 48.5t-111.5 -48.5t-44.5 -119.5t44.5 -120t111.5 -49zM342 688h106l-123 -156h-81z" />
    <glyph glyph-name="ocircumflex" unicode="&#xf4;" horiz-adv-x="591" 
d="M295 -12q-102 0 -173 73.5t-71 178.5t71 178t173 73q103 0 174 -73t71 -178t-71 -178.5t-174 -73.5zM296 71q67 0 111 49t44 120t-44 119.5t-111 48.5t-111.5 -48.5t-44.5 -119.5t44.5 -120t111.5 -49zM254 688h82l120 -156h-85l-76 101l-76 -101h-85z" />
    <glyph glyph-name="otilde" unicode="&#xf5;" horiz-adv-x="591" 
d="M295 -12q-102 0 -173 73.5t-71 178.5t71 178t173 73q103 0 174 -73t71 -178t-71 -178.5t-174 -73.5zM296 71q67 0 111 49t44 120t-44 119.5t-111 48.5t-111.5 -48.5t-44.5 -119.5t44.5 -120t111.5 -49zM368 548q-30 0 -72 27t-65 27q-34 0 -62 -52l-44 36q34 83 97 83
q30 0 71.5 -27.5t64.5 -27.5q36 0 62 53l44 -36q-33 -83 -96 -83z" />
    <glyph glyph-name="odieresis" unicode="&#xf6;" horiz-adv-x="591" 
d="M295 -12q-102 0 -173 73.5t-71 178.5t71 178t173 73q103 0 174 -73t71 -178t-71 -178.5t-174 -73.5zM296 71q67 0 111 49t44 120t-44 119.5t-111 48.5t-111.5 -48.5t-44.5 -119.5t44.5 -120t111.5 -49zM211 563q-21 0 -35.5 14.5t-14.5 36.5q0 21 14.5 36t35.5 15
t36.5 -15.5t15.5 -35.5q0 -22 -15 -36.5t-37 -14.5zM378 563q-21 0 -36 14.5t-15 36.5q0 20 15 35.5t36 15.5t36 -15.5t15 -35.5q0 -22 -15 -36.5t-36 -14.5z" />
    <glyph glyph-name="divide" unicode="&#xf7;" horiz-adv-x="521" 
d="M58 282v80h406v-80h-406zM258 73q-25 0 -43 18t-18 43q0 26 18 44.5t43 18.5q26 0 44.5 -18.5t18.5 -44.5q0 -25 -18.5 -43t-44.5 -18zM258 446q-25 0 -43 18.5t-18 43.5t18 43.5t43 18.5q26 0 44.5 -18t18.5 -44t-18.5 -44t-44.5 -18z" />
    <glyph glyph-name="oslash" unicode="&#xf8;" horiz-adv-x="600" 
d="M300 -12q-64 0 -117 29l-41 -61l-47 32l42 61q-86 75 -86 191q0 105 72 178t177 73q62 0 118 -29l44 64l47 -32l-44 -65q84 -74 84 -189q0 -105 -72 -178.5t-177 -73.5zM140 240q0 -70 45 -120l186 272q-34 16 -71 16q-69 0 -114.5 -48.5t-45.5 -119.5zM300 71
q69 0 114.5 49t45.5 120t-44 118l-185 -271q34 -16 69 -16z" />
    <glyph glyph-name="ugrave" unicode="&#xf9;" 
d="M167 479v-265q0 -63 34 -101.5t89 -38.5q57 0 91 38.5t34 101.5v265h89v-272q0 -98 -58.5 -157t-155.5 -59q-96 0 -154 59t-58 157v272h89zM244 688l98 -156h-81l-123 156h106z" />
    <glyph glyph-name="uacute" unicode="&#xfa;" 
d="M167 479v-265q0 -63 34 -101.5t89 -38.5q57 0 91 38.5t34 101.5v265h89v-272q0 -98 -58.5 -157t-155.5 -59q-96 0 -154 59t-58 157v272h89zM338 688h106l-123 -156h-81z" />
    <glyph glyph-name="ucircumflex" unicode="&#xfb;" 
d="M167 479v-265q0 -63 34 -101.5t89 -38.5q57 0 91 38.5t34 101.5v265h89v-272q0 -98 -58.5 -157t-155.5 -59q-96 0 -154 59t-58 157v272h89zM250 688h82l120 -156h-85l-76 101l-76 -101h-85z" />
    <glyph glyph-name="udieresis" unicode="&#xfc;" 
d="M167 479v-265q0 -63 34 -101.5t89 -38.5q57 0 91 38.5t34 101.5v265h89v-272q0 -98 -58.5 -157t-155.5 -59q-96 0 -154 59t-58 157v272h89zM207 563q-21 0 -35.5 14.5t-14.5 36.5q0 21 14.5 36t35.5 15t36.5 -15.5t15.5 -35.5q0 -22 -15 -36.5t-37 -14.5zM374 563
q-21 0 -36 14.5t-15 36.5q0 20 15 35.5t36 15.5t36 -15.5t15 -35.5q0 -22 -15 -36.5t-36 -14.5z" />
    <glyph glyph-name="yacute" unicode="&#xfd;" horiz-adv-x="519" 
d="M112 479l160 -374l136 374h90l-207 -557q-46 -130 -155 -130q-66 0 -115 44l42 69q31 -30 75 -30q27 0 45.5 17.5t33.5 60.5l15 41l-217 485h97zM307 688h106l-123 -156h-81z" />
    <glyph glyph-name="thorn" unicode="&#xfe;" horiz-adv-x="626" 
d="M86 688h89v-282q60 85 167 85q98 0 165.5 -72t67.5 -180q0 -107 -66.5 -179t-166.5 -72q-108 0 -167 82v-266h-89v884zM331 408q-67 0 -111.5 -49t-44.5 -120t44 -119.5t112 -48.5q67 0 111 48.5t44 119.5t-44 120t-111 49z" />
    <glyph glyph-name="ydieresis" unicode="&#xff;" horiz-adv-x="519" 
d="M112 479l160 -374l136 374h90l-207 -557q-46 -130 -155 -130q-66 0 -115 44l42 69q31 -30 75 -30q27 0 45.5 17.5t33.5 60.5l15 41l-217 485h97zM176 563q-21 0 -35.5 14.5t-14.5 36.5q0 21 14.5 36t35.5 15q22 0 37 -15.5t15 -35.5q0 -22 -15 -36.5t-37 -14.5zM343 563
q-21 0 -36 14.5t-15 36.5q0 20 15 35.5t36 15.5t36 -15.5t15 -35.5q0 -22 -15 -36.5t-36 -14.5z" />
    <glyph glyph-name="Amacron" unicode="&#x100;" horiz-adv-x="676" 
d="M554 0l-66 164h-306l-66 -164h-95l264 641h106l264 -641h-101zM197 813h281v-68h-281v68zM456 245l-121 300l-120 -300h241z" />
    <glyph glyph-name="amacron" unicode="&#x101;" horiz-adv-x="626" 
d="M451 0v75q-61 -87 -168 -87q-98 0 -165 72t-67 180q0 107 66 179t166 72q108 0 168 -84v72h89v-479h-89zM296 71q67 0 111 49t44 120t-44 119.5t-111 48.5t-111.5 -48.5t-44.5 -119.5t44.5 -120t111.5 -49zM161 651h281v-68h-281v68z" />
    <glyph glyph-name="Abreve" unicode="&#x102;" horiz-adv-x="676" 
d="M554 0l-66 164h-306l-66 -164h-95l264 641h106l264 -641h-101zM338 684q-62 0 -102.5 42.5t-40.5 112.5h66q0 -45 21.5 -69t55.5 -24t56 24t22 69h66q0 -70 -40.5 -112.5t-103.5 -42.5zM456 245l-121 300l-120 -300h241z" />
    <glyph glyph-name="abreve" unicode="&#x103;" horiz-adv-x="626" 
d="M451 0v75q-61 -87 -168 -87q-98 0 -165 72t-67 180q0 107 66 179t166 72q108 0 168 -84v72h89v-479h-89zM296 71q67 0 111 49t44 120t-44 119.5t-111 48.5t-111.5 -48.5t-44.5 -119.5t44.5 -120t111.5 -49zM302 522q-62 0 -102.5 42.5t-40.5 112.5h66q0 -45 21.5 -69
t55.5 -24t56 24t22 69h66q0 -70 -40.5 -112.5t-103.5 -42.5z" />
    <glyph glyph-name="Aogonek" unicode="&#x104;" horiz-adv-x="676" 
d="M631 -148q-41 -45 -103 -45q-41 0 -69 21.5t-28 60.5q0 75 114 133l-57 142h-306l-66 -164h-95l264 641h106l264 -641h-67q-44 -24 -66 -50.5t-22 -47.5q0 -35 40 -35q34 0 63 25zM456 245l-121 300l-120 -300h241z" />
    <glyph glyph-name="aogonek" unicode="&#x105;" horiz-adv-x="626" 
d="M283 -12q-98 0 -165 72t-67 180q0 107 66 179t166 72q108 0 168 -84v72h89v-479h-30q-82 -48 -82 -98q0 -35 40 -35q35 0 68 30l29 -40q-46 -50 -109 -50q-41 0 -69 21.5t-28 60.5q0 69 92 124v62q-61 -87 -168 -87zM296 71q67 0 111 49t44 120t-44 119.5t-111 48.5
t-111.5 -48.5t-44.5 -119.5t44.5 -120t111.5 -49z" />
    <glyph glyph-name="Cacute" unicode="&#x106;" horiz-adv-x="640" 
d="M611 573l-60 -70q-73 61 -169 61t-163.5 -71.5t-67.5 -172.5t69 -172t170 -71q100 0 162 59l59 -66q-83 -82 -227 -82q-139 0 -234 97t-95 235t95.5 235.5t231.5 97.5q141 0 229 -80zM424 850h106l-123 -156h-81z" />
    <glyph glyph-name="cacute" unicode="&#x107;" horiz-adv-x="500" 
d="M427 361q-50 47 -126 47q-70 0 -115.5 -48.5t-45.5 -119.5t45.5 -120t114.5 -49q80 0 129 49l46 -65q-29 -31 -76.5 -49t-101.5 -18q-104 0 -175 73.5t-71 178.5t71.5 178t175.5 73q115 0 180 -67zM328 688h106l-123 -156h-81z" />
    <glyph glyph-name="Ccircumflex" unicode="&#x108;" horiz-adv-x="640" 
d="M611 573l-60 -70q-73 61 -169 61t-163.5 -71.5t-67.5 -172.5t69 -172t170 -71q100 0 162 59l59 -66q-83 -82 -227 -82q-139 0 -234 97t-95 235t95.5 235.5t231.5 97.5q141 0 229 -80zM336 850h82l120 -156h-85l-76 101l-76 -101h-85z" />
    <glyph glyph-name="ccircumflex" unicode="&#x109;" horiz-adv-x="500" 
d="M427 361q-50 47 -126 47q-70 0 -115.5 -48.5t-45.5 -119.5t45.5 -120t114.5 -49q80 0 129 49l46 -65q-29 -31 -76.5 -49t-101.5 -18q-104 0 -175 73.5t-71 178.5t71.5 178t175.5 73q115 0 180 -67zM240 688h82l120 -156h-85l-76 101l-76 -101h-85z" />
    <glyph glyph-name="Cdotaccent" unicode="&#x10a;" horiz-adv-x="640" 
d="M611 573l-60 -70q-73 61 -169 61t-163.5 -71.5t-67.5 -172.5t69 -172t170 -71q100 0 162 59l59 -66q-83 -82 -227 -82q-139 0 -234 97t-95 235t95.5 235.5t231.5 97.5q141 0 229 -80zM377 724q-23 0 -39 16t-16 39t16 39t39 16t39 -16t16 -39t-16 -39t-39 -16z" />
    <glyph glyph-name="cdotaccent" unicode="&#x10b;" horiz-adv-x="500" 
d="M427 361q-50 47 -126 47q-70 0 -115.5 -48.5t-45.5 -119.5t45.5 -120t114.5 -49q80 0 129 49l46 -65q-29 -31 -76.5 -49t-101.5 -18q-104 0 -175 73.5t-71 178.5t71.5 178t175.5 73q115 0 180 -67zM281 562q-23 0 -39 16t-16 39t16 39t39 16t39 -16t16 -39t-16 -39
t-39 -16z" />
    <glyph glyph-name="Ccaron" unicode="&#x10c;" horiz-adv-x="640" 
d="M611 573l-60 -70q-73 61 -169 61t-163.5 -71.5t-67.5 -172.5t69 -172t170 -71q100 0 162 59l59 -66q-83 -82 -227 -82q-139 0 -234 97t-95 235t95.5 235.5t231.5 97.5q141 0 229 -80zM418 694h-82l-120 156h85l76 -101l76 101h85z" />
    <glyph glyph-name="ccaron" unicode="&#x10d;" horiz-adv-x="500" 
d="M427 361q-50 47 -126 47q-70 0 -115.5 -48.5t-45.5 -119.5t45.5 -120t114.5 -49q80 0 129 49l46 -65q-29 -31 -76.5 -49t-101.5 -18q-104 0 -175 73.5t-71 178.5t71.5 178t175.5 73q115 0 180 -67zM322 532h-82l-120 156h85l76 -101l76 101h85z" />
    <glyph glyph-name="Dcaron" unicode="&#x10e;" horiz-adv-x="703" 
d="M91 0v640h196q160 0 260.5 -89t100.5 -231t-98 -231t-254 -89h-205zM289 555h-105v-470h105q119 0 191 64t72 171t-72 171t-191 64zM334 694h-82l-120 156h85l76 -101l76 101h85z" />
    <glyph glyph-name="dcaron" unicode="&#x10f;" horiz-adv-x="667" 
d="M296 71q67 0 111 49t44 120t-44 119.5t-111 48.5t-111.5 -48.5t-44.5 -119.5t44.5 -120t111.5 -49zM451 688h89v-688h-89v75q-61 -87 -168 -87q-98 0 -165 72t-67 180q0 107 66 179t166 72q108 0 168 -84v281zM698 688l-38 -166h-66l20 166h84z" />
    <glyph glyph-name="Dcroat" unicode="&#x110;" horiz-adv-x="703" 
d="M91 0v290h-75v77h75v273h196q160 0 260.5 -89t100.5 -231t-98 -231t-254 -89h-205zM289 555h-105v-188h146v-77h-146v-205h105q119 0 191 64t72 171t-72 171t-191 64z" />
    <glyph glyph-name="dcroat" unicode="&#x111;" horiz-adv-x="626" 
d="M296 71q67 0 111 49t44 120t-44 119.5t-111 48.5t-111.5 -48.5t-44.5 -119.5t44.5 -120t111.5 -49zM451 688h89v-57h54v-68h-54v-563h-89v75q-61 -87 -168 -87q-98 0 -165 72t-67 180q0 107 66 179t166 72q108 0 168 -84v156h-138v68h138v57z" />
    <glyph glyph-name="Emacron" unicode="&#x112;" horiz-adv-x="542" 
d="M91 0v641h407v-85h-317v-192h277v-85h-277v-194h317v-85h-407zM151 813h281v-68h-281v68z" />
    <glyph glyph-name="emacron" unicode="&#x113;" horiz-adv-x="565" 
d="M302 -12q-108 0 -179.5 73t-71.5 179q0 105 68 178t169 73q100 0 168 -70t68 -172q0 -21 -3 -32h-380q8 -66 52.5 -108t111.5 -42q81 0 134 53l47 -61q-30 -32 -79 -51.5t-105 -19.5zM289 415q-57 0 -96.5 -39t-49.5 -100h290q-10 66 -48.5 102.5t-95.5 36.5zM142 651
h281v-68h-281v68z" />
    <glyph glyph-name="Ebreve" unicode="&#x114;" horiz-adv-x="542" 
d="M91 0v641h407v-85h-317v-192h277v-85h-277v-194h317v-85h-407zM292 684q-62 0 -102.5 42.5t-40.5 112.5h66q0 -45 21.5 -69t55.5 -24t56 24t22 69h66q0 -70 -40.5 -112.5t-103.5 -42.5z" />
    <glyph glyph-name="ebreve" unicode="&#x115;" horiz-adv-x="565" 
d="M302 -12q-108 0 -179.5 73t-71.5 179q0 105 68 178t169 73q100 0 168 -70t68 -172q0 -21 -3 -32h-380q8 -66 52.5 -108t111.5 -42q81 0 134 53l47 -61q-30 -32 -79 -51.5t-105 -19.5zM289 415q-57 0 -96.5 -39t-49.5 -100h290q-10 66 -48.5 102.5t-95.5 36.5zM283 522
q-62 0 -102.5 42.5t-40.5 112.5h66q0 -45 21.5 -69t55.5 -24t56 24t22 69h66q0 -70 -40.5 -112.5t-103.5 -42.5z" />
    <glyph glyph-name="Edotaccent" unicode="&#x116;" horiz-adv-x="542" 
d="M91 0v641h407v-85h-317v-192h277v-85h-277v-194h317v-85h-407zM292 724q-23 0 -39 16t-16 39t16 39t39 16q22 0 38.5 -16t16.5 -39t-16.5 -39t-38.5 -16z" />
    <glyph glyph-name="edotaccent" unicode="&#x117;" horiz-adv-x="565" 
d="M302 -12q-108 0 -179.5 73t-71.5 179q0 105 68 178t169 73q100 0 168 -70t68 -172q0 -21 -3 -32h-380q8 -66 52.5 -108t111.5 -42q81 0 134 53l47 -61q-30 -32 -79 -51.5t-105 -19.5zM289 415q-57 0 -96.5 -39t-49.5 -100h290q-10 66 -48.5 102.5t-95.5 36.5zM283 562
q-23 0 -39 16t-16 39t16 39t39 16t39 -16t16 -39t-16 -39t-39 -16z" />
    <glyph glyph-name="Eogonek" unicode="&#x118;" horiz-adv-x="542" 
d="M91 0v641h407v-85h-317v-192h277v-85h-277v-194h317v-85h-45q-45 -24 -67 -50.5t-22 -47.5q0 -35 40 -35q34 0 63 25l29 -40q-41 -45 -104 -45q-41 0 -69 21.5t-28 60.5q0 61 76 111h-280z" />
    <glyph glyph-name="eogonek" unicode="&#x119;" horiz-adv-x="565" 
d="M432 -148q-41 -45 -104 -45q-41 0 -69 21.5t-28 60.5q0 54 59 99q-103 4 -171 77t-68 175q0 105 68 178t169 73q100 0 168 -70t68 -172q0 -21 -3 -32h-380q8 -66 52.5 -108t111.5 -42q81 0 134 53l47 -61q-35 -38 -92 -56q-47 -24 -70.5 -51.5t-23.5 -49.5q0 -35 40 -35
q34 0 63 25zM289 415q-57 0 -96.5 -39t-49.5 -100h290q-10 66 -48.5 102.5t-95.5 36.5z" />
    <glyph glyph-name="Ecaron" unicode="&#x11a;" horiz-adv-x="542" 
d="M91 0v641h407v-85h-317v-192h277v-85h-277v-194h317v-85h-407zM333 694h-82l-120 156h85l76 -101l76 101h85z" />
    <glyph glyph-name="ecaron" unicode="&#x11b;" horiz-adv-x="565" 
d="M302 -12q-108 0 -179.5 73t-71.5 179q0 105 68 178t169 73q100 0 168 -70t68 -172q0 -21 -3 -32h-380q8 -66 52.5 -108t111.5 -42q81 0 134 53l47 -61q-30 -32 -79 -51.5t-105 -19.5zM289 415q-57 0 -96.5 -39t-49.5 -100h290q-10 66 -48.5 102.5t-95.5 36.5zM324 532
h-82l-120 156h85l76 -101l76 101h85z" />
    <glyph glyph-name="Gcircumflex" unicode="&#x11c;" horiz-adv-x="689" 
d="M614 50q-89 -62 -230 -62q-139 0 -234 97t-95 235t95.5 235.5t231.5 97.5q141 0 229 -80l-60 -70q-73 61 -169 61t-163.5 -71.5t-67.5 -172.5t69 -172t170 -71q72 0 134 30v208h90v-265zM335 850h82l120 -156h-85l-76 101l-76 -101h-85z" />
    <glyph glyph-name="gcircumflex" unicode="&#x11d;" horiz-adv-x="621" 
d="M134 -77q67 -50 154 -50q76 0 117.5 40t41.5 116v57q-60 -85 -168 -85q-97 0 -162.5 70t-65.5 175q0 104 66 173.5t162 69.5q108 0 168 -81v71h88v-445q0 -125 -67.5 -183.5t-174.5 -58.5q-132 0 -204 61zM294 84q66 0 109.5 47.5t43.5 115.5t-43.5 114.5t-109.5 46.5
t-110 -47t-44 -114q0 -68 44 -115.5t110 -47.5zM250 688h82l120 -156h-85l-76 101l-76 -101h-85z" />
    <glyph glyph-name="Gbreve" unicode="&#x11e;" horiz-adv-x="689" 
d="M614 50q-89 -62 -230 -62q-139 0 -234 97t-95 235t95.5 235.5t231.5 97.5q141 0 229 -80l-60 -70q-73 61 -169 61t-163.5 -71.5t-67.5 -172.5t69 -172t170 -71q72 0 134 30v208h90v-265zM376 684q-62 0 -102.5 42.5t-40.5 112.5h66q0 -45 21.5 -69t55.5 -24t56 24t22 69
h66q0 -70 -40.5 -112.5t-103.5 -42.5z" />
    <glyph glyph-name="gbreve" unicode="&#x11f;" horiz-adv-x="621" 
d="M134 -77q67 -50 154 -50q76 0 117.5 40t41.5 116v57q-60 -85 -168 -85q-97 0 -162.5 70t-65.5 175q0 104 66 173.5t162 69.5q108 0 168 -81v71h88v-445q0 -125 -67.5 -183.5t-174.5 -58.5q-132 0 -204 61zM294 84q66 0 109.5 47.5t43.5 115.5t-43.5 114.5t-109.5 46.5
t-110 -47t-44 -114q0 -68 44 -115.5t110 -47.5zM291 522q-62 0 -102.5 42.5t-40.5 112.5h66q0 -45 21.5 -69t55.5 -24t56 24t22 69h66q0 -70 -40.5 -112.5t-103.5 -42.5z" />
    <glyph glyph-name="Gdotaccent" unicode="&#x120;" horiz-adv-x="689" 
d="M614 50q-89 -62 -230 -62q-139 0 -234 97t-95 235t95.5 235.5t231.5 97.5q141 0 229 -80l-60 -70q-73 61 -169 61t-163.5 -71.5t-67.5 -172.5t69 -172t170 -71q72 0 134 30v208h90v-265zM376 724q-23 0 -39 16t-16 39t16 39t39 16q22 0 38.5 -16t16.5 -39t-16.5 -39
t-38.5 -16z" />
    <glyph glyph-name="gdotaccent" unicode="&#x121;" horiz-adv-x="621" 
d="M134 -77q67 -50 154 -50q76 0 117.5 40t41.5 116v57q-60 -85 -168 -85q-97 0 -162.5 70t-65.5 175q0 104 66 173.5t162 69.5q108 0 168 -81v71h88v-445q0 -125 -67.5 -183.5t-174.5 -58.5q-132 0 -204 61zM294 84q66 0 109.5 47.5t43.5 115.5t-43.5 114.5t-109.5 46.5
t-110 -47t-44 -114q0 -68 44 -115.5t110 -47.5zM291 562q-23 0 -39 16t-16 39t16 39t39 16t39 -16t16 -39t-16 -39t-39 -16z" />
    <glyph glyph-name="uni0122" unicode="&#x122;" horiz-adv-x="689" 
d="M614 50q-89 -62 -230 -62q-139 0 -234 97t-95 235t95.5 235.5t231.5 97.5q141 0 229 -80l-60 -70q-73 61 -169 61t-163.5 -71.5t-67.5 -172.5t69 -172t170 -71q72 0 134 30v208h90v-265zM429 -51l-54 -142h-70l34 142h90z" />
    <glyph glyph-name="uni0123" unicode="&#x123;" horiz-adv-x="621" 
d="M134 -77q67 -50 154 -50q76 0 117.5 40t41.5 116v57q-60 -85 -168 -85q-97 0 -162.5 70t-65.5 175q0 104 66 173.5t162 69.5q108 0 168 -81v71h88v-445q0 -125 -67.5 -183.5t-174.5 -58.5q-132 0 -204 61zM294 84q66 0 109.5 47.5t43.5 115.5t-43.5 114.5t-109.5 46.5
t-110 -47t-44 -114q0 -68 44 -115.5t110 -47.5zM236 538l55 142h72l-35 -142h-92z" />
    <glyph glyph-name="Hcircumflex" unicode="&#x124;" horiz-adv-x="719" 
d="M538 0v282h-357v-282h-90v641h90v-274h357v274h91v-641h-91zM319 850h82l120 -156h-85l-76 101l-76 -101h-85z" />
    <glyph glyph-name="hcircumflex" unicode="&#x125;" 
d="M175 279v-279h-89v688h89v-268q47 71 144 71q85 0 135.5 -53.5t50.5 -144.5v-293h-89v279q0 59 -32.5 94t-88.5 35t-88 -34.5t-32 -94.5zM215 888h82l120 -156h-85l-76 101l-76 -101h-85z" />
    <glyph glyph-name="Hbar" unicode="&#x126;" horiz-adv-x="719" 
d="M181 367h357v113h-357v-113zM538 0v282h-357v-282h-90v480h-48v67h48v94h90v-94h357v94h91v-94h47v-67h-47v-480h-91z" />
    <glyph glyph-name="hbar" unicode="&#x127;" 
d="M175 279v-279h-89v559h-56v67h56v62h89v-62h137v-67h-137v-139q47 71 144 71q85 0 135.5 -53.5t50.5 -144.5v-293h-89v279q0 59 -32.5 94t-88.5 35t-88 -34.5t-32 -94.5z" />
    <glyph glyph-name="Itilde" unicode="&#x128;" horiz-adv-x="272" 
d="M91 0v641h90v-641h-90zM209 710q-30 0 -72 27t-65 27q-34 0 -62 -52l-44 36q34 83 97 83q30 0 71.5 -27.5t64.5 -27.5q35 0 62 53l44 -36q-33 -83 -96 -83z" />
    <glyph glyph-name="itilde" unicode="&#x129;" horiz-adv-x="260" 
d="M175 479v-479h-89v479h89zM203 548q-30 0 -72 27t-65 27q-34 0 -62 -52l-44 36q34 83 97 83q30 0 71.5 -27.5t64.5 -27.5q35 0 62 53l44 -36q-33 -83 -96 -83z" />
    <glyph glyph-name="Imacron" unicode="&#x12a;" horiz-adv-x="272" 
d="M91 0v641h90v-641h-90zM-5 813h281v-68h-281v68z" />
    <glyph glyph-name="imacron" unicode="&#x12b;" horiz-adv-x="260" 
d="M175 479v-479h-89v479h89zM-11 651h281v-68h-281v68z" />
    <glyph glyph-name="Ibreve" unicode="&#x12c;" horiz-adv-x="272" 
d="M91 0v641h90v-641h-90zM136 684q-62 0 -102.5 42.5t-40.5 112.5h66q0 -45 21.5 -69t55.5 -24t56 24t22 69h66q0 -70 -40.5 -112.5t-103.5 -42.5z" />
    <glyph glyph-name="ibreve" unicode="&#x12d;" horiz-adv-x="260" 
d="M175 479v-479h-89v479h89zM130 522q-62 0 -102.5 42.5t-40.5 112.5h66q0 -45 21.5 -69t55.5 -24t56 24t22 69h66q0 -70 -40.5 -112.5t-103.5 -42.5z" />
    <glyph glyph-name="Iogonek" unicode="&#x12e;" horiz-adv-x="272" 
d="M192 -148q-41 -45 -104 -45q-41 0 -68.5 21.5t-27.5 60.5q0 71 99 125v627h90v-641h-33q-44 -24 -65.5 -50.5t-21.5 -47.5q0 -35 40 -35q34 0 63 25z" />
    <glyph glyph-name="iogonek" unicode="&#x12f;" horiz-adv-x="260" 
d="M175 479v-479h-37q-45 -24 -66.5 -50.5t-21.5 -47.5q0 -35 40 -35q34 0 63 25l29 -40q-41 -45 -104 -45q-41 0 -69 21.5t-28 60.5q0 72 105 129v461h89zM130 562q-22 0 -38.5 16t-16.5 39t16.5 39t38.5 16t38.5 -16t16.5 -39t-16.5 -39t-38.5 -16z" />
    <glyph glyph-name="Idotaccent" unicode="&#x130;" horiz-adv-x="272" 
d="M91 0v641h90v-641h-90zM136 724q-23 0 -39 16t-16 39t16 39t39 16q22 0 38.5 -16t16.5 -39t-16.5 -39t-38.5 -16z" />
    <glyph glyph-name="dotlessi" unicode="&#x131;" horiz-adv-x="260" 
d="M175 479v-479h-89v479h89z" />
    <glyph glyph-name="IJ" unicode="&#x132;" horiz-adv-x="723" 
d="M91 0v641h90v-641h-90zM293 62l62 63q36 -48 93 -48q101 0 101 121v443h90v-441q0 -105 -52.5 -158.5t-136.5 -53.5q-50 0 -92 20.5t-65 53.5z" />
    <glyph glyph-name="ij" unicode="&#x133;" horiz-adv-x="521" 
d="M175 479v-479h-89v479h89zM130 562q-22 0 -38.5 16t-16.5 39t16.5 39t38.5 16t38.5 -16t16.5 -39t-16.5 -39t-38.5 -16zM390 672q22 0 38.5 -16t16.5 -39t-16.5 -39t-38.5 -16t-38.5 16t-16.5 39t16.5 39t38.5 16zM435 479v-519q0 -79 -38.5 -123.5t-109.5 -44.5
q-63 0 -104 36l42 66q26 -21 58 -21q30 0 46.5 21t16.5 61v524h89z" />
    <glyph glyph-name="Jcircumflex" unicode="&#x134;" horiz-adv-x="450" 
d="M21 62l62 63q36 -48 93 -48q101 0 101 121v443h90v-441q0 -105 -52.5 -158.5t-136.5 -53.5q-50 0 -92 20.5t-65 53.5zM275 850h82l120 -156h-85l-76 101l-76 -101h-85z" />
    <glyph glyph-name="jcircumflex" unicode="&#x135;" horiz-adv-x="260" 
d="M175 479v-519q0 -79 -38.5 -123.5t-109.5 -44.5q-63 0 -104 36l42 66q26 -21 58 -21q30 0 46.5 21t16.5 61v524h89zM89 688h82l120 -156h-85l-76 101l-76 -101h-85z" />
    <glyph glyph-name="uni0136" unicode="&#x136;" horiz-adv-x="602" 
d="M91 0v641h90v-282h74l208 282h103l-235 -319l249 -322h-112l-209 274h-78v-274h-90zM356 -51l-54 -142h-70l34 142h90z" />
    <glyph glyph-name="uni0137" unicode="&#x137;" horiz-adv-x="539" 
d="M86 0v688h89v-397h75l143 188h106l-170 -223l181 -256h-110l-148 211h-77v-211h-89zM328 -51l-54 -142h-70l34 142h90z" />
    <glyph glyph-name="Lacute" unicode="&#x139;" horiz-adv-x="534" 
d="M91 0v641h90v-556h332v-85h-422zM197 850h106l-123 -156h-81z" />
    <glyph glyph-name="lacute" unicode="&#x13a;" horiz-adv-x="260" 
d="M86 0v688h89v-688h-89zM193 888h106l-123 -156h-81z" />
    <glyph glyph-name="uni013B" unicode="&#x13b;" horiz-adv-x="534" 
d="M91 0v641h90v-556h332v-85h-422zM345 -51l-54 -142h-70l34 142h90z" />
    <glyph glyph-name="uni013C" unicode="&#x13c;" horiz-adv-x="260" 
d="M86 0v688h89v-688h-89zM177 -51l-54 -142h-70l34 142h90z" />
    <glyph glyph-name="Lcaron" unicode="&#x13d;" horiz-adv-x="534" 
d="M91 0v641h90v-556h332v-85h-422zM359 688l-38 -166h-66l20 166h84z" />
    <glyph glyph-name="lcaron" unicode="&#x13e;" horiz-adv-x="301" 
d="M86 0v688h89v-688h-89zM336 688l-38 -166h-66l20 166h84z" />
    <glyph glyph-name="Ldot" unicode="&#x13f;" horiz-adv-x="534" 
d="M91 0v641h90v-556h332v-85h-422zM402 277q-23 0 -39 15.5t-16 38.5t16 39.5t39 16.5q22 0 38.5 -16.5t16.5 -39.5q0 -22 -16 -38t-39 -16z" />
    <glyph glyph-name="ldot" unicode="&#x140;" horiz-adv-x="316" 
d="M86 0v688h89v-688h-89zM290 251q-23 0 -39 15.5t-16 38.5t16 39.5t39 16.5q22 0 38.5 -16.5t16.5 -39.5q0 -22 -16 -38t-39 -16z" />
    <glyph glyph-name="Lslash" unicode="&#x141;" horiz-adv-x="534" 
d="M91 0v277l-69 -22v77l69 22v287h90v-258l117 37v-77l-117 -37v-221h332v-85h-422z" />
    <glyph glyph-name="lslash" unicode="&#x142;" horiz-adv-x="260" 
d="M86 0v321l-64 -26v76l64 26v291h89v-255l64 26v-77l-64 -26v-356h-89z" />
    <glyph glyph-name="Nacute" unicode="&#x143;" horiz-adv-x="719" 
d="M533 0l-354 494v-494h-91v641h98l355 -497v497h90v-641h-98zM407 850h106l-123 -156h-81z" />
    <glyph glyph-name="nacute" unicode="&#x144;" 
d="M175 279v-279h-89v479h89v-59q47 71 144 71q85 0 135.5 -53.5t50.5 -144.5v-293h-89v279q0 59 -32.5 94t-88.5 35t-88 -34.5t-32 -94.5zM344 688h106l-123 -156h-81z" />
    <glyph glyph-name="uni0145" unicode="&#x145;" horiz-adv-x="719" 
d="M533 0l-354 494v-494h-91v641h98l355 -497v497h90v-641h-98zM407 -51l-54 -142h-70l34 142h90z" />
    <glyph glyph-name="uni0146" unicode="&#x146;" 
d="M175 279v-279h-89v479h89v-59q47 71 144 71q85 0 135.5 -53.5t50.5 -144.5v-293h-89v279q0 59 -32.5 94t-88.5 35t-88 -34.5t-32 -94.5zM344 -51l-54 -142h-70l34 142h90z" />
    <glyph glyph-name="Ncaron" unicode="&#x147;" horiz-adv-x="719" 
d="M533 0l-354 494v-494h-91v641h98l355 -497v497h90v-641h-98zM401 694h-82l-120 156h85l76 -101l76 101h85z" />
    <glyph glyph-name="ncaron" unicode="&#x148;" 
d="M175 279v-279h-89v479h89v-59q47 71 144 71q85 0 135.5 -53.5t50.5 -144.5v-293h-89v279q0 59 -32.5 94t-88.5 35t-88 -34.5t-32 -94.5zM338 532h-82l-120 156h85l76 -101l76 101h85z" />
    <glyph glyph-name="Omacron" unicode="&#x14c;" horiz-adv-x="767" 
d="M383 653q136 0 232.5 -98t96.5 -236q0 -137 -96.5 -234t-232.5 -97t-232 97.5t-96 234.5q0 138 96 235.5t232 97.5zM383 77q97 0 165 71t68 171q0 101 -68 173t-165 72q-96 0 -164 -71.5t-68 -172.5t68 -172t164 -71zM242 813h281v-68h-281v68z" />
    <glyph glyph-name="omacron" unicode="&#x14d;" horiz-adv-x="591" 
d="M295 -12q-102 0 -173 73.5t-71 178.5t71 178t173 73q103 0 174 -73t71 -178t-71 -178.5t-174 -73.5zM296 71q67 0 111 49t44 120t-44 119.5t-111 48.5t-111.5 -48.5t-44.5 -119.5t44.5 -120t111.5 -49zM154 651h281v-68h-281v68z" />
    <glyph glyph-name="Obreve" unicode="&#x14e;" horiz-adv-x="767" 
d="M383 653q136 0 232.5 -98t96.5 -236q0 -137 -96.5 -234t-232.5 -97t-232 97.5t-96 234.5q0 138 96 235.5t232 97.5zM383 77q97 0 165 71t68 171q0 101 -68 173t-165 72q-96 0 -164 -71.5t-68 -172.5t68 -172t164 -71zM383 684q-62 0 -102.5 42.5t-40.5 112.5h66
q0 -45 21.5 -69t55.5 -24t56 24t22 69h66q0 -70 -40.5 -112.5t-103.5 -42.5z" />
    <glyph glyph-name="obreve" unicode="&#x14f;" horiz-adv-x="591" 
d="M295 -12q-102 0 -173 73.5t-71 178.5t71 178t173 73q103 0 174 -73t71 -178t-71 -178.5t-174 -73.5zM296 71q67 0 111 49t44 120t-44 119.5t-111 48.5t-111.5 -48.5t-44.5 -119.5t44.5 -120t111.5 -49zM295 522q-62 0 -102.5 42.5t-40.5 112.5h66q0 -45 21.5 -69
t55.5 -24t56 24t22 69h66q0 -70 -40.5 -112.5t-103.5 -42.5z" />
    <glyph glyph-name="Ohungarumlaut" unicode="&#x150;" horiz-adv-x="767" 
d="M383 653q136 0 232.5 -98t96.5 -236q0 -137 -96.5 -234t-232.5 -97t-232 97.5t-96 234.5q0 138 96 235.5t232 97.5zM383 77q97 0 165 71t68 171q0 101 -68 173t-165 72q-96 0 -164 -71.5t-68 -172.5t68 -172t164 -71zM351 850h91l-119 -156h-70zM507 850h96l-124 -156
h-70z" />
    <glyph glyph-name="ohungarumlaut" unicode="&#x151;" horiz-adv-x="591" 
d="M295 -12q-102 0 -173 73.5t-71 178.5t71 178t173 73q103 0 174 -73t71 -178t-71 -178.5t-174 -73.5zM296 71q67 0 111 49t44 120t-44 119.5t-111 48.5t-111.5 -48.5t-44.5 -119.5t44.5 -120t111.5 -49zM263 688h91l-119 -156h-70zM419 688h96l-124 -156h-70z" />
    <glyph glyph-name="OE" unicode="&#x152;" horiz-adv-x="1067" 
d="M383 77q97 0 165 71t68 171q0 101 -68 173t-165 72q-96 0 -164 -71.5t-68 -172.5t68 -172t164 -71zM616 0v95q-92 -107 -233 -107q-136 0 -232 97.5t-96 234.5q0 138 96 235.5t232 97.5q140 0 233 -108v96h407v-85h-317v-192h277v-85h-277v-194h317v-85h-407z" />
    <glyph glyph-name="oe" unicode="&#x153;" horiz-adv-x="963" 
d="M295 -12q-102 0 -173 73.5t-71 178.5t71 178t173 73q62 0 114.5 -29t84.5 -79q32 50 82 79t110 29q100 0 167.5 -70t67.5 -172q0 -18 -2 -32h-380q8 -65 52 -107.5t109 -42.5q84 0 137 53l47 -61q-30 -32 -80.5 -51.5t-105.5 -19.5q-64 0 -117 30t-85 81
q-33 -51 -85.5 -81t-115.5 -30zM296 71q67 0 111 49t44 120t-44 119.5t-111 48.5t-111.5 -48.5t-44.5 -119.5t44.5 -120t111.5 -49zM687 415q-57 0 -96.5 -39t-49.5 -100h290q-10 66 -48.5 102.5t-95.5 36.5z" />
    <glyph glyph-name="Racute" unicode="&#x154;" horiz-adv-x="616" 
d="M91 0v641h224q106 0 170 -52.5t64 -140.5q0 -68 -39.5 -116t-109.5 -67l160 -265h-104l-150 254h-125v-254h-90zM323 560h-142v-225h142q59 0 95.5 31t36.5 82t-36.5 81.5t-95.5 30.5zM333 850h106l-123 -156h-81z" />
    <glyph glyph-name="racute" unicode="&#x155;" horiz-adv-x="389" 
d="M175 276v-276h-89v479h89v-60q43 72 120 72q47 0 73 -21l-37 -83q-28 19 -62 19q-43 0 -68.5 -35t-25.5 -95zM241 688h106l-123 -156h-81z" />
    <glyph glyph-name="uni0156" unicode="&#x156;" horiz-adv-x="616" 
d="M91 0v641h224q106 0 170 -52.5t64 -140.5q0 -68 -39.5 -116t-109.5 -67l160 -265h-104l-150 254h-125v-254h-90zM323 560h-142v-225h142q59 0 95.5 31t36.5 82t-36.5 81.5t-95.5 30.5zM355 -51l-54 -142h-70l34 142h90z" />
    <glyph glyph-name="uni0157" unicode="&#x157;" horiz-adv-x="389" 
d="M175 276v-276h-89v479h89v-60q43 72 120 72q47 0 73 -21l-37 -83q-28 19 -62 19q-43 0 -68.5 -35t-25.5 -95zM188 -51l-54 -142h-70l34 142h90z" />
    <glyph glyph-name="Rcaron" unicode="&#x158;" horiz-adv-x="616" 
d="M91 0v641h224q106 0 170 -52.5t64 -140.5q0 -68 -39.5 -116t-109.5 -67l160 -265h-104l-150 254h-125v-254h-90zM323 560h-142v-225h142q59 0 95.5 31t36.5 82t-36.5 81.5t-95.5 30.5zM331 694h-82l-120 156h85l76 -101l76 101h85z" />
    <glyph glyph-name="rcaron" unicode="&#x159;" horiz-adv-x="389" 
d="M175 276v-276h-89v479h89v-60q43 72 120 72q47 0 73 -21l-37 -83q-28 19 -62 19q-43 0 -68.5 -35t-25.5 -95zM235 532h-82l-120 156h85l76 -101l76 101h85z" />
    <glyph glyph-name="Sacute" unicode="&#x15a;" horiz-adv-x="563" 
d="M509 554l-64 -62q-23 32 -66 54t-93 22q-57 0 -91 -23.5t-34 -62.5q0 -33 26.5 -56t66.5 -35t86 -29t86 -36t66.5 -57.5t26.5 -91.5q0 -85 -64 -137t-171 -52q-165 0 -242 109l65 61q65 -85 178 -85q65 0 101.5 26.5t36.5 71.5q0 43 -37 70t-89.5 43t-105 35t-89.5 59
t-37 101q0 77 62 125.5t162 48.5q72 0 130.5 -28t89.5 -71zM329 850h106l-123 -156h-81z" />
    <glyph glyph-name="sacute" unicode="&#x15b;" horiz-adv-x="457" 
d="M142 358q0 -28 28 -45.5t68 -28.5t80 -25.5t68 -46.5t28 -81q0 -63 -49.5 -103t-137.5 -40q-129 0 -192 78l52 58q53 -64 146 -64q44 0 68.5 19t24.5 50q0 30 -28 49t-67.5 30.5t-79.5 26t-68 45.5t-28 78q0 55 46.5 94t126.5 39q126 0 178 -74l-53 -53q-44 55 -123 55
q-40 0 -64 -17t-24 -44zM275 688h106l-123 -156h-81z" />
    <glyph glyph-name="Scircumflex" unicode="&#x15c;" horiz-adv-x="563" 
d="M509 554l-64 -62q-23 32 -66 54t-93 22q-57 0 -91 -23.5t-34 -62.5q0 -33 26.5 -56t66.5 -35t86 -29t86 -36t66.5 -57.5t26.5 -91.5q0 -85 -64 -137t-171 -52q-165 0 -242 109l65 61q65 -85 178 -85q65 0 101.5 26.5t36.5 71.5q0 43 -37 70t-89.5 43t-105 35t-89.5 59
t-37 101q0 77 62 125.5t162 48.5q72 0 130.5 -28t89.5 -71zM241 850h82l120 -156h-85l-76 101l-76 -101h-85z" />
    <glyph glyph-name="scircumflex" unicode="&#x15d;" horiz-adv-x="457" 
d="M142 358q0 -28 28 -45.5t68 -28.5t80 -25.5t68 -46.5t28 -81q0 -63 -49.5 -103t-137.5 -40q-129 0 -192 78l52 58q53 -64 146 -64q44 0 68.5 19t24.5 50q0 30 -28 49t-67.5 30.5t-79.5 26t-68 45.5t-28 78q0 55 46.5 94t126.5 39q126 0 178 -74l-53 -53q-44 55 -123 55
q-40 0 -64 -17t-24 -44zM187 688h82l120 -156h-85l-76 101l-76 -101h-85z" />
    <glyph glyph-name="uni015E" unicode="&#x15e;" horiz-adv-x="563" 
d="M509 554l-64 -62q-23 32 -66 54t-93 22q-57 0 -91 -23.5t-34 -62.5q0 -33 26.5 -56t66.5 -35t86 -29t86 -36t66.5 -57.5t26.5 -91.5q0 -77 -54 -128t-145 -59l-67 -170l-74 30l76 139q-144 10 -213 108l65 61q65 -85 178 -85q65 0 101.5 26.5t36.5 71.5q0 43 -37 70
t-89.5 43t-105 35t-89.5 59t-37 101q0 77 62 125.5t162 48.5q72 0 130.5 -28t89.5 -71z" />
    <glyph glyph-name="uni015F" unicode="&#x15f;" horiz-adv-x="457" 
d="M142 358q0 -28 28 -45.5t68 -28.5t80 -25.5t68 -46.5t28 -81q0 -56 -40 -94.5t-112 -46.5l-67 -170l-74 30l76 139q-105 9 -162 77l52 58q53 -64 146 -64q44 0 68.5 19t24.5 50q0 30 -28 49t-67.5 30.5t-79.5 26t-68 45.5t-28 78q0 55 46.5 94t126.5 39q126 0 178 -74
l-53 -53q-44 55 -123 55q-40 0 -64 -17t-24 -44z" />
    <glyph glyph-name="Scaron" unicode="&#x160;" horiz-adv-x="563" 
d="M509 554l-64 -62q-23 32 -66 54t-93 22q-57 0 -91 -23.5t-34 -62.5q0 -33 26.5 -56t66.5 -35t86 -29t86 -36t66.5 -57.5t26.5 -91.5q0 -85 -64 -137t-171 -52q-165 0 -242 109l65 61q65 -85 178 -85q65 0 101.5 26.5t36.5 71.5q0 43 -37 70t-89.5 43t-105 35t-89.5 59
t-37 101q0 77 62 125.5t162 48.5q72 0 130.5 -28t89.5 -71zM323 694h-82l-120 156h85l76 -101l76 101h85z" />
    <glyph glyph-name="scaron" unicode="&#x161;" horiz-adv-x="457" 
d="M142 358q0 -28 28 -45.5t68 -28.5t80 -25.5t68 -46.5t28 -81q0 -63 -49.5 -103t-137.5 -40q-129 0 -192 78l52 58q53 -64 146 -64q44 0 68.5 19t24.5 50q0 30 -28 49t-67.5 30.5t-79.5 26t-68 45.5t-28 78q0 55 46.5 94t126.5 39q126 0 178 -74l-53 -53q-44 55 -123 55
q-40 0 -64 -17t-24 -44zM269 532h-82l-120 156h85l76 -101l76 101h85z" />
    <glyph glyph-name="uni0162" unicode="&#x162;" horiz-adv-x="528" 
d="M513 556h-204v-556h-17l-71 -180l-74 30l82 150h-10v556h-203v85h497v-85z" />
    <glyph glyph-name="uni0163" unicode="&#x163;" horiz-adv-x="391" 
d="M32 400v79h80v119h88v-119h136v-79h-135v-253q0 -76 66 -76q40 0 62 25l41 -67q-37 -37 -101 -41l-67 -168l-74 30l79 144q-96 27 -96 150v256h-79z" />
    <glyph glyph-name="Tcaron" unicode="&#x164;" horiz-adv-x="528" 
d="M513 556h-204v-556h-90v556h-203v85h497v-85zM305 694h-82l-120 156h85l76 -101l76 101h85z" />
    <glyph glyph-name="tcaron" unicode="&#x165;" horiz-adv-x="391" 
d="M32 400v79h80v119h88v-119h136v-79h-135v-253q0 -76 66 -76q40 0 62 25l41 -67q-41 -41 -115 -41q-68 0 -106 40t-38 116v256h-79zM342 688l-38 -166h-66l20 166h84z" />
    <glyph glyph-name="Tbar" unicode="&#x166;" horiz-adv-x="528" 
d="M513 556h-204v-214h106v-67h-106v-275h-90v275h-107v67h107v214h-203v85h497v-85z" />
    <glyph glyph-name="tbar" unicode="&#x167;" horiz-adv-x="391" 
d="M32 400v79h80v119h88v-119h136v-79h-135v-112h110v-67h-110v-74q0 -76 66 -76q40 0 62 25l41 -67q-41 -41 -115 -41q-68 0 -106 40t-38 116v77h-60v67h60v112h-79z" />
    <glyph glyph-name="Utilde" unicode="&#x168;" horiz-adv-x="668" 
d="M83 250v391h91v-391q0 -78 44 -125.5t116 -47.5q73 0 116.5 47.5t43.5 125.5v391h91v-391q0 -118 -69.5 -190t-182.5 -72t-181.5 71.5t-68.5 190.5zM407 710q-30 0 -72 27t-65 27q-34 0 -62 -52l-44 36q34 83 97 83q30 0 71.5 -27.5t64.5 -27.5q35 0 62 53l44 -36
q-33 -83 -96 -83z" />
    <glyph glyph-name="utilde" unicode="&#x169;" 
d="M167 479v-265q0 -63 34 -101.5t89 -38.5q57 0 91 38.5t34 101.5v265h89v-272q0 -98 -58.5 -157t-155.5 -59q-96 0 -154 59t-58 157v272h89zM364 548q-30 0 -72 27t-65 27q-34 0 -62 -52l-44 36q34 83 97 83q30 0 71.5 -27.5t64.5 -27.5q36 0 62 53l44 -36
q-33 -83 -96 -83z" />
    <glyph glyph-name="Umacron" unicode="&#x16a;" horiz-adv-x="668" 
d="M83 250v391h91v-391q0 -78 44 -125.5t116 -47.5q73 0 116.5 47.5t43.5 125.5v391h91v-391q0 -118 -69.5 -190t-182.5 -72t-181.5 71.5t-68.5 190.5zM193 813h281v-68h-281v68z" />
    <glyph glyph-name="umacron" unicode="&#x16b;" 
d="M167 479v-265q0 -63 34 -101.5t89 -38.5q57 0 91 38.5t34 101.5v265h89v-272q0 -98 -58.5 -157t-155.5 -59q-96 0 -154 59t-58 157v272h89zM150 651h281v-68h-281v68z" />
    <glyph glyph-name="Ubreve" unicode="&#x16c;" horiz-adv-x="668" 
d="M83 250v391h91v-391q0 -78 44 -125.5t116 -47.5q73 0 116.5 47.5t43.5 125.5v391h91v-391q0 -118 -69.5 -190t-182.5 -72t-181.5 71.5t-68.5 190.5zM334 684q-62 0 -102.5 42.5t-40.5 112.5h66q0 -45 21.5 -69t55.5 -24t56 24t22 69h66q0 -70 -40.5 -112.5t-103.5 -42.5z
" />
    <glyph glyph-name="ubreve" unicode="&#x16d;" 
d="M167 479v-265q0 -63 34 -101.5t89 -38.5q57 0 91 38.5t34 101.5v265h89v-272q0 -98 -58.5 -157t-155.5 -59q-96 0 -154 59t-58 157v272h89zM291 522q-62 0 -102.5 42.5t-40.5 112.5h66q0 -45 21.5 -69t55.5 -24t56 24t22 69h66q0 -70 -40.5 -112.5t-103.5 -42.5z" />
    <glyph glyph-name="Uring" unicode="&#x16e;" horiz-adv-x="668" 
d="M83 250v391h91v-391q0 -78 44 -125.5t116 -47.5q73 0 116.5 47.5t43.5 125.5v391h91v-391q0 -118 -69.5 -190t-182.5 -72t-181.5 71.5t-68.5 190.5zM334 684q-48 0 -81 32t-33 78t33 78t81 32t81 -32t33 -78t-33 -78t-81 -32zM335 734q25 0 42.5 17t17.5 43t-17.5 43.5
t-42.5 17.5t-43 -17.5t-18 -43.5t18 -43t43 -17z" />
    <glyph glyph-name="uring" unicode="&#x16f;" 
d="M167 479v-265q0 -63 34 -101.5t89 -38.5q57 0 91 38.5t34 101.5v265h89v-272q0 -98 -58.5 -157t-155.5 -59q-96 0 -154 59t-58 157v272h89zM291 522q-48 0 -81 32t-33 78t33 78t81 32t81 -32t33 -78t-33 -78t-81 -32zM292 572q25 0 42.5 17t17.5 43t-17.5 43.5
t-42.5 17.5t-43 -17.5t-18 -43.5t18 -43t43 -17z" />
    <glyph glyph-name="Uhungarumlaut" unicode="&#x170;" horiz-adv-x="668" 
d="M83 250v391h91v-391q0 -78 44 -125.5t116 -47.5q73 0 116.5 47.5t43.5 125.5v391h91v-391q0 -118 -69.5 -190t-182.5 -72t-181.5 71.5t-68.5 190.5zM302 850h91l-119 -156h-70zM458 850h96l-124 -156h-70z" />
    <glyph glyph-name="uhungarumlaut" unicode="&#x171;" 
d="M167 479v-265q0 -63 34 -101.5t89 -38.5q57 0 91 38.5t34 101.5v265h89v-272q0 -98 -58.5 -157t-155.5 -59q-96 0 -154 59t-58 157v272h89zM259 688h91l-119 -156h-70zM415 688h96l-124 -156h-70z" />
    <glyph glyph-name="Uogonek" unicode="&#x172;" horiz-adv-x="668" 
d="M83 250v391h91v-391q0 -78 44 -125.5t116 -47.5q73 0 116.5 47.5t43.5 125.5v391h91v-391q0 -98 -48.5 -165.5t-131.5 -87.5q-83 -46 -83 -95q0 -35 40 -35q34 0 63 25l29 -40q-43 -45 -104 -45q-41 0 -69 21.5t-28 60.5q0 54 60 100q-105 6 -167.5 77t-62.5 184z" />
    <glyph glyph-name="uogonek" unicode="&#x173;" 
d="M167 479v-265q0 -63 34 -101.5t89 -38.5q57 0 91 38.5t34 101.5v265h89v-272q0 -80 -41 -136t-111 -73q-43 -23 -64 -49t-21 -47q0 -35 39 -35q34 0 63 25l29 -40q-43 -45 -104 -45q-41 0 -68.5 21.5t-27.5 60.5q0 57 64 103q-84 9 -134 67t-50 148v272h89z" />
    <glyph glyph-name="Wcircumflex" unicode="&#x174;" horiz-adv-x="997" 
d="M871 641h95l-206 -641h-112l-151 528l-152 -528h-108l-206 641h100l161 -531l152 531h113l153 -532zM457 850h82l120 -156h-85l-76 101l-76 -101h-85z" />
    <glyph glyph-name="wcircumflex" unicode="&#x175;" horiz-adv-x="809" 
d="M685 479h95l-154 -479h-109l-117 366l-116 -366h-101l-154 479h95l111 -380l120 380h97l121 -381zM363 688h82l120 -156h-85l-76 101l-76 -101h-85z" />
    <glyph glyph-name="Ycircumflex" unicode="&#x176;" horiz-adv-x="599" 
d="M254 0v216l-238 425h101l184 -330l186 330h96l-238 -425v-216h-91zM258 850h82l120 -156h-85l-76 101l-76 -101h-85z" />
    <glyph glyph-name="ycircumflex" unicode="&#x177;" horiz-adv-x="519" 
d="M112 479l160 -374l136 374h90l-207 -557q-46 -130 -155 -130q-66 0 -115 44l42 69q31 -30 75 -30q27 0 45.5 17.5t33.5 60.5l15 41l-217 485h97zM219 688h82l120 -156h-85l-76 101l-76 -101h-85z" />
    <glyph glyph-name="Ydieresis" unicode="&#x178;" horiz-adv-x="599" 
d="M254 0v216l-238 425h101l184 -330l186 330h96l-238 -425v-216h-91zM215 725q-21 0 -35.5 14.5t-14.5 36.5q0 21 14.5 36t35.5 15t36.5 -15.5t15.5 -35.5q0 -22 -15 -36.5t-37 -14.5zM382 725q-21 0 -36 14.5t-15 36.5q0 20 15 35.5t36 15.5t36 -15.5t15 -35.5
q0 -22 -15 -36.5t-36 -14.5z" />
    <glyph glyph-name="Zacute" unicode="&#x179;" horiz-adv-x="569" 
d="M43 85l362 471h-357v85h473v-85l-362 -471h366v-85h-482v85zM331 850h106l-123 -156h-81z" />
    <glyph glyph-name="zacute" unicode="&#x17a;" horiz-adv-x="487" 
d="M46 79l274 321h-267v79h382v-79l-275 -321h281v-79h-395v79zM291 688h106l-123 -156h-81z" />
    <glyph glyph-name="Zdotaccent" unicode="&#x17b;" horiz-adv-x="569" 
d="M43 85l362 471h-357v85h473v-85l-362 -471h366v-85h-482v85zM284 724q-23 0 -39 16t-16 39t16 39t39 16q22 0 38.5 -16t16.5 -39t-16.5 -39t-38.5 -16z" />
    <glyph glyph-name="zdotaccent" unicode="&#x17c;" horiz-adv-x="487" 
d="M46 79l274 321h-267v79h382v-79l-275 -321h281v-79h-395v79zM244 562q-23 0 -39 16t-16 39t16 39t39 16q22 0 38.5 -16t16.5 -39t-16.5 -39t-38.5 -16z" />
    <glyph glyph-name="Zcaron" unicode="&#x17d;" horiz-adv-x="569" 
d="M43 85l362 471h-357v85h473v-85l-362 -471h366v-85h-482v85zM325 694h-82l-120 156h85l76 -101l76 101h85z" />
    <glyph glyph-name="zcaron" unicode="&#x17e;" horiz-adv-x="487" 
d="M46 79l274 321h-267v79h382v-79l-275 -321h281v-79h-395v79zM285 532h-82l-120 156h85l76 -101l76 101h85z" />
    <glyph glyph-name="florin" unicode="&#x192;" horiz-adv-x="467" 
d="M101 294v70h78v170q0 79 41 122.5t111 43.5q78 0 121 -46l-45 -65q-28 28 -68 28q-35 0 -53.5 -22t-18.5 -62v-169h130v-70h-130v-316q0 -80 -38.5 -124.5t-109.5 -44.5q-62 0 -103 36l42 66q25 -20 58 -20q29 0 46 20.5t17 60.5v322h-78z" />
    <glyph glyph-name="uni0218" unicode="&#x218;" horiz-adv-x="563" 
d="M509 554l-64 -62q-23 32 -66 54t-93 22q-57 0 -91 -23.5t-34 -62.5q0 -33 26.5 -56t66.5 -35t86 -29t86 -36t66.5 -57.5t26.5 -91.5q0 -85 -64 -137t-171 -52q-165 0 -242 109l65 61q65 -85 178 -85q65 0 101.5 26.5t36.5 71.5q0 43 -37 70t-89.5 43t-105 35t-89.5 59
t-37 101q0 77 62 125.5t162 48.5q72 0 130.5 -28t89.5 -71zM329 -51l-54 -142h-70l34 142h90z" />
    <glyph glyph-name="uni0219" unicode="&#x219;" horiz-adv-x="457" 
d="M142 358q0 -28 28 -45.5t68 -28.5t80 -25.5t68 -46.5t28 -81q0 -63 -49.5 -103t-137.5 -40q-129 0 -192 78l52 58q53 -64 146 -64q44 0 68.5 19t24.5 50q0 30 -28 49t-67.5 30.5t-79.5 26t-68 45.5t-28 78q0 55 46.5 94t126.5 39q126 0 178 -74l-53 -53q-44 55 -123 55
q-40 0 -64 -17t-24 -44zM275 -51l-54 -142h-70l34 142h90z" />
    <glyph glyph-name="uni021A" unicode="&#x21a;" horiz-adv-x="528" 
d="M513 556h-204v-556h-90v556h-203v85h497v-85zM311 -51l-54 -142h-70l34 142h90z" />
    <glyph glyph-name="uni021B" unicode="&#x21b;" horiz-adv-x="391" 
d="M32 400v79h80v119h88v-119h136v-79h-135v-253q0 -76 66 -76q40 0 62 25l41 -67q-41 -41 -115 -41q-68 0 -106 40t-38 116v256h-79zM243 -51l-54 -142h-70l34 142h90z" />
    <glyph glyph-name="uni0237" unicode="&#x237;" horiz-adv-x="260" 
d="M175 479v-519q0 -79 -38.5 -123.5t-109.5 -44.5q-63 0 -104 36l42 66q26 -21 58 -21q30 0 46.5 21t16.5 61v524h89z" />
    <glyph glyph-name="circumflex" unicode="&#x2c6;" horiz-adv-x="400" 
d="M159 688h82l120 -156h-85l-76 101l-76 -101h-85z" />
    <glyph glyph-name="caron" unicode="&#x2c7;" horiz-adv-x="400" 
d="M241 532h-82l-120 156h85l76 -101l76 101h85z" />
    <glyph glyph-name="breve" unicode="&#x2d8;" horiz-adv-x="400" 
d="M200 522q-62 0 -102.5 42.5t-40.5 112.5h66q0 -45 21.5 -69t55.5 -24t56 24t22 69h66q0 -70 -40.5 -112.5t-103.5 -42.5z" />
    <glyph glyph-name="dotaccent" unicode="&#x2d9;" horiz-adv-x="400" 
d="M200 562q-23 0 -39 16t-16 39t16 39t39 16q22 0 38.5 -16t16.5 -39t-16.5 -39t-38.5 -16z" />
    <glyph glyph-name="ring" unicode="&#x2da;" horiz-adv-x="400" 
d="M200 522q-48 0 -81 32t-33 78t33 78t81 32t81 -32t33 -78t-33 -78t-81 -32zM201 572q25 0 42.5 17t17.5 43t-17.5 43.5t-42.5 17.5t-43 -17.5t-18 -43.5t18 -43t43 -17z" />
    <glyph glyph-name="ogonek" unicode="&#x2db;" horiz-adv-x="400" 
d="M228 36l48 -20q-62 -25 -93 -56.5t-31 -57.5q0 -35 40 -35q34 0 63 25l29 -40q-41 -45 -104 -45q-41 0 -69 21.5t-28 60.5q0 85 145 147z" />
    <glyph glyph-name="tilde" unicode="&#x2dc;" horiz-adv-x="400" 
d="M273 548q-30 0 -72 27t-65 27q-34 0 -62 -52l-44 36q34 83 97 83q30 0 71.5 -27.5t64.5 -27.5q35 0 62 53l44 -36q-33 -83 -96 -83z" />
    <glyph glyph-name="hungarumlaut" unicode="&#x2dd;" horiz-adv-x="400" 
d="M168 688h91l-119 -156h-70zM324 688h96l-124 -156h-70z" />
    <glyph glyph-name="uni0326" unicode="&#x326;" horiz-adv-x="400" 
d="M247 -51l-54 -142h-70l34 142h90z" />
    <glyph glyph-name="pi" unicode="&#x3c0;" horiz-adv-x="614" 
d="M36 400v79h536v-79h-83v-257q0 -66 52 -66h31v-77h-45q-128 0 -128 139v261h-198v-399h-90v399h-75z" />
    <glyph glyph-name="Wgrave" unicode="&#x1e80;" horiz-adv-x="997" 
d="M871 641h95l-206 -641h-112l-151 528l-152 -528h-108l-206 641h100l161 -531l152 531h113l153 -532zM451 850l98 -156h-81l-123 156h106z" />
    <glyph glyph-name="wgrave" unicode="&#x1e81;" horiz-adv-x="809" 
d="M685 479h95l-154 -479h-109l-117 366l-116 -366h-101l-154 479h95l111 -380l120 380h97l121 -381zM357 688l98 -156h-81l-123 156h106z" />
    <glyph glyph-name="Wacute" unicode="&#x1e82;" horiz-adv-x="997" 
d="M871 641h95l-206 -641h-112l-151 528l-152 -528h-108l-206 641h100l161 -531l152 531h113l153 -532zM545 850h106l-123 -156h-81z" />
    <glyph glyph-name="wacute" unicode="&#x1e83;" horiz-adv-x="809" 
d="M685 479h95l-154 -479h-109l-117 366l-116 -366h-101l-154 479h95l111 -380l120 380h97l121 -381zM451 688h106l-123 -156h-81z" />
    <glyph glyph-name="Wdieresis" unicode="&#x1e84;" horiz-adv-x="997" 
d="M871 641h95l-206 -641h-112l-151 528l-152 -528h-108l-206 641h100l161 -531l152 531h113l153 -532zM414 725q-21 0 -35.5 14.5t-14.5 36.5q0 21 14.5 36t35.5 15q22 0 37 -15.5t15 -35.5q0 -22 -15 -36.5t-37 -14.5zM581 725q-21 0 -36 14.5t-15 36.5q0 20 15 35.5
t36 15.5t36 -15.5t15 -35.5q0 -22 -15 -36.5t-36 -14.5z" />
    <glyph glyph-name="wdieresis" unicode="&#x1e85;" horiz-adv-x="809" 
d="M685 479h95l-154 -479h-109l-117 366l-116 -366h-101l-154 479h95l111 -380l120 380h97l121 -381zM320 563q-21 0 -35.5 14.5t-14.5 36.5q0 21 14.5 36t35.5 15q22 0 37 -15.5t15 -35.5q0 -22 -15 -36.5t-37 -14.5zM487 563q-21 0 -36 14.5t-15 36.5q0 20 15 35.5
t36 15.5t36 -15.5t15 -35.5q0 -22 -15 -36.5t-36 -14.5z" />
    <glyph glyph-name="Ygrave" unicode="&#x1ef2;" horiz-adv-x="599" 
d="M254 0v216l-238 425h101l184 -330l186 330h96l-238 -425v-216h-91zM252 850l98 -156h-81l-123 156h106z" />
    <glyph glyph-name="ygrave" unicode="&#x1ef3;" horiz-adv-x="519" 
d="M112 479l160 -374l136 374h90l-207 -557q-46 -130 -155 -130q-66 0 -115 44l42 69q31 -30 75 -30q27 0 45.5 17.5t33.5 60.5l15 41l-217 485h97zM213 688l98 -156h-81l-123 156h106z" />
    <glyph glyph-name="endash" unicode="&#x2013;" horiz-adv-x="500" 
d="M40 281h420v-77h-420v77z" />
    <glyph glyph-name="emdash" unicode="&#x2014;" horiz-adv-x="1000" 
d="M40 281h920v-77h-920v77z" />
    <glyph glyph-name="quoteleft" unicode="&#x2018;" horiz-adv-x="198" 
d="M36 482l52 206h65l-28 -206h-89z" />
    <glyph glyph-name="quoteright" unicode="&#x2019;" horiz-adv-x="198" 
d="M162 688l-52 -206h-65l28 206h89z" />
    <glyph glyph-name="quotesinglbase" unicode="&#x201a;" horiz-adv-x="198" 
d="M162 84l-52 -206h-65l28 206h89z" />
    <glyph glyph-name="quotedblleft" unicode="&#x201c;" horiz-adv-x="353" 
d="M191 482l52 206h65l-28 -206h-89zM36 482l52 206h65l-28 -206h-89z" />
    <glyph glyph-name="quotedblright" unicode="&#x201d;" horiz-adv-x="353" 
d="M162 688l-52 -206h-65l28 206h89zM317 688l-52 -206h-65l28 206h89z" />
    <glyph glyph-name="quotedblbase" unicode="&#x201e;" horiz-adv-x="353" 
d="M162 84l-52 -206h-65l28 206h89zM317 84l-52 -206h-65l28 206h89z" />
    <glyph glyph-name="dagger" unicode="&#x2020;" horiz-adv-x="471" 
d="M191 -196v599h-155v79h155v206h89v-206h156v-79h-156v-599h-89z" />
    <glyph glyph-name="daggerdbl" unicode="&#x2021;" horiz-adv-x="471" 
d="M191 -196v206h-155v79h155v314h-155v79h155v206h89v-206h156v-79h-156v-314h156v-79h-156v-206h-89z" />
    <glyph glyph-name="bullet" unicode="&#x2022;" horiz-adv-x="397" 
d="M199 122q-53 0 -90.5 37.5t-37.5 90.5t37.5 90.5t90.5 37.5t90 -37.5t37 -90.5t-37 -90.5t-90 -37.5z" />
    <glyph glyph-name="ellipsis" unicode="&#x2026;" horiz-adv-x="650" 
d="M96 -9q-25 0 -43 18t-18 43q0 26 18 44.5t43 18.5q26 0 44.5 -18.5t18.5 -44.5q0 -25 -18.5 -43t-44.5 -18zM324 -9q-25 0 -43 18t-18 43q0 26 18 44.5t43 18.5q26 0 44.5 -18.5t18.5 -44.5q0 -25 -18.5 -43t-44.5 -18zM552 -9q-25 0 -43 18t-18 43q0 26 18 44.5t43 18.5
q26 0 44.5 -18.5t18.5 -44.5q0 -25 -18.5 -43t-44.5 -18z" />
    <glyph glyph-name="perthousand" unicode="&#x2030;" horiz-adv-x="970" 
d="M150 315q-56 0 -92.5 47t-36.5 119t35.5 119.5t90.5 47.5q56 0 93 -47.5t36 -119.5q1 -72 -35 -119t-91 -47zM149 371q30 0 47.5 30.5t17.5 79.5t-17.5 79t-47.5 30q-29 0 -47.5 -30t-18.5 -79t18 -79.5t48 -30.5zM80 0l440 641h72l-437 -641h-75zM524 -6q-56 0 -92.5 47
t-36.5 119t35.5 119.5t90.5 47.5q56 0 93 -47.5t36 -119.5q1 -72 -35 -119t-91 -47zM523 50q30 0 47.5 30.5t17.5 79.5t-17.5 79t-47.5 30q-29 0 -47.5 -30t-18.5 -79t18 -79.5t48 -30.5zM822 -6q-56 0 -92.5 47t-36.5 119t35.5 119.5t90.5 47.5q56 0 93 -47.5t36 -119.5
q1 -72 -35 -119t-91 -47zM821 50q30 0 47.5 30.5t17.5 79.5t-17.5 79t-47.5 30q-29 0 -47.5 -30t-18.5 -79t18 -79.5t48 -30.5z" />
    <glyph glyph-name="guilsinglleft" unicode="&#x2039;" horiz-adv-x="314" 
d="M51 245l157 197l55 -45l-123 -152l123 -151l-55 -46z" />
    <glyph glyph-name="guilsinglright" unicode="&#x203a;" horiz-adv-x="314" 
d="M263 245l-157 -197l-55 46l123 151l-123 152l55 45z" />
    <glyph glyph-name="fraction" unicode="&#x2044;" horiz-adv-x="77" 
d="M-218 0l440 641h72l-437 -641h-75z" />
    <glyph glyph-name="zero.superior" unicode="&#x2070;" horiz-adv-x="298" 
d="M150 315q-56 0 -92.5 47t-36.5 119t35.5 119.5t90.5 47.5q56 0 93 -47.5t36 -119.5q1 -72 -35 -119t-91 -47zM149 371q30 0 47.5 30.5t17.5 79.5t-17.5 79t-47.5 30q-29 0 -47.5 -30t-18.5 -79t18 -79.5t48 -30.5z" />
    <glyph glyph-name="four.superior" unicode="&#x2074;" horiz-adv-x="298" 
d="M172 321v58h-155v57l155 205h60v-205h45v-57h-45v-58h-60zM172 436v137l-103 -137h103z" />
    <glyph glyph-name="Euro" unicode="&#x20ac;" horiz-adv-x="659" 
d="M629 573l-54 -64q-72 59 -172 59q-70 0 -126.5 -39t-84.5 -104h283l-18 -62h-284q-3 -21 -3 -43q0 -25 4 -44h263l-18 -63h-227q28 -64 85.5 -102t130.5 -38q105 0 167 59l55 -62q-85 -82 -225 -82q-108 0 -192.5 62.5t-117.5 162.5h-79l18 63h47q-3 21 -3 44q0 22 3 43
h-65l18 62h61q33 101 117.5 164.5t189.5 63.5q139 0 227 -80z" />
    <glyph glyph-name="uni2113" unicode="&#x2113;" horiz-adv-x="443" 
d="M380 61q-52 -73 -138 -73q-67 0 -104.5 40.5t-37.5 117.5v15l-64 -33v94l64 30v267q0 87 38 134t106 47q73 0 114 -46t41 -130q0 -170 -209 -312v-59q0 -82 64 -82q50 0 82 52zM190 531v-225q123 101 123 223q0 43 -17 65.5t-45 22.5q-61 0 -61 -86z" />
    <glyph glyph-name="trademark" unicode="&#x2122;" horiz-adv-x="859" 
d="M140 291v290h-103v60h278v-60h-108v-290h-67zM568 371l-137 179l2 -259h-66v350h68l135 -179l135 179h63v-350h-66l2 259z" />
    <glyph glyph-name="uni2126" unicode="&#x2126;" horiz-adv-x="730" 
d="M365 564q-99 0 -165 -65t-66 -165q0 -88 50.5 -153t127.5 -104v-77h-266v81l141 -2q-149 104 -149 267q0 126 94.5 216.5t232.5 90.5q137 0 231.5 -90.5t94.5 -216.5q0 -162 -148 -267l140 2v-81h-265v77q77 39 127.5 104t50.5 153q0 100 -66 165t-165 65z" />
    <glyph glyph-name="partialdiff" unicode="&#x2202;" horiz-adv-x="591" 
d="M296 71q67 0 111 50t44 122q0 73 -44 122.5t-111 49.5t-111.5 -49.5t-44.5 -122.5q0 -72 44.5 -122t111.5 -50zM295 491q65 0 113 -45q-37 70 -98.5 125t-121.5 84l59 56q127 -62 210 -181t83 -259q0 -130 -68 -206.5t-177 -76.5q-102 0 -173 74.5t-71 180.5
q0 105 70.5 176.5t173.5 71.5z" />
    <glyph glyph-name="uni2206" unicode="&#x2206;" horiz-adv-x="676" 
d="M21 0l264 641h106l264 -641h-634zM524 81l-188 464l-190 -464h378z" />
    <glyph glyph-name="product" unicode="&#x220f;" horiz-adv-x="612" 
d="M411 556h-209v-752h-91v752h-75v85h541v-85h-76v-752h-90v752z" />
    <glyph glyph-name="summation" unicode="&#x2211;" horiz-adv-x="494" 
d="M353 289v-74l-225 -321h351v-90h-463v101l244 352l-244 340v91h463v-89h-349z" />
    <glyph glyph-name="minus" unicode="&#x2212;" horiz-adv-x="521" 
d="M58 282v80h406v-80h-406z" />
    <glyph glyph-name="uni2215" unicode="&#x2215;" horiz-adv-x="77" 
d="M-218 0l440 641h72l-437 -641h-75z" />
    <glyph glyph-name="radical" unicode="&#x221a;" horiz-adv-x="571" 
d="M356 0h-117l-133 398h-90v81h162l122 -397l165 606h90z" />
    <glyph glyph-name="infinity" unicode="&#x221e;" horiz-adv-x="521" 
d="M364 188q-71 0 -107 67q-36 -67 -101 -67q-51 0 -83 37.5t-32 94.5q0 59 31.5 96.5t82.5 37.5q70 0 106 -65q37 65 104 65q51 0 83 -37t32 -95t-32 -96t-84 -38zM361 253q24 0 42 19.5t18 47.5q0 30 -18 49.5t-44 19.5q-52 0 -78 -44l11 -29l11.5 -23t15 -22.5t18 -11.5
t24.5 -6zM163 253q44 0 73 48q-12 31 -19 45t-22.5 28.5t-36.5 14.5q-25 0 -41.5 -19.5t-16.5 -49.5t17.5 -48.5t45.5 -18.5z" />
    <glyph glyph-name="integral" unicode="&#x222b;" horiz-adv-x="467" 
d="M179 -28v562q0 79 41 122.5t111 43.5q78 0 121 -46l-45 -65q-28 28 -68 28q-35 0 -53.5 -22t-18.5 -62v-555q0 -80 -38.5 -124.5t-109.5 -44.5q-62 0 -103 36l42 66q25 -20 58 -20q29 0 46 20.5t17 60.5z" />
    <glyph glyph-name="approxequal" unicode="&#x2248;" horiz-adv-x="521" 
d="M58 180v84q57 37 108 37q43 0 99 -26t91 -26q63 0 108 31v-83q-48 -30 -106 -30q-42 0 -99 26t-92 26q-66 0 -109 -39zM58 357v83q53 37 108 37q43 0 99 -26t91 -26q62 0 108 32v-84q-51 -30 -106 -30q-42 0 -99 26t-92 26q-65 0 -109 -38z" />
    <glyph glyph-name="notequal" unicode="&#x2260;" horiz-adv-x="521" 
d="M106 101l52 93h-100v81h146l53 94h-199v81h245l52 93h69l-52 -93h92v-81h-138l-53 -94h191v-81h-237l-52 -93h-69z" />
    <glyph glyph-name="lessequal" unicode="&#x2264;" horiz-adv-x="521" 
d="M464 224v-88l-406 185v75l406 183v-87l-307 -134zM58 0v81h406v-81h-406z" />
    <glyph glyph-name="greaterequal" unicode="&#x2265;" horiz-adv-x="521" 
d="M58 224l306 134l-306 134v87l406 -183v-75l-406 -185v88zM464 0h-406v81h406v-81z" />
    <glyph glyph-name="lozenge" unicode="&#x25ca;" horiz-adv-x="512" 
d="M376 320l-121 243l-123 -243l123 -242zM471 320l-166 -320h-98l-166 320l166 321h98z" />
    <glyph glyph-name="ITF" horiz-adv-x="1573" 
d="M91 0v641h198v-641h-198zM330 454v187h198v-187h-198zM568 0v641h198v-641h-198zM808 454v187h197v-187h-197zM1046 0v641h197v-641h-197zM1285 454v187h197v-187h-197zM1285 227v186h197v-186h-197z" />
    <glyph glyph-name="i.loclTRK" horiz-adv-x="260" 
d="M175 479v-479h-89v479h89zM130 562q-22 0 -38.5 16t-16.5 39t16.5 39t38.5 16t38.5 -16t16.5 -39t-16.5 -39t-38.5 -16z" />
    <glyph glyph-name="caron.alt" horiz-adv-x="400" 
d="M252 688l-38 -166h-66l20 166h84z" />
    <glyph glyph-name="commaaccent.alt" horiz-adv-x="400" 
d="M140 538l55 142h72l-35 -142h-92z" />
    </font>
</defs>
</svg>
