<?xml version="1.0" standalone="no"?>
<!DOCTYPE svg PUBLIC "-//W3C//DTD SVG 1.1//EN" "http://www.w3.org/Graphics/SVG/1.1/DTD/svg11.dtd" >
<svg>
<metadata>
Created by FontForge 20090622 at Thu Jun 15 00:37:36 2017
 By deploy user
Copyright 2015 Indian Type Foundry. All rights reserved.
</metadata>
<defs>
<font id="Volte-Bold" horiz-adv-x="573" >
  <font-face 
    font-family="Volte-Bold"
    font-weight="400"
    font-stretch="normal"
    units-per-em="1000"
    panose-1="0 0 8 0 0 0 0 0 0 0"
    ascent="769"
    descent="-231"
    x-height="479"
    cap-height="641"
    bbox="-240 -211 1451 930"
    underline-thickness="50"
    underline-position="-100"
    unicode-range="U+0020-U+FB02"
  />
<missing-glyph horiz-adv-x="580" 
d="M520 0h-460v641h460v-641zM210 501v-361h160v361h-160z" />
    <glyph glyph-name="fi" unicode="fi" horiz-adv-x="627" 
d="M581 636l-79 -126q-49 42 -130 42q-102 0 -109 -73h309v-479h-161v338h-149v-338h-161v338h-81v141h81q3 102 71.5 163t189.5 61q135 0 219 -67z" />
    <glyph glyph-name="fl" unicode="fl" horiz-adv-x="627" 
d="M20 338v141h81q1 102 62 163t156 61q59 0 104 -15h149v-688h-161v530q-28 22 -74 22q-30 0 -52.5 -19.5t-22.5 -53.5h92v-141h-92v-338h-161v338h-81z" />
    <glyph glyph-name=".notdef" horiz-adv-x="580" 
d="M520 0h-460v641h460v-641zM210 501v-361h160v361h-160z" />
    <glyph glyph-name=".null" horiz-adv-x="0" 
 />
    <glyph glyph-name="nonmarkingreturn" horiz-adv-x="333" 
 />
    <glyph glyph-name="space" unicode=" " horiz-adv-x="200" 
 />
    <glyph glyph-name="exclam" unicode="!" horiz-adv-x="299" 
d="M213 257h-127l-22 384h171zM249 84q0 -41 -29.5 -70t-70.5 -29t-70 29t-29 70t29 70.5t70 29.5t70.5 -29.5t29.5 -70.5z" />
    <glyph glyph-name="quotedbl" unicode="&#x22;" horiz-adv-x="406" 
d="M186 688l-16 -234h-118l-12 234h146zM366 688l-16 -234h-118l-12 234h146z" />
    <glyph glyph-name="numbersign" unicode="#" horiz-adv-x="627" 
d="M295 0l32 156h-94l-32 -156h-133l32 156h-93l24 115h92l22 107h-92l23 115h92l30 148h133l-30 -148h94l30 148h133l-30 -148h92l-23 -115h-92l-22 -107h92l-23 -115h-92l-32 -156h-133zM350 271l22 107h-94l-22 -107h94z" />
    <glyph glyph-name="dollar" unicode="$" horiz-adv-x="561" 
d="M536 529l-112 -112q-52 74 -140 74q-61 0 -61 -39q0 -21 32 -35t78.5 -26.5t92.5 -31.5t78 -58.5t32 -97.5q0 -72 -47.5 -125.5t-127.5 -73.5v-99h-134v93q-142 15 -207 117l117 110q54 -75 146 -75q76 0 76 46q0 19 -23 32.5t-58 22t-75.5 23.5t-75.5 33.5t-58 55
t-23 85.5q0 72 49.5 124t131.5 68v96h134v-97q115 -22 175 -110z" />
    <glyph glyph-name="percent" unicode="%" horiz-adv-x="650" 
d="M150 313q-63 0 -104 47t-41 120q0 74 39 122t100 48q64 0 105 -48t40 -121q1 -73 -38.5 -120.5t-100.5 -47.5zM147 407q40 0 40 73q0 75 -40 75q-19 0 -29.5 -19.5t-10.5 -54.5q0 -74 40 -74zM54 0l422 641h120l-420 -641h-122zM506 -8q-63 0 -104 47t-41 120
q0 74 39 122t100 48q64 0 105 -48t40 -121q1 -73 -38.5 -120.5t-100.5 -47.5zM503 86q40 0 40 73q0 75 -40 75q-19 0 -29.5 -19.5t-10.5 -54.5q0 -74 40 -74z" />
    <glyph glyph-name="ampersand" unicode="&#x26;" horiz-adv-x="667" 
d="M304 656q117 0 179 -90l-110 -107q-27 46 -70 46q-23 0 -36 -12.5t-13 -30.5q0 -31 41 -63l154 -125l64 82l119 -90l-67 -85l92 -75l-95 -121l-96 79q-87 -79 -198 -79q-94 0 -158.5 60t-64.5 150q0 99 78 168q-30 46 -30 103q0 82 59.5 136t151.5 54zM279 136
q38 0 71 23l-124 103q-20 -25 -20 -54q0 -31 21.5 -51.5t51.5 -20.5z" />
    <glyph glyph-name="quotesingle" unicode="'" horiz-adv-x="226" 
d="M186 688l-16 -234h-118l-12 234h146z" />
    <glyph glyph-name="parenleft" unicode="(" horiz-adv-x="353" 
d="M40 272q0 244 201 437l102 -90q-142 -142 -142 -347t142 -347l-102 -90q-201 193 -201 437z" />
    <glyph glyph-name="parenright" unicode=")" horiz-adv-x="353" 
d="M313 272q0 -244 -201 -437l-102 90q142 142 142 347t-142 347l102 90q201 -193 201 -437z" />
    <glyph glyph-name="asterisk" unicode="*" horiz-adv-x="439" 
d="M272 348l-52 88l-53 -88l-95 69l67 76l-99 22l37 112l93 -40l-10 101h118l-10 -101l94 40l37 -112l-99 -22l67 -76z" />
    <glyph glyph-name="plus" unicode="+" horiz-adv-x="521" 
d="M336 561v-168h155v-145h-155v-168h-151v168h-155v145h155v168h151z" />
    <glyph glyph-name="comma" unicode="," horiz-adv-x="269" 
d="M221 175l-90 -287h-135l60 287h165z" />
    <glyph glyph-name="hyphen" unicode="-" horiz-adv-x="335" 
d="M40 317h255v-135h-255v135z" />
    <glyph glyph-name="period" unicode="." horiz-adv-x="269" 
d="M134 -15q-41 0 -70 29t-29 70t29 70.5t70 29.5t70.5 -29.5t29.5 -70.5t-29.5 -70t-70.5 -29z" />
    <glyph glyph-name="slash" unicode="/" horiz-adv-x="445" 
d="M10 0l260 641h165l-260 -641h-165z" />
    <glyph glyph-name="zero" unicode="0" horiz-adv-x="594" 
d="M301 -15q-116 0 -192 95t-76 240t73.5 240.5t186.5 95.5q118 0 194 -95t74 -240q1 -145 -72.5 -240.5t-187.5 -95.5zM298 136q47 0 74.5 50t27.5 134t-28.5 134.5t-77.5 50.5q-45 0 -72.5 -50.5t-27.5 -133.5q0 -84 28.5 -134.5t75.5 -50.5z" />
    <glyph glyph-name="one" unicode="1" horiz-adv-x="460" 
d="M372 0h-161v452l-86 -83l-95 106l176 166h166v-641z" />
    <glyph glyph-name="two" unicode="2" horiz-adv-x="515" 
d="M29 0v121l230 220q56 53 56 101q0 29 -20 46t-52 17q-68 0 -108 -87l-125 82q30 67 90 111.5t152 44.5q103 0 163.5 -60t60.5 -150q0 -96 -105 -192l-123 -113h229v-141h-448z" />
    <glyph glyph-name="three" unicode="3" horiz-adv-x="513" 
d="M232 -15q-78 0 -137 31t-90 83l117 104q42 -67 117 -67q86 0 86 71q0 78 -99 78h-85v89l131 126h-221v141h416v-121l-136 -126q72 -20 113.5 -68.5t41.5 -119.5q0 -98 -66.5 -159.5t-187.5 -61.5z" />
    <glyph glyph-name="four" unicode="4" horiz-adv-x="565" 
d="M318 0v107h-295v141l305 393h146v-393h84v-141h-84v-107h-156zM318 248v190l-146 -190h146z" />
    <glyph glyph-name="five" unicode="5" horiz-adv-x="529" 
d="M244 136q41 0 66 21.5t25 56.5t-25 56t-66 21q-56 0 -107 -30l-72 53l50 327h342v-141h-210l-13 -77q17 4 46 4q98 0 157 -59.5t59 -156.5q0 -101 -68.5 -163.5t-180.5 -62.5q-78 0 -137 31t-90 83l117 104q42 -67 107 -67z" />
    <glyph glyph-name="six" unicode="6" horiz-adv-x="553" 
d="M281 -15q-108 0 -178 68t-70 167q0 54 22.5 107.5t91.5 155.5l107 158h183l-137 -207q100 -6 163 -68.5t63 -145.5q0 -100 -68 -167.5t-177 -67.5zM280 304q-35 0 -60.5 -25t-25.5 -59t25.5 -59t60.5 -25t60 24.5t25 59.5t-25 59.5t-60 24.5z" />
    <glyph glyph-name="seven" unicode="7" horiz-adv-x="463" 
d="M223 0h-173l226 500h-254v141h424v-126z" />
    <glyph glyph-name="eight" unicode="8" horiz-adv-x="530" 
d="M342 199q0 32 -22.5 55t-54.5 23t-54.5 -23t-22.5 -55q0 -33 22.5 -56t54.5 -23t54.5 23t22.5 56zM324 463q0 25 -17 42t-42 17t-42 -17t-17 -42q0 -24 17 -41t42 -17t42 17t17 41zM263 656q94 0 155.5 -49t61.5 -124q0 -87 -72 -138q95 -58 95 -162q0 -85 -68 -141.5
t-172 -56.5q-102 0 -169 56t-67 142q0 104 96 161q-73 54 -73 139q0 75 60.5 124t152.5 49z" />
    <glyph glyph-name="nine" unicode="9" horiz-adv-x="553" 
d="M272 641q108 0 178 -68t70 -167q0 -54 -22.5 -107.5t-91.5 -155.5l-107 -158h-183l137 207q-100 6 -163 68.5t-63 145.5q0 100 68 167.5t177 67.5zM273 322q35 0 60.5 25t25.5 59t-25.5 59t-60.5 25t-60 -24.5t-25 -59.5t25 -59.5t60 -24.5z" />
    <glyph glyph-name="colon" unicode=":" horiz-adv-x="269" 
d="M134 -15q-41 0 -70 29t-29 70t29 70.5t70 29.5t70.5 -29.5t29.5 -70.5t-29.5 -70t-70.5 -29zM134 295q-41 0 -70 29t-29 70t29 70.5t70 29.5t70.5 -29.5t29.5 -70.5t-29.5 -70t-70.5 -29z" />
    <glyph glyph-name="semicolon" unicode=";" horiz-adv-x="269" 
d="M134 295q-41 0 -70 29t-29 70t29 70.5t70 29.5t70.5 -29.5t29.5 -70.5t-29.5 -70t-70.5 -29zM221 175l-90 -287h-135l60 287h165z" />
    <glyph glyph-name="less" unicode="&#x3c;" horiz-adv-x="521" 
d="M491 223v-156l-461 188v142l461 187v-156l-291 -102z" />
    <glyph glyph-name="equal" unicode="=" horiz-adv-x="521" 
d="M30 358v145h461v-145h-461zM30 138v145h461v-145h-461z" />
    <glyph glyph-name="greater" unicode="&#x3e;" horiz-adv-x="521" 
d="M30 223l291 103l-291 102v156l461 -187v-142l-461 -188v156z" />
    <glyph glyph-name="question" unicode="?" horiz-adv-x="477" 
d="M113 446l-103 96q31 50 84 82t121 32q96 0 151.5 -56.5t55.5 -135.5q0 -60 -31.5 -105.5t-110.5 -96.5l-61 -39l-74 115l68 46q48 32 48 70q0 22 -15 36.5t-38 14.5q-48 0 -95 -59zM219 -15q-41 0 -70 29t-29 70t29 70.5t70 29.5t70.5 -29.5t29.5 -70.5t-29.5 -70
t-70.5 -29z" />
    <glyph glyph-name="at" unicode="@" horiz-adv-x="846" 
d="M410 198q34 0 55 25t21 58q0 31 -17.5 50.5t-47.5 19.5q-31 0 -53 -25t-22 -60q0 -29 19 -48.5t45 -19.5zM428 -123q-165 0 -283 117.5t-118 283.5t118 283.5t283 117.5q164 0 277.5 -109.5t113.5 -259.5q0 -91 -49 -157.5t-140 -66.5q-100 0 -133 72q-40 -73 -118 -73
q-66 0 -109.5 47.5t-43.5 125.5q0 86 52.5 146t126.5 60q60 0 90 -41l1 30h118l-12 -209q-1 -24 10 -36.5t29 -12.5q29 0 45 32.5t16 81.5q0 105 -79 181t-195 76q-118 0 -201 -84.5t-83 -203.5q0 -118 83 -203t201 -85q83 0 135 33l46 -100q-72 -46 -181 -46z" />
    <glyph glyph-name="A" unicode="A" horiz-adv-x="714" 
d="M522 0l-44 121h-251l-44 -121h-173l250 641h194l250 -641h-182zM425 267l-72 199l-73 -199h145z" />
    <glyph glyph-name="B" unicode="B" horiz-adv-x="582" 
d="M60 0v641h262q98 0 162 -51t64 -133q0 -89 -94 -131q49 -14 78.5 -51t29.5 -92q0 -78 -58.5 -130.5t-168.5 -52.5h-275zM307 496h-82v-107h82q32 0 50.5 14.5t18.5 39.5q0 24 -19 38.5t-50 14.5zM320 255h-95v-110h95q31 0 50 15t19 41q0 25 -18.5 39.5t-50.5 14.5z" />
    <glyph glyph-name="C" unicode="C" horiz-adv-x="623" 
d="M608 561l-110 -126q-54 56 -134 56q-66 0 -111.5 -49.5t-45.5 -120.5t47 -121t118 -50q36 0 70.5 15t55.5 41l110 -122q-82 -99 -247 -99q-141 0 -236 98t-95 238q0 139 97.5 237t234.5 98q161 0 246 -95z" />
    <glyph glyph-name="D" unicode="D" horiz-adv-x="686" 
d="M60 0v641h233q157 0 260 -91.5t103 -230.5q0 -138 -103 -228.5t-260 -90.5h-233zM290 486h-60v-331h61q85 0 136.5 45.5t51.5 120.5q0 74 -52 119.5t-137 45.5z" />
    <glyph glyph-name="E" unicode="E" horiz-adv-x="516" 
d="M60 0v641h426v-155h-261v-84h221v-155h-221v-92h261v-155h-426z" />
    <glyph glyph-name="F" unicode="F" horiz-adv-x="507" 
d="M60 0v641h417v-155h-252v-102h212v-155h-212v-229h-165z" />
    <glyph glyph-name="G" unicode="G" horiz-adv-x="665" 
d="M615 63q-94 -78 -254 -78q-141 0 -236 98t-95 238q0 139 97.5 237t234.5 98q161 0 246 -95l-110 -126q-54 56 -134 56q-66 0 -111.5 -49.5t-45.5 -120.5t47 -121t118 -50q42 0 78 18v151h165v-256z" />
    <glyph glyph-name="H" unicode="H" horiz-adv-x="697" 
d="M472 0v253h-247v-253h-165v641h165v-233h247v233h165v-641h-165z" />
    <glyph glyph-name="I" unicode="I" horiz-adv-x="285" 
d="M60 0v641h165v-641h-165z" />
    <glyph glyph-name="J" unicode="J" horiz-adv-x="484" 
d="M10 82l111 114q35 -46 75 -46q68 0 68 85v406h165v-395q0 -129 -62.5 -195t-165.5 -66q-64 0 -115 27.5t-76 69.5z" />
    <glyph glyph-name="K" unicode="K" horiz-adv-x="634" 
d="M60 0v641h165v-243h47l150 243h184l-195 -311l213 -330h-199l-149 243h-51v-243h-165z" />
    <glyph glyph-name="L" unicode="L" horiz-adv-x="526" 
d="M60 0v641h165v-486h291v-155h-456z" />
    <glyph glyph-name="M" unicode="M" horiz-adv-x="824" 
d="M412 116l-187 270v-386h-165v641h190l173 -262l173 262h168v-641h-165v387z" />
    <glyph glyph-name="N" unicode="N" horiz-adv-x="697" 
d="M460 0l-235 365v-365h-165v641h177l235 -371v371h165v-641h-177z" />
    <glyph glyph-name="O" unicode="O" horiz-adv-x="732" 
d="M366 656q139 0 237.5 -98.5t98.5 -237.5t-98.5 -237t-237.5 -98t-237.5 98.5t-98.5 237.5t98.5 237t237.5 98zM366 150q66 0 112.5 49.5t46.5 120.5t-46.5 121t-112.5 50t-112.5 -49.5t-46.5 -120.5t46.5 -121t112.5 -50z" />
    <glyph glyph-name="P" unicode="P" horiz-adv-x="584" 
d="M60 0v641h233q122 0 196.5 -61t74.5 -161q0 -102 -74.5 -163.5t-197.5 -61.5h-67v-194h-165zM306 496h-81v-157h81q37 0 60 22t23 58q0 35 -23 56t-60 21z" />
    <glyph glyph-name="Q" unicode="Q" horiz-adv-x="732" 
d="M366 656q139 0 237.5 -98.5t98.5 -237.5q0 -82 -36.5 -152.5t-100.5 -117.5l123 -72l-77 -129l-221 137q-8 -1 -24 -1q-139 0 -237.5 98.5t-98.5 237.5t98.5 237t237.5 98zM366 150q66 0 112.5 49.5t46.5 120.5t-46.5 121t-112.5 50t-112.5 -49.5t-46.5 -120.5t46.5 -121
t112.5 -50z" />
    <glyph glyph-name="R" unicode="R" horiz-adv-x="610" 
d="M60 0v641h233q122 0 196.5 -58t74.5 -154q0 -62 -31 -109.5t-88 -74.5l135 -245h-191l-110 214h-54v-214h-165zM306 496h-81v-137h81q37 0 60 19t23 51q0 30 -23 48.5t-60 18.5z" />
    <glyph glyph-name="S" unicode="S" horiz-adv-x="561" 
d="M536 539l-112 -112q-52 74 -140 74q-61 0 -61 -39q0 -22 32 -37.5t78.5 -29.5t92.5 -34t78 -63t32 -105q0 -90 -72 -149t-184 -59q-184 0 -260 120l117 110q54 -75 146 -75q76 0 76 46q0 17 -17.5 30t-45 22.5t-60.5 19.5t-66.5 25.5t-61 36.5t-45 56.5t-17.5 81.5
q0 86 69 142t176 56q81 0 144.5 -31.5t100.5 -85.5z" />
    <glyph glyph-name="T" unicode="T" horiz-adv-x="536" 
d="M526 486h-176v-486h-165v486h-175v155h516v-155z" />
    <glyph glyph-name="U" unicode="U" horiz-adv-x="659" 
d="M55 274v367h165v-363q0 -58 30.5 -93t80.5 -35q49 0 78.5 34.5t29.5 92.5v364h165v-367q0 -130 -75.5 -209.5t-200.5 -79.5q-123 0 -198 79.5t-75 209.5z" />
    <glyph glyph-name="V" unicode="V" horiz-adv-x="684" 
d="M197 641l150 -462l149 462h173l-230 -641h-194l-230 641h182z" />
    <glyph glyph-name="W" unicode="W" horiz-adv-x="1040" 
d="M847 641h173l-200 -641h-208l-96 436l-96 -436h-200l-200 641h182l118 -451l101 451h207l101 -451z" />
    <glyph glyph-name="X" unicode="X" horiz-adv-x="669" 
d="M242 641l105 -163l109 163h186l-205 -304l217 -337h-207l-121 186l-125 -186h-186l219 326l-205 315h213z" />
    <glyph glyph-name="Y" unicode="Y" horiz-adv-x="651" 
d="M243 0v210l-233 431h183l136 -258l138 258h174l-233 -431v-210h-165z" />
    <glyph glyph-name="Z" unicode="Z" horiz-adv-x="582" 
d="M35 155l287 331h-277v155h492v-155l-287 -331h297v-155h-512v155z" />
    <glyph glyph-name="bracketleft" unicode="[" horiz-adv-x="341" 
d="M70 -130v818h251v-141h-90v-536h90v-141h-251z" />
    <glyph glyph-name="backslash" unicode="\" horiz-adv-x="445" 
d="M435 0h-165l-260 641h165z" />
    <glyph glyph-name="bracketright" unicode="]" horiz-adv-x="341" 
d="M271 -130h-251v141h90v536h-90v141h251v-818z" />
    <glyph glyph-name="asciicircum" unicode="^" horiz-adv-x="521" 
d="M196 641h134l161 -320h-141l-87 187l-91 -187h-141z" />
    <glyph glyph-name="underscore" unicode="_" horiz-adv-x="455" 
d="M0 -20h455v-105h-455v105z" />
    <glyph glyph-name="grave" unicode="`" horiz-adv-x="400" 
d="M177 688l98 -156h-146l-140 156h188z" />
    <glyph glyph-name="a" unicode="a" horiz-adv-x="592" 
d="M376 0v45q-47 -60 -122 -60q-94 0 -160.5 70.5t-66.5 183.5q0 110 64.5 182.5t162.5 72.5q78 0 122 -55v40h161v-479h-161zM282 136q40 0 67 29.5t27 73.5t-27 74t-67 30t-67 -30t-27 -74t27 -73.5t67 -29.5z" />
    <glyph glyph-name="b" unicode="b" horiz-adv-x="592" 
d="M338 494q94 0 160.5 -70.5t66.5 -183.5q0 -110 -64.5 -182.5t-162.5 -72.5q-78 0 -122 55v-40h-161v688h161v-254q47 60 122 60zM310 343q-40 0 -67 -29.5t-27 -73.5t27 -74t67 -30t67 30t27 74t-27 73.5t-67 29.5z" />
    <glyph glyph-name="c" unicode="c" horiz-adv-x="490" 
d="M389 303q-41 40 -99 40q-46 0 -74 -29.5t-28 -74.5q0 -44 28.5 -73.5t73.5 -29.5q59 0 105 44l80 -118q-29 -34 -80 -55.5t-109 -21.5q-108 0 -183.5 74.5t-75.5 179.5q0 106 75 180.5t180 74.5q124 0 198 -77z" />
    <glyph glyph-name="d" unicode="d" horiz-adv-x="592" 
d="M282 136q40 0 67 29.5t27 73.5t-27 74t-67 30t-67 -30t-27 -74t27 -73.5t67 -29.5zM376 688h161v-688h-161v45q-47 -60 -122 -60q-94 0 -160.5 70.5t-66.5 183.5q0 110 64.5 182.5t162.5 72.5q78 0 122 -55v249z" />
    <glyph glyph-name="e" unicode="e" horiz-adv-x="546" 
d="M291 -15q-113 0 -188.5 74t-75.5 180t71.5 180.5t175.5 74.5q105 0 176.5 -70t71.5 -175q0 -35 -3 -50h-325q10 -34 37 -53.5t66 -19.5q56 0 99 45l82 -109q-27 -33 -77 -55t-110 -22zM277 359q-59 0 -80 -62h160q-19 62 -80 62z" />
    <glyph glyph-name="f" unicode="f" horiz-adv-x="426" 
d="M461 649l-76 -122q-25 25 -63 25q-28 0 -44 -18.5t-16 -54.5h122v-141h-122v-338h-161v338h-81v141h81q2 104 56 164t147 60q103 0 157 -54z" />
    <glyph glyph-name="g" unicode="g" horiz-adv-x="582" 
d="M140 -20q54 -44 123 -44q46 0 74.5 23.5t28.5 66.5v45q-47 -57 -122 -57q-90 0 -153.5 66.5t-63.5 173.5q0 103 63.5 169.5t153.5 66.5q78 0 122 -50v39h161v-446q0 -72 -24.5 -123t-65 -75.5t-80.5 -35t-84 -10.5q-143 0 -213 67zM277 165q38 0 63.5 25.5t25.5 63.5
t-25.5 63.5t-63.5 25.5t-63.5 -25.5t-25.5 -63.5t25.5 -63.5t63.5 -25.5z" />
    <glyph glyph-name="h" unicode="h" 
d="M216 264v-264h-161v688h161v-268q38 74 124 74q82 0 130 -55.5t48 -152.5v-286h-161v264q0 36 -19 57.5t-51 21.5t-51.5 -21.5t-19.5 -57.5z" />
    <glyph glyph-name="i" unicode="i" horiz-adv-x="271" 
d="M216 479v-479h-161v479h161zM135 522q-37 0 -63.5 26t-26.5 64t26.5 64.5t63.5 26.5t64 -26.5t27 -64.5q0 -37 -26.5 -63.5t-64.5 -26.5z" />
    <glyph glyph-name="j" unicode="j" horiz-adv-x="271" 
d="M135 703q37 0 64 -26.5t27 -64.5q0 -37 -26.5 -63.5t-64.5 -26.5q-37 0 -63.5 26t-26.5 64t26.5 64.5t63.5 26.5zM216 479v-463q0 -103 -53.5 -165t-150.5 -62q-89 0 -139 50l75 119q26 -22 56 -22q22 0 36.5 18.5t14.5 53.5v471h161z" />
    <glyph glyph-name="k" unicode="k" horiz-adv-x="589" 
d="M55 0v688h161v-366h38l101 157h197l-153 -221l170 -258h-201l-112 177h-40v-177h-161z" />
    <glyph glyph-name="l" unicode="l" horiz-adv-x="271" 
d="M55 0v688h161v-688h-161z" />
    <glyph glyph-name="m" unicode="m" horiz-adv-x="875" 
d="M216 264v-264h-161v479h161v-67q39 82 128 82q105 0 149 -91q50 91 143 91q85 0 134.5 -54.5t49.5 -153.5v-286h-161v264q0 36 -19 57.5t-51 21.5t-51.5 -21.5t-19.5 -57.5v-264h-161v264q0 36 -19 57.5t-51 21.5t-51.5 -21.5t-19.5 -57.5z" />
    <glyph glyph-name="n" unicode="n" 
d="M216 264v-264h-161v479h161v-59q38 74 124 74q82 0 130 -55.5t48 -152.5v-286h-161v264q0 36 -19 57.5t-51 21.5t-51.5 -21.5t-19.5 -57.5z" />
    <glyph glyph-name="o" unicode="o" horiz-adv-x="564" 
d="M282 -15q-105 0 -180 74.5t-75 179.5q0 106 75 180.5t180 74.5t180 -74.5t75 -180.5q0 -105 -75 -179.5t-180 -74.5zM282 136q40 0 67 29.5t27 73.5t-27 74t-67 30t-67 -30t-27 -74t27 -73.5t67 -29.5z" />
    <glyph glyph-name="p" unicode="p" horiz-adv-x="592" 
d="M55 479h161v-45q47 60 122 60q94 0 160.5 -70.5t66.5 -183.5q0 -110 -64.5 -182.5t-162.5 -72.5q-78 0 -122 55v-236h-161v675zM310 343q-40 0 -67 -29.5t-27 -73.5t27 -74t67 -30t67 30t27 74t-27 73.5t-67 29.5z" />
    <glyph glyph-name="q" unicode="q" horiz-adv-x="592" 
d="M282 136q40 0 67 29.5t27 73.5t-27 74t-67 30t-67 -30t-27 -74t27 -73.5t67 -29.5zM376 479h161v-675h-161v241q-47 -60 -122 -60q-94 0 -160.5 70.5t-66.5 183.5q0 110 64.5 182.5t162.5 72.5q78 0 122 -55v40z" />
    <glyph glyph-name="r" unicode="r" horiz-adv-x="425" 
d="M216 259v-259h-161v479h161v-74q39 89 114 89q50 0 80 -27l-66 -152q-26 23 -65 23q-29 0 -46 -21.5t-17 -57.5z" />
    <glyph glyph-name="s" unicode="s" horiz-adv-x="463" 
d="M194 341q0 -16 25 -26.5t60 -19t70.5 -22.5t60.5 -47.5t25 -84.5q0 -65 -55.5 -110.5t-156.5 -45.5q-137 0 -212 82l87 102q57 -57 134 -57q44 0 44 27q0 14 -18 24t-44.5 16t-58 18t-58 27.5t-44.5 46t-18 71.5q0 61 52 106.5t144 45.5q144 0 205 -84l-88 -94
q-44 51 -112 51q-42 0 -42 -26z" />
    <glyph glyph-name="t" unicode="t" horiz-adv-x="435" 
d="M10 338v141h91v130h161v-130h122v-141h-120v-147q0 -55 41 -55q32 0 50 23l70 -119q-55 -55 -148 -55q-82 0 -129.5 52t-47.5 150v151h-90z" />
    <glyph glyph-name="u" unicode="u" 
d="M211 479v-252q0 -41 21 -66t55 -25t54.5 25t20.5 66v252h161v-264q0 -104 -65 -167t-171 -63q-107 0 -172 63t-65 167v264h161z" />
    <glyph glyph-name="v" unicode="v" horiz-adv-x="557" 
d="M384 479h163l-163 -479h-209l-165 479h177l96 -337z" />
    <glyph glyph-name="w" unicode="w" horiz-adv-x="821" 
d="M634 479h172l-141 -479h-201l-65 278l-62 -278h-181l-141 479h172l63 -304l71 304h173l74 -307z" />
    <glyph glyph-name="x" unicode="x" horiz-adv-x="570" 
d="M360 0l-84 117l-87 -117h-179l178 239l-173 240h199l80 -110l81 110h180l-173 -233l178 -246h-200z" />
    <glyph glyph-name="y" unicode="y" horiz-adv-x="558" 
d="M181 479l113 -277l92 277h162l-183 -520q-59 -170 -205 -170q-88 0 -150 58l71 126q34 -33 78 -33q43 0 65 52l-221 487h178z" />
    <glyph glyph-name="z" unicode="z" horiz-adv-x="483" 
d="M35 141l194 197h-184v141h394v-141l-195 -197h204v-141h-413v141z" />
    <glyph glyph-name="braceleft" unicode="{" horiz-adv-x="341" 
d="M10 209v140q37 0 53.5 16t16.5 51v125q0 66 41.5 106.5t124.5 40.5h75v-141h-36q-44 0 -44 -44v-112q0 -99 -90 -112q90 -13 90 -112v-112q0 -44 44 -44h36v-141h-75q-83 0 -124.5 40.5t-41.5 106.5v125q0 35 -16.5 51t-53.5 16z" />
    <glyph glyph-name="bar" unicode="|" horiz-adv-x="295" 
d="M225 -196h-155v884h155v-884z" />
    <glyph glyph-name="braceright" unicode="}" horiz-adv-x="341" 
d="M331 209q-37 0 -53.5 -16t-16.5 -51v-125q0 -66 -41.5 -106.5t-124.5 -40.5h-75v141h36q44 0 44 44v112q0 99 90 112q-90 13 -90 112v112q0 44 -44 44h-36v141h75q83 0 124.5 -40.5t41.5 -106.5v-125q0 -35 16.5 -51t53.5 -16v-140z" />
    <glyph glyph-name="asciitilde" unicode="~" horiz-adv-x="521" 
d="M30 240v145q55 37 119 37q51 0 117 -26t107 -26q79 0 118 30v-145q-49 -30 -116 -30q-49 0 -116 26t-109 26q-83 0 -120 -37z" />
    <glyph glyph-name="uni00A0" unicode="&#xa0;" horiz-adv-x="200" 
 />
    <glyph glyph-name="exclamdown" unicode="&#xa1;" horiz-adv-x="299" 
d="M235 -162h-171l22 384h127zM249 395q0 -41 -29 -70.5t-70 -29.5t-70.5 29.5t-29.5 70.5t29.5 70t70.5 29t70 -29t29 -70z" />
    <glyph glyph-name="cent" unicode="&#xa2;" horiz-adv-x="490" 
d="M389 384q-41 40 -99 40q-46 0 -74 -29.5t-28 -74.5q0 -44 28.5 -73.5t73.5 -29.5q59 0 105 44l80 -118q-46 -54 -131 -71v-87h-134v92q-81 24 -132 91t-51 152q0 86 51.5 153.5t131.5 91.5v90h134v-86q81 -14 136 -71z" />
    <glyph glyph-name="sterling" unicode="&#xa3;" horiz-adv-x="590" 
d="M70 145h21q29 0 42 20t13 62v45h-66v104h66v62q0 96 54.5 157t159.5 61q120 0 190 -85l-96 -104q-38 38 -85 38q-62 0 -62 -76v-53h147v-104h-147v-49q0 -69 -51 -78h283v-145h-469v145z" />
    <glyph glyph-name="currency" unicode="&#xa4;" horiz-adv-x="595" 
d="M399 304q0 43 -30.5 73.5t-71.5 30.5q-43 0 -73 -30.5t-30 -73.5q0 -41 30.5 -71t72.5 -30q41 0 71.5 30t30.5 71zM20 480l102 102l64 -63q52 27 111 27q58 0 112 -27l64 63l102 -102l-63 -64q27 -52 27 -112q0 -59 -27 -111l63 -64l-102 -102l-64 63q-54 -27 -112 -27
q-59 0 -111 27l-64 -63l-102 102l63 63q-28 53 -28 112q0 60 28 113z" />
    <glyph glyph-name="yen" unicode="&#xa5;" horiz-adv-x="651" 
d="M567 139h-159v-139h-165v139h-159v104h142l-31 58h-111v104h54l-128 236h183l136 -279l138 279h174l-128 -236h54v-104h-111l-31 -58h142v-104z" />
    <glyph glyph-name="brokenbar" unicode="&#xa6;" horiz-adv-x="295" 
d="M225 688v-365h-155v365h155zM225 169v-365h-155v365h155z" />
    <glyph glyph-name="section" unicode="&#xa7;" horiz-adv-x="745" 
d="M293 246q0 -9 4 -16.5t13 -13.5t18 -11t25 -10.5t27.5 -9t32.5 -9t33 -9.5q23 14 23 40q0 8 -4 15.5t-13 13.5t-18 11t-25 10l-27 9l-32 9q-21 6 -33 10q-24 -16 -24 -39zM626 539l-112 -112q-52 74 -146 74q-55 0 -55 -34q0 -18 24.5 -32t61.5 -22.5t80.5 -24
t80.5 -34.5t61.5 -55.5t24.5 -85.5q0 -73 -57 -120q37 -39 37 -96q0 -90 -72 -149t-184 -59q-184 0 -260 120l117 110q54 -75 151 -75q71 0 71 41q0 22 -34.5 37.5t-83.5 28.5t-97.5 32t-83 59t-34.5 98q0 69 64 113q-44 42 -44 105q0 86 69 142t176 56q81 0 144.5 -31.5
t100.5 -85.5z" />
    <glyph glyph-name="dieresis" unicode="&#xa8;" horiz-adv-x="400" 
d="M99 523q-34 0 -57.5 23.5t-23.5 57.5t23.5 58t57.5 24t58 -24t24 -58t-24 -57.5t-58 -23.5zM299 523q-34 0 -57.5 23.5t-23.5 57.5t23.5 58t57.5 24t58 -24t24 -58t-24 -57.5t-58 -23.5z" />
    <glyph glyph-name="copyright" unicode="&#xa9;" horiz-adv-x="795" 
d="M398 690q152 0 261 -109t109 -262q0 -152 -109 -261t-261 -109q-153 0 -262 109t-109 261q0 153 109 262t262 109zM399 597q-113 0 -193.5 -81.5t-80.5 -194.5t80.5 -193.5t193.5 -80.5q114 0 195 80.5t81 193.5t-81 194.5t-195 81.5zM553 463l-72 -90q-34 31 -79 31
q-37 0 -58 -23t-21 -59t21.5 -59.5t57.5 -23.5q46 0 83 35l64 -94q-22 -27 -63.5 -44t-87.5 -17q-86 0 -144.5 59t-58.5 144q0 84 58.5 143.5t141.5 59.5q99 0 158 -62z" />
    <glyph glyph-name="ordfeminine" unicode="&#xaa;" horiz-adv-x="370" 
d="M222 321v31q-28 -39 -79 -39q-54 0 -95 45t-41 120q0 73 39.5 122.5t95.5 49.5q53 0 80 -39v30h125v-320h-125zM177 430q18 0 30.5 13t12.5 34t-12.5 35t-30.5 14t-30 -13.5t-12 -35.5q0 -21 12 -34t30 -13z" />
    <glyph glyph-name="guillemotleft" unicode="&#xab;" horiz-adv-x="555" 
d="M40 251l157 197l98 -81l-98 -116l98 -116l-98 -81zM260 251l157 197l98 -81l-98 -116l98 -116l-98 -81z" />
    <glyph glyph-name="logicalnot" unicode="&#xac;" horiz-adv-x="521" 
d="M491 109h-145v139h-316v145h461v-284z" />
    <glyph glyph-name="uni00AD" unicode="&#xad;" horiz-adv-x="335" 
d="M40 317h255v-135h-255v135z" />
    <glyph glyph-name="registered" unicode="&#xae;" horiz-adv-x="638" 
d="M319 768q121 0 206.5 -85.5t85.5 -206.5q0 -120 -85.5 -205.5t-206.5 -85.5q-120 0 -206 85.5t-86 205.5q0 121 86 206.5t206 85.5zM320 691q-88 0 -151 -63t-63 -151t63 -151t151 -63q89 0 152 63t63 151t-63 151t-152 63zM201 344v275h129q57 0 86.5 -23t29.5 -65
q0 -54 -54 -75l60 -112h-99l-49 102h-12v-102h-91zM320 554h-29v-51h29q34 0 34 26q0 25 -34 25z" />
    <glyph glyph-name="macron" unicode="&#xaf;" horiz-adv-x="400" 
d="M42 668h315v-115h-315v115z" />
    <glyph glyph-name="degree" unicode="&#xb0;" horiz-adv-x="386" 
d="M192 306q-73 0 -127.5 51.5t-54.5 122.5q0 74 50.5 125t131.5 51q80 0 132 -51t52 -125q0 -71 -55 -122.5t-129 -51.5zM193 405q30 0 51.5 21t21.5 54q0 35 -22 55t-51 20q-31 0 -52 -20t-21 -55q0 -34 21.5 -54.5t51.5 -20.5z" />
    <glyph glyph-name="plusminus" unicode="&#xb1;" horiz-adv-x="521" 
d="M336 641v-148h155v-145h-155v-148h-151v148h-155v145h155v148h151zM30 0v145h461v-145h-461z" />
    <glyph glyph-name="twosuperior" unicode="&#xb2;" horiz-adv-x="294" 
d="M27 321v82l106 76q34 23 34 48q0 29 -30 29q-34 0 -55 -44l-70 50q14 36 49.5 62t91.5 26q54 0 87 -31t33 -75q0 -68 -75 -114l-36 -22h109v-87h-244z" />
    <glyph glyph-name="threesuperior" unicode="&#xb3;" horiz-adv-x="294" 
d="M137 313q-87 0 -121 55l68 67q23 -28 51 -28q33 0 33 26q0 31 -43 31h-41v44l64 45h-109v88h225v-73l-69 -46q79 -24 79 -94q0 -49 -37 -82t-100 -33z" />
    <glyph glyph-name="acute" unicode="&#xb4;" horiz-adv-x="400" 
d="M223 688h188l-140 -156h-146z" />
    <glyph glyph-name="uni00B5" unicode="&#xb5;" 
d="M211 479v-252q0 -41 21 -66t55 -25t54.5 25t20.5 66v252h161v-264q0 -104 -65 -167t-171 -63q-43 0 -76 10v-151h-161v635h161z" />
    <glyph glyph-name="paragraph" unicode="&#xb6;" horiz-adv-x="597" 
d="M537 641v-837h-112v696h-52v-696h-151v434q-87 13 -137 69t-50 136q0 91 60.5 144.5t165.5 53.5h276z" />
    <glyph glyph-name="periodcentered" unicode="&#xb7;" horiz-adv-x="400" 
d="M199 202q-37 0 -63.5 26t-26.5 64t26.5 64.5t63.5 26.5t64 -26.5t27 -64.5q0 -37 -26.5 -63.5t-64.5 -26.5z" />
    <glyph glyph-name="cedilla" unicode="&#xb8;" horiz-adv-x="400" 
d="M164 21h103l-75 -217l-128 50z" />
    <glyph glyph-name="onesuperior" unicode="&#xb9;" horiz-adv-x="294" 
d="M222 321h-112v200l-36 -36l-60 71l92 85h116v-320z" />
    <glyph glyph-name="ordmasculine" unicode="&#xba;" horiz-adv-x="355" 
d="M177 313q-69 0 -119.5 49.5t-50.5 118.5q0 70 50.5 120t119.5 50t119.5 -50t50.5 -120q0 -69 -50.5 -118.5t-119.5 -49.5zM177 433q18 0 30.5 13t12.5 34t-12.5 35t-30.5 14t-30 -13.5t-12 -35.5q0 -21 12 -34t30 -13z" />
    <glyph glyph-name="guillemotright" unicode="&#xbb;" horiz-adv-x="555" 
d="M515 251l-157 -197l-98 81l98 116l-98 116l98 81zM295 251l-157 -197l-98 81l98 116l-98 116l98 81z" />
    <glyph glyph-name="onequarter" unicode="&#xbc;" horiz-adv-x="650" 
d="M222 321h-112v200l-36 -36l-60 71l92 85h116v-320zM72 0l422 641h120l-420 -641h-122zM511 0v40h-151v92l147 188h102v-188h37v-92h-37v-40h-98zM511 132v93l-74 -93h74z" />
    <glyph glyph-name="onehalf" unicode="&#xbd;" horiz-adv-x="650" 
d="M222 321h-112v200l-36 -36l-60 71l92 85h116v-320zM45 0l422 641h120l-420 -641h-122zM383 0v82l106 76q34 23 34 48q0 29 -30 29q-34 0 -55 -44l-70 50q14 36 49.5 62t91.5 26q54 0 87 -31t33 -75q0 -68 -75 -114l-36 -22h109v-87h-244z" />
    <glyph glyph-name="threequarters" unicode="&#xbe;" horiz-adv-x="650" 
d="M137 313q-87 0 -121 55l68 67q23 -28 51 -28q33 0 33 26q0 31 -43 31h-41v44l64 45h-109v88h225v-73l-69 -46q79 -24 79 -94q0 -49 -37 -82t-100 -33zM76 0l422 641h120l-420 -641h-122zM511 0v40h-151v92l147 188h102v-188h37v-92h-37v-40h-98zM511 132v93l-74 -93h74z
" />
    <glyph glyph-name="questiondown" unicode="&#xbf;" horiz-adv-x="477" 
d="M364 33l103 -96q-31 -50 -84 -82t-121 -32q-96 0 -151.5 56.5t-55.5 135.5q0 60 31.5 105.5t110.5 96.5l61 39l74 -115l-68 -46q-48 -32 -48 -70q0 -22 15 -36.5t38 -14.5q48 0 95 59zM258 494q41 0 70 -29t29 -70t-29 -70.5t-70 -29.5t-70.5 29.5t-29.5 70.5t29.5 70
t70.5 29z" />
    <glyph glyph-name="Agrave" unicode="&#xc0;" horiz-adv-x="714" 
d="M522 0l-44 121h-251l-44 -121h-173l250 641h194l250 -641h-182zM334 850l98 -156h-146l-140 156h188zM425 267l-72 199l-73 -199h145z" />
    <glyph glyph-name="Aacute" unicode="&#xc1;" horiz-adv-x="714" 
d="M522 0l-44 121h-251l-44 -121h-173l250 641h194l250 -641h-182zM380 850h188l-140 -156h-146zM425 267l-72 199l-73 -199h145z" />
    <glyph glyph-name="Acircumflex" unicode="&#xc2;" horiz-adv-x="714" 
d="M522 0l-44 121h-251l-44 -121h-173l250 641h194l250 -641h-182zM285 850h144l117 -156h-151l-38 67l-38 -67h-151zM425 267l-72 199l-73 -199h145z" />
    <glyph glyph-name="Atilde" unicode="&#xc3;" horiz-adv-x="714" 
d="M522 0l-44 121h-251l-44 -121h-173l250 641h194l250 -641h-182zM440 692q-30 0 -74 18.5t-66 18.5q-30 0 -59 -45l-78 65q39 93 111 93q30 0 74 -18.5t66 -18.5q30 0 59 45l78 -65q-39 -93 -111 -93zM425 267l-72 199l-73 -199h145z" />
    <glyph glyph-name="Adieresis" unicode="&#xc4;" horiz-adv-x="714" 
d="M522 0l-44 121h-251l-44 -121h-173l250 641h194l250 -641h-182zM256 685q-34 0 -57.5 23.5t-23.5 57.5t23.5 58t57.5 24t58 -24t24 -58t-24 -57.5t-58 -23.5zM456 685q-34 0 -57.5 23.5t-23.5 57.5t23.5 58t57.5 24t58 -24t24 -58t-24 -57.5t-58 -23.5zM425 267l-72 199
l-73 -199h145z" />
    <glyph glyph-name="Aring" unicode="&#xc5;" horiz-adv-x="714" 
d="M522 0l-44 121h-251l-44 -121h-173l250 641h194l250 -641h-182zM357 684q-54 0 -90.5 36t-36.5 87t36.5 87t90.5 36t90.5 -36t36.5 -87t-36.5 -87t-90.5 -36zM358 763q17 0 29.5 12.5t12.5 31.5t-12.5 31.5t-29.5 12.5t-29.5 -12.5t-12.5 -31.5t12.5 -31.5t29.5 -12.5z
M425 267l-72 199l-73 -199h145z" />
    <glyph glyph-name="AE" unicode="&#xc6;" horiz-adv-x="856" 
d="M384 498l-93 -231h125v231h-32zM416 0v121h-184l-49 -121h-173l270 641h546v-155h-245v-84h205v-155h-205v-92h245v-155h-410z" />
    <glyph glyph-name="Ccedilla" unicode="&#xc7;" horiz-adv-x="623" 
d="M608 561l-110 -126q-54 56 -134 56q-66 0 -111.5 -49.5t-45.5 -120.5t47 -121t118 -50q36 0 70.5 15t55.5 41l110 -122q-70 -85 -202 -97l-63 -183l-128 50l82 137q-117 23 -192 115.5t-75 214.5q0 139 97.5 237t234.5 98q161 0 246 -95z" />
    <glyph glyph-name="Egrave" unicode="&#xc8;" horiz-adv-x="516" 
d="M60 0v641h426v-155h-261v-84h221v-155h-221v-92h261v-155h-426zM245 850l98 -156h-146l-140 156h188z" />
    <glyph glyph-name="Eacute" unicode="&#xc9;" horiz-adv-x="516" 
d="M60 0v641h426v-155h-261v-84h221v-155h-221v-92h261v-155h-426zM291 850h188l-140 -156h-146z" />
    <glyph glyph-name="Ecircumflex" unicode="&#xca;" horiz-adv-x="516" 
d="M60 0v641h426v-155h-261v-84h221v-155h-221v-92h261v-155h-426zM196 850h144l117 -156h-151l-38 67l-38 -67h-151z" />
    <glyph glyph-name="Edieresis" unicode="&#xcb;" horiz-adv-x="516" 
d="M60 0v641h426v-155h-261v-84h221v-155h-221v-92h261v-155h-426zM167 685q-34 0 -57.5 23.5t-23.5 57.5t23.5 58t57.5 24t58 -24t24 -58t-24 -57.5t-58 -23.5zM367 685q-34 0 -57.5 23.5t-23.5 57.5t23.5 58t57.5 24t58 -24t24 -58t-24 -57.5t-58 -23.5z" />
    <glyph glyph-name="Igrave" unicode="&#xcc;" horiz-adv-x="285" 
d="M60 0v641h165v-641h-165zM119 850l98 -156h-146l-140 156h188z" />
    <glyph glyph-name="Iacute" unicode="&#xcd;" horiz-adv-x="285" 
d="M60 0v641h165v-641h-165zM165 850h188l-140 -156h-146z" />
    <glyph glyph-name="Icircumflex" unicode="&#xce;" horiz-adv-x="285" 
d="M60 0v641h165v-641h-165zM70 850h144l117 -156h-151l-38 67l-38 -67h-151z" />
    <glyph glyph-name="Idieresis" unicode="&#xcf;" horiz-adv-x="285" 
d="M60 0v641h165v-641h-165zM41 685q-34 0 -57.5 23.5t-23.5 57.5t23.5 58t57.5 24t58 -24t24 -58t-24 -57.5t-58 -23.5zM241 685q-34 0 -57.5 23.5t-23.5 57.5t23.5 58t57.5 24t58 -24t24 -58t-24 -57.5t-58 -23.5z" />
    <glyph glyph-name="Eth" unicode="&#xd0;" horiz-adv-x="686" 
d="M60 0v272h-55v135h55v234h233q157 0 260 -91.5t103 -230.5q0 -138 -103 -228.5t-260 -90.5h-233zM290 486h-60v-79h100v-135h-100v-117h61q85 0 136.5 45.5t51.5 120.5q0 74 -52 119.5t-137 45.5z" />
    <glyph glyph-name="Ntilde" unicode="&#xd1;" horiz-adv-x="697" 
d="M460 0l-235 365v-365h-165v641h177l235 -371v371h165v-641h-177zM432 692q-30 0 -74 18.5t-66 18.5q-30 0 -59 -45l-78 65q39 93 111 93q30 0 74 -18.5t66 -18.5q30 0 59 45l78 -65q-39 -93 -111 -93z" />
    <glyph glyph-name="Ograve" unicode="&#xd2;" horiz-adv-x="732" 
d="M366 656q139 0 237.5 -98.5t98.5 -237.5t-98.5 -237t-237.5 -98t-237.5 98.5t-98.5 237.5t98.5 237t237.5 98zM366 150q66 0 112.5 49.5t46.5 120.5t-46.5 121t-112.5 50t-112.5 -49.5t-46.5 -120.5t46.5 -121t112.5 -50zM343 850l98 -156h-146l-140 156h188z" />
    <glyph glyph-name="Oacute" unicode="&#xd3;" horiz-adv-x="732" 
d="M366 656q139 0 237.5 -98.5t98.5 -237.5t-98.5 -237t-237.5 -98t-237.5 98.5t-98.5 237.5t98.5 237t237.5 98zM366 150q66 0 112.5 49.5t46.5 120.5t-46.5 121t-112.5 50t-112.5 -49.5t-46.5 -120.5t46.5 -121t112.5 -50zM389 850h188l-140 -156h-146z" />
    <glyph glyph-name="Ocircumflex" unicode="&#xd4;" horiz-adv-x="732" 
d="M366 656q139 0 237.5 -98.5t98.5 -237.5t-98.5 -237t-237.5 -98t-237.5 98.5t-98.5 237.5t98.5 237t237.5 98zM366 150q66 0 112.5 49.5t46.5 120.5t-46.5 121t-112.5 50t-112.5 -49.5t-46.5 -120.5t46.5 -121t112.5 -50zM294 850h144l117 -156h-151l-38 67l-38 -67h-151
z" />
    <glyph glyph-name="Otilde" unicode="&#xd5;" horiz-adv-x="732" 
d="M366 656q139 0 237.5 -98.5t98.5 -237.5t-98.5 -237t-237.5 -98t-237.5 98.5t-98.5 237.5t98.5 237t237.5 98zM366 150q66 0 112.5 49.5t46.5 120.5t-46.5 121t-112.5 50t-112.5 -49.5t-46.5 -120.5t46.5 -121t112.5 -50zM449 692q-30 0 -74 18.5t-66 18.5q-30 0 -59 -45
l-78 65q39 93 111 93q30 0 74 -18.5t66 -18.5q30 0 59 45l78 -65q-39 -93 -111 -93z" />
    <glyph glyph-name="Odieresis" unicode="&#xd6;" horiz-adv-x="732" 
d="M366 656q139 0 237.5 -98.5t98.5 -237.5t-98.5 -237t-237.5 -98t-237.5 98.5t-98.5 237.5t98.5 237t237.5 98zM366 150q66 0 112.5 49.5t46.5 120.5t-46.5 121t-112.5 50t-112.5 -49.5t-46.5 -120.5t46.5 -121t112.5 -50zM265 685q-34 0 -57.5 23.5t-23.5 57.5t23.5 58
t57.5 24t58 -24t24 -58t-24 -57.5t-58 -23.5zM465 685q-34 0 -57.5 23.5t-23.5 57.5t23.5 58t57.5 24t58 -24t24 -58t-24 -57.5t-58 -23.5z" />
    <glyph glyph-name="multiply" unicode="&#xd7;" horiz-adv-x="521" 
d="M144 544l117 -117l119 119l107 -107l-119 -119l116 -116l-106 -107l-117 117l-119 -119l-107 106l120 120l-117 116z" />
    <glyph glyph-name="Oslash" unicode="&#xd8;" horiz-adv-x="732" 
d="M366 656q71 0 139 -30l42 62l91 -58l-44 -64q108 -98 108 -246q0 -139 -98.5 -237t-237.5 -98q-75 0 -144 33l-44 -65l-91 58l46 68q-103 100 -103 242q0 139 98.5 237t237.5 98zM207 321q0 -50 26 -94l176 258q-21 6 -43 6q-66 0 -112.5 -49.5t-46.5 -120.5zM366 150
q66 0 112.5 49.5t46.5 120.5q0 56 -30 100l-178 -262q26 -8 49 -8z" />
    <glyph glyph-name="Ugrave" unicode="&#xd9;" horiz-adv-x="659" 
d="M55 274v367h165v-363q0 -58 30.5 -93t80.5 -35q49 0 78.5 34.5t29.5 92.5v364h165v-367q0 -130 -75.5 -209.5t-200.5 -79.5q-123 0 -198 79.5t-75 209.5zM307 850l98 -156h-146l-140 156h188z" />
    <glyph glyph-name="Uacute" unicode="&#xda;" horiz-adv-x="659" 
d="M55 274v367h165v-363q0 -58 30.5 -93t80.5 -35q49 0 78.5 34.5t29.5 92.5v364h165v-367q0 -130 -75.5 -209.5t-200.5 -79.5q-123 0 -198 79.5t-75 209.5zM353 850h188l-140 -156h-146z" />
    <glyph glyph-name="Ucircumflex" unicode="&#xdb;" horiz-adv-x="659" 
d="M55 274v367h165v-363q0 -58 30.5 -93t80.5 -35q49 0 78.5 34.5t29.5 92.5v364h165v-367q0 -130 -75.5 -209.5t-200.5 -79.5q-123 0 -198 79.5t-75 209.5zM258 850h144l117 -156h-151l-38 67l-38 -67h-151z" />
    <glyph glyph-name="Udieresis" unicode="&#xdc;" horiz-adv-x="659" 
d="M55 274v367h165v-363q0 -58 30.5 -93t80.5 -35q49 0 78.5 34.5t29.5 92.5v364h165v-367q0 -130 -75.5 -209.5t-200.5 -79.5q-123 0 -198 79.5t-75 209.5zM229 685q-34 0 -57.5 23.5t-23.5 57.5t23.5 58t57.5 24t58 -24t24 -58t-24 -57.5t-58 -23.5zM429 685
q-34 0 -57.5 23.5t-23.5 57.5t23.5 58t57.5 24t58 -24t24 -58t-24 -57.5t-58 -23.5z" />
    <glyph glyph-name="Yacute" unicode="&#xdd;" horiz-adv-x="651" 
d="M243 0v210l-233 431h183l136 -258l138 258h174l-233 -431v-210h-165zM349 850h188l-140 -156h-146z" />
    <glyph glyph-name="Thorn" unicode="&#xde;" horiz-adv-x="584" 
d="M306 401h-81v-157h81q37 0 60 22t23 58q0 35 -23 56t-60 21zM225 0h-165v641h165v-95h68q122 0 196.5 -61t74.5 -161q0 -102 -74.5 -163.5t-197.5 -61.5h-67v-99z" />
    <glyph glyph-name="germandbls" unicode="&#xdf;" horiz-adv-x="579" 
d="M286 552q-70 0 -70 -83v-469h-161v466q0 107 63 172t167 65q101 0 164 -58.5t63 -148.5q0 -70 -56 -118q96 -58 96 -174q0 -98 -62.5 -158.5t-156.5 -60.5q-48 0 -82 14l36 141q12 -4 27 -4q33 0 55 21t22 55q0 38 -25.5 61t-70.5 23h-29v131h21q32 0 48 18t16 44
q0 28 -16.5 45.5t-48.5 17.5z" />
    <glyph glyph-name="agrave" unicode="&#xe0;" horiz-adv-x="592" 
d="M376 0v45q-47 -60 -122 -60q-94 0 -160.5 70.5t-66.5 183.5q0 110 64.5 182.5t162.5 72.5q78 0 122 -55v40h161v-479h-161zM282 136q40 0 67 29.5t27 73.5t-27 74t-67 30t-67 -30t-27 -74t27 -73.5t67 -29.5zM273 688l98 -156h-146l-140 156h188z" />
    <glyph glyph-name="aacute" unicode="&#xe1;" horiz-adv-x="592" 
d="M376 0v45q-47 -60 -122 -60q-94 0 -160.5 70.5t-66.5 183.5q0 110 64.5 182.5t162.5 72.5q78 0 122 -55v40h161v-479h-161zM282 136q40 0 67 29.5t27 73.5t-27 74t-67 30t-67 -30t-27 -74t27 -73.5t67 -29.5zM319 688h188l-140 -156h-146z" />
    <glyph glyph-name="acircumflex" unicode="&#xe2;" horiz-adv-x="592" 
d="M376 0v45q-47 -60 -122 -60q-94 0 -160.5 70.5t-66.5 183.5q0 110 64.5 182.5t162.5 72.5q78 0 122 -55v40h161v-479h-161zM282 136q40 0 67 29.5t27 73.5t-27 74t-67 30t-67 -30t-27 -74t27 -73.5t67 -29.5zM224 688h144l117 -156h-151l-38 67l-38 -67h-151z" />
    <glyph glyph-name="atilde" unicode="&#xe3;" horiz-adv-x="592" 
d="M376 0v45q-47 -60 -122 -60q-94 0 -160.5 70.5t-66.5 183.5q0 110 64.5 182.5t162.5 72.5q78 0 122 -55v40h161v-479h-161zM282 136q40 0 67 29.5t27 73.5t-27 74t-67 30t-67 -30t-27 -74t27 -73.5t67 -29.5zM379 530q-30 0 -74 18.5t-66 18.5q-30 0 -59 -45l-78 65
q39 93 111 93q30 0 74 -18.5t66 -18.5q30 0 59 45l78 -65q-39 -93 -111 -93z" />
    <glyph glyph-name="adieresis" unicode="&#xe4;" horiz-adv-x="592" 
d="M376 0v45q-47 -60 -122 -60q-94 0 -160.5 70.5t-66.5 183.5q0 110 64.5 182.5t162.5 72.5q78 0 122 -55v40h161v-479h-161zM282 136q40 0 67 29.5t27 73.5t-27 74t-67 30t-67 -30t-27 -74t27 -73.5t67 -29.5zM195 523q-34 0 -57.5 23.5t-23.5 57.5t23.5 58t57.5 24
t58 -24t24 -58t-24 -57.5t-58 -23.5zM395 523q-34 0 -57.5 23.5t-23.5 57.5t23.5 58t57.5 24t58 -24t24 -58t-24 -57.5t-58 -23.5z" />
    <glyph glyph-name="aring" unicode="&#xe5;" horiz-adv-x="592" 
d="M376 0v45q-47 -60 -122 -60q-94 0 -160.5 70.5t-66.5 183.5q0 110 64.5 182.5t162.5 72.5q78 0 122 -55v40h161v-479h-161zM282 136q40 0 67 29.5t27 73.5t-27 74t-67 30t-67 -30t-27 -74t27 -73.5t67 -29.5zM296 522q-54 0 -90.5 36t-36.5 87t36.5 87t90.5 36t90.5 -36
t36.5 -87t-36.5 -87t-90.5 -36zM297 601q17 0 29.5 12.5t12.5 31.5t-12.5 31.5t-29.5 12.5t-29.5 -12.5t-12.5 -31.5t12.5 -31.5t29.5 -12.5z" />
    <glyph glyph-name="ae" unicode="&#xe6;" horiz-adv-x="885" 
d="M376 0v52q-44 -67 -122 -67q-94 0 -160.5 70.5t-66.5 183.5q0 110 64.5 182.5t162.5 72.5q80 0 122 -61v46h151v-46q44 61 120 61q84 0 149 -71t65 -174q0 -35 -3 -50h-325q10 -33 35.5 -53t60.5 -20q63 0 106 45l82 -109q-25 -31 -73.5 -54t-91.5 -23q-77 0 -125 65v-50
h-151zM282 136q40 0 67 29.5t27 73.5t-27 74t-67 30t-67 -30t-27 -74t27 -73.5t67 -29.5zM616 359q-59 0 -80 -62h160q-19 62 -80 62z" />
    <glyph glyph-name="ccedilla" unicode="&#xe7;" horiz-adv-x="490" 
d="M389 303q-41 40 -99 40q-46 0 -74 -29.5t-28 -74.5q0 -44 28.5 -73.5t73.5 -29.5q59 0 105 44l80 -118q-48 -58 -145 -74l-64 -184l-128 50l83 139q-85 21 -139.5 89.5t-54.5 156.5q0 106 75 180.5t180 74.5q124 0 198 -77z" />
    <glyph glyph-name="egrave" unicode="&#xe8;" horiz-adv-x="546" 
d="M291 -15q-113 0 -188.5 74t-75.5 180t71.5 180.5t175.5 74.5q105 0 176.5 -70t71.5 -175q0 -35 -3 -50h-325q10 -34 37 -53.5t66 -19.5q56 0 99 45l82 -109q-27 -33 -77 -55t-110 -22zM277 359q-59 0 -80 -62h160q-19 62 -80 62zM250 688l98 -156h-146l-140 156h188z" />
    <glyph glyph-name="eacute" unicode="&#xe9;" horiz-adv-x="546" 
d="M291 -15q-113 0 -188.5 74t-75.5 180t71.5 180.5t175.5 74.5q105 0 176.5 -70t71.5 -175q0 -35 -3 -50h-325q10 -34 37 -53.5t66 -19.5q56 0 99 45l82 -109q-27 -33 -77 -55t-110 -22zM277 359q-59 0 -80 -62h160q-19 62 -80 62zM296 688h188l-140 -156h-146z" />
    <glyph glyph-name="ecircumflex" unicode="&#xea;" horiz-adv-x="546" 
d="M291 -15q-113 0 -188.5 74t-75.5 180t71.5 180.5t175.5 74.5q105 0 176.5 -70t71.5 -175q0 -35 -3 -50h-325q10 -34 37 -53.5t66 -19.5q56 0 99 45l82 -109q-27 -33 -77 -55t-110 -22zM277 359q-59 0 -80 -62h160q-19 62 -80 62zM201 688h144l117 -156h-151l-38 67
l-38 -67h-151z" />
    <glyph glyph-name="edieresis" unicode="&#xeb;" horiz-adv-x="546" 
d="M291 -15q-113 0 -188.5 74t-75.5 180t71.5 180.5t175.5 74.5q105 0 176.5 -70t71.5 -175q0 -35 -3 -50h-325q10 -34 37 -53.5t66 -19.5q56 0 99 45l82 -109q-27 -33 -77 -55t-110 -22zM277 359q-59 0 -80 -62h160q-19 62 -80 62zM172 523q-34 0 -57.5 23.5t-23.5 57.5
t23.5 58t57.5 24t58 -24t24 -58t-24 -57.5t-58 -23.5zM372 523q-34 0 -57.5 23.5t-23.5 57.5t23.5 58t57.5 24t58 -24t24 -58t-24 -57.5t-58 -23.5z" />
    <glyph glyph-name="igrave" unicode="&#xec;" horiz-adv-x="271" 
d="M216 479v-479h-161v479h161zM112 688l98 -156h-146l-140 156h188z" />
    <glyph glyph-name="iacute" unicode="&#xed;" horiz-adv-x="271" 
d="M216 479v-479h-161v479h161zM158 688h188l-140 -156h-146z" />
    <glyph glyph-name="icircumflex" unicode="&#xee;" horiz-adv-x="271" 
d="M216 479v-479h-161v479h161zM63 688h144l117 -156h-151l-38 67l-38 -67h-151z" />
    <glyph glyph-name="idieresis" unicode="&#xef;" horiz-adv-x="271" 
d="M216 479v-479h-161v479h161zM34 523q-34 0 -57.5 23.5t-23.5 57.5t23.5 58t57.5 24t58 -24t24 -58t-24 -57.5t-58 -23.5zM234 523q-34 0 -57.5 23.5t-23.5 57.5t23.5 58t57.5 24t58 -24t24 -58t-24 -57.5t-58 -23.5z" />
    <glyph glyph-name="eth" unicode="&#xf0;" horiz-adv-x="564" 
d="M282 136q41 0 67.5 27.5t26.5 70.5q0 44 -26.5 71.5t-67.5 27.5t-67.5 -27.5t-26.5 -71.5q0 -43 26.5 -70.5t67.5 -27.5zM282 469q18 0 46 -6q-22 32 -46 57l-75 -43l-49 83l47 27q-39 27 -66 40l109 100q53 -26 96 -61l64 37l49 -83l-41 -24q121 -142 121 -319
q0 -132 -70 -212t-185 -80q-106 0 -180.5 72.5t-74.5 176.5t74 169.5t181 65.5z" />
    <glyph glyph-name="ntilde" unicode="&#xf1;" 
d="M216 264v-264h-161v479h161v-59q38 74 124 74q82 0 130 -55.5t48 -152.5v-286h-161v264q0 36 -19 57.5t-51 21.5t-51.5 -21.5t-19.5 -57.5zM370 530q-30 0 -74 18.5t-66 18.5q-30 0 -59 -45l-78 65q39 93 111 93q30 0 74 -18.5t66 -18.5q30 0 59 45l78 -65
q-39 -93 -111 -93z" />
    <glyph glyph-name="ograve" unicode="&#xf2;" horiz-adv-x="564" 
d="M282 -15q-105 0 -180 74.5t-75 179.5q0 106 75 180.5t180 74.5t180 -74.5t75 -180.5q0 -105 -75 -179.5t-180 -74.5zM282 136q40 0 67 29.5t27 73.5t-27 74t-67 30t-67 -30t-27 -74t27 -73.5t67 -29.5zM259 688l98 -156h-146l-140 156h188z" />
    <glyph glyph-name="oacute" unicode="&#xf3;" horiz-adv-x="564" 
d="M282 -15q-105 0 -180 74.5t-75 179.5q0 106 75 180.5t180 74.5t180 -74.5t75 -180.5q0 -105 -75 -179.5t-180 -74.5zM282 136q40 0 67 29.5t27 73.5t-27 74t-67 30t-67 -30t-27 -74t27 -73.5t67 -29.5zM305 688h188l-140 -156h-146z" />
    <glyph glyph-name="ocircumflex" unicode="&#xf4;" horiz-adv-x="564" 
d="M282 -15q-105 0 -180 74.5t-75 179.5q0 106 75 180.5t180 74.5t180 -74.5t75 -180.5q0 -105 -75 -179.5t-180 -74.5zM282 136q40 0 67 29.5t27 73.5t-27 74t-67 30t-67 -30t-27 -74t27 -73.5t67 -29.5zM210 688h144l117 -156h-151l-38 67l-38 -67h-151z" />
    <glyph glyph-name="otilde" unicode="&#xf5;" horiz-adv-x="564" 
d="M282 -15q-105 0 -180 74.5t-75 179.5q0 106 75 180.5t180 74.5t180 -74.5t75 -180.5q0 -105 -75 -179.5t-180 -74.5zM282 136q40 0 67 29.5t27 73.5t-27 74t-67 30t-67 -30t-27 -74t27 -73.5t67 -29.5zM365 530q-30 0 -74 18.5t-66 18.5q-30 0 -59 -45l-78 65
q39 93 111 93q30 0 74 -18.5t66 -18.5q30 0 59 45l78 -65q-39 -93 -111 -93z" />
    <glyph glyph-name="odieresis" unicode="&#xf6;" horiz-adv-x="564" 
d="M282 -15q-105 0 -180 74.5t-75 179.5q0 106 75 180.5t180 74.5t180 -74.5t75 -180.5q0 -105 -75 -179.5t-180 -74.5zM282 136q40 0 67 29.5t27 73.5t-27 74t-67 30t-67 -30t-27 -74t27 -73.5t67 -29.5zM181 523q-34 0 -57.5 23.5t-23.5 57.5t23.5 58t57.5 24t58 -24
t24 -58t-24 -57.5t-58 -23.5zM381 523q-34 0 -57.5 23.5t-23.5 57.5t23.5 58t57.5 24t58 -24t24 -58t-24 -57.5t-58 -23.5z" />
    <glyph glyph-name="divide" unicode="&#xf7;" horiz-adv-x="521" 
d="M30 248v145h461v-145h-461zM260 15q-41 0 -70 29t-29 70t29 70.5t70 29.5t70.5 -29.5t29.5 -70.5t-29.5 -70t-70.5 -29zM260 425q-41 0 -70 29t-29 70t29 70.5t70 29.5t70.5 -29.5t29.5 -70.5t-29.5 -70t-70.5 -29z" />
    <glyph glyph-name="oslash" unicode="&#xf8;" horiz-adv-x="584" 
d="M292 -15q-54 0 -106 21l-32 -46l-76 51l31 45q-82 75 -82 183q0 105 78 180t187 75q54 0 103 -20l36 52l76 -51l-34 -50q84 -76 84 -186q0 -105 -78 -179.5t-187 -74.5zM188 239q0 -27 12 -50l105 153q-4 1 -13 1q-45 0 -74.5 -30t-29.5 -74zM292 136q45 0 74.5 29.5
t29.5 73.5q0 29 -14 54l-107 -156q6 -1 17 -1z" />
    <glyph glyph-name="ugrave" unicode="&#xf9;" 
d="M211 479v-252q0 -41 21 -66t55 -25t54.5 25t20.5 66v252h161v-264q0 -104 -65 -167t-171 -63q-107 0 -172 63t-65 167v264h161zM264 688l98 -156h-146l-140 156h188z" />
    <glyph glyph-name="uacute" unicode="&#xfa;" 
d="M211 479v-252q0 -41 21 -66t55 -25t54.5 25t20.5 66v252h161v-264q0 -104 -65 -167t-171 -63q-107 0 -172 63t-65 167v264h161zM310 688h188l-140 -156h-146z" />
    <glyph glyph-name="ucircumflex" unicode="&#xfb;" 
d="M211 479v-252q0 -41 21 -66t55 -25t54.5 25t20.5 66v252h161v-264q0 -104 -65 -167t-171 -63q-107 0 -172 63t-65 167v264h161zM215 688h144l117 -156h-151l-38 67l-38 -67h-151z" />
    <glyph glyph-name="udieresis" unicode="&#xfc;" 
d="M211 479v-252q0 -41 21 -66t55 -25t54.5 25t20.5 66v252h161v-264q0 -104 -65 -167t-171 -63q-107 0 -172 63t-65 167v264h161zM186 523q-34 0 -57.5 23.5t-23.5 57.5t23.5 58t57.5 24t58 -24t24 -58t-24 -57.5t-58 -23.5zM386 523q-34 0 -57.5 23.5t-23.5 57.5t23.5 58
t57.5 24t58 -24t24 -58t-24 -57.5t-58 -23.5z" />
    <glyph glyph-name="yacute" unicode="&#xfd;" horiz-adv-x="558" 
d="M181 479l113 -277l92 277h162l-183 -520q-59 -170 -205 -170q-88 0 -150 58l71 126q34 -33 78 -33q43 0 65 52l-221 487h178zM302 688h188l-140 -156h-146z" />
    <glyph glyph-name="thorn" unicode="&#xfe;" horiz-adv-x="592" 
d="M55 688h161v-240q48 46 122 46q94 0 160.5 -70.5t66.5 -183.5q0 -110 -64.5 -182.5t-162.5 -72.5q-75 0 -122 41v-222h-161v884zM310 343q-40 0 -67 -29.5t-27 -73.5t27 -74t67 -30t67 30t27 74t-27 73.5t-67 29.5z" />
    <glyph glyph-name="ydieresis" unicode="&#xff;" horiz-adv-x="558" 
d="M181 479l113 -277l92 277h162l-183 -520q-59 -170 -205 -170q-88 0 -150 58l71 126q34 -33 78 -33q43 0 65 52l-221 487h178zM178 523q-34 0 -57.5 23.5t-23.5 57.5t23.5 58t57.5 24t58 -24t24 -58t-24 -57.5t-58 -23.5zM378 523q-34 0 -57.5 23.5t-23.5 57.5t23.5 58
t57.5 24t58 -24t24 -58t-24 -57.5t-58 -23.5z" />
    <glyph glyph-name="Amacron" unicode="&#x100;" horiz-adv-x="714" 
d="M522 0l-44 121h-251l-44 -121h-173l250 641h194l250 -641h-182zM199 830h315v-115h-315v115zM425 267l-72 199l-73 -199h145z" />
    <glyph glyph-name="amacron" unicode="&#x101;" horiz-adv-x="592" 
d="M376 0v45q-47 -60 -122 -60q-94 0 -160.5 70.5t-66.5 183.5q0 110 64.5 182.5t162.5 72.5q78 0 122 -55v40h161v-479h-161zM282 136q40 0 67 29.5t27 73.5t-27 74t-67 30t-67 -30t-27 -74t27 -73.5t67 -29.5zM138 668h315v-115h-315v115z" />
    <glyph glyph-name="Abreve" unicode="&#x102;" horiz-adv-x="714" 
d="M522 0l-44 121h-251l-44 -121h-173l250 641h194l250 -641h-182zM357 684q-69 0 -114.5 47.5t-45.5 118.5h109q0 -31 14.5 -47.5t36.5 -16.5t36.5 16.5t14.5 47.5h110q0 -71 -46 -118.5t-115 -47.5zM425 267l-72 199l-73 -199h145z" />
    <glyph glyph-name="abreve" unicode="&#x103;" horiz-adv-x="592" 
d="M376 0v45q-47 -60 -122 -60q-94 0 -160.5 70.5t-66.5 183.5q0 110 64.5 182.5t162.5 72.5q78 0 122 -55v40h161v-479h-161zM282 136q40 0 67 29.5t27 73.5t-27 74t-67 30t-67 -30t-27 -74t27 -73.5t67 -29.5zM296 522q-69 0 -114.5 47.5t-45.5 118.5h109
q0 -31 14.5 -47.5t36.5 -16.5t36.5 16.5t14.5 47.5h110q0 -71 -46 -118.5t-115 -47.5z" />
    <glyph glyph-name="Aogonek" unicode="&#x104;" horiz-adv-x="714" 
d="M641 -161q-42 -50 -115 -50q-48 0 -83.5 25.5t-35.5 73.5q0 77 105 140l-34 93h-251l-44 -121h-173l250 641h194l250 -641h-116q-65 -43 -65 -86q0 -28 28 -28q21 0 45 18zM425 267l-72 199l-73 -199h145z" />
    <glyph glyph-name="aogonek" unicode="&#x105;" horiz-adv-x="592" 
d="M254 -15q-94 0 -160.5 70.5t-66.5 183.5q0 110 64.5 182.5t162.5 72.5q78 0 122 -55v40h161v-479h-49q-65 -43 -65 -86q0 -28 28 -28q21 0 45 18l45 -65q-42 -50 -115 -50q-48 0 -83.5 25.5t-35.5 73.5q0 60 69 113v44q-47 -60 -122 -60zM282 136q40 0 67 29.5t27 73.5
t-27 74t-67 30t-67 -30t-27 -74t27 -73.5t67 -29.5z" />
    <glyph glyph-name="Cacute" unicode="&#x106;" horiz-adv-x="623" 
d="M608 561l-110 -126q-54 56 -134 56q-66 0 -111.5 -49.5t-45.5 -120.5t47 -121t118 -50q36 0 70.5 15t55.5 41l110 -122q-82 -99 -247 -99q-141 0 -236 98t-95 238q0 139 97.5 237t234.5 98q161 0 246 -95zM375 850h188l-140 -156h-146z" />
    <glyph glyph-name="cacute" unicode="&#x107;" horiz-adv-x="490" 
d="M389 303q-41 40 -99 40q-46 0 -74 -29.5t-28 -74.5q0 -44 28.5 -73.5t73.5 -29.5q59 0 105 44l80 -118q-29 -34 -80 -55.5t-109 -21.5q-108 0 -183.5 74.5t-75.5 179.5q0 106 75 180.5t180 74.5q124 0 198 -77zM288 688h188l-140 -156h-146z" />
    <glyph glyph-name="Ccircumflex" unicode="&#x108;" horiz-adv-x="623" 
d="M608 561l-110 -126q-54 56 -134 56q-66 0 -111.5 -49.5t-45.5 -120.5t47 -121t118 -50q36 0 70.5 15t55.5 41l110 -122q-82 -99 -247 -99q-141 0 -236 98t-95 238q0 139 97.5 237t234.5 98q161 0 246 -95zM280 850h144l117 -156h-151l-38 67l-38 -67h-151z" />
    <glyph glyph-name="ccircumflex" unicode="&#x109;" horiz-adv-x="490" 
d="M389 303q-41 40 -99 40q-46 0 -74 -29.5t-28 -74.5q0 -44 28.5 -73.5t73.5 -29.5q59 0 105 44l80 -118q-29 -34 -80 -55.5t-109 -21.5q-108 0 -183.5 74.5t-75.5 179.5q0 106 75 180.5t180 74.5q124 0 198 -77zM193 688h144l117 -156h-151l-38 67l-38 -67h-151z" />
    <glyph glyph-name="Cdotaccent" unicode="&#x10a;" horiz-adv-x="623" 
d="M608 561l-110 -126q-54 56 -134 56q-66 0 -111.5 -49.5t-45.5 -120.5t47 -121t118 -50q36 0 70.5 15t55.5 41l110 -122q-82 -99 -247 -99q-141 0 -236 98t-95 238q0 139 97.5 237t234.5 98q161 0 246 -95zM351 684q-37 0 -63.5 26t-26.5 64t26.5 64.5t63.5 26.5t64 -26.5
t27 -64.5q0 -37 -26.5 -63.5t-64.5 -26.5z" />
    <glyph glyph-name="cdotaccent" unicode="&#x10b;" horiz-adv-x="490" 
d="M389 303q-41 40 -99 40q-46 0 -74 -29.5t-28 -74.5q0 -44 28.5 -73.5t73.5 -29.5q59 0 105 44l80 -118q-29 -34 -80 -55.5t-109 -21.5q-108 0 -183.5 74.5t-75.5 179.5q0 106 75 180.5t180 74.5q124 0 198 -77zM264 522q-38 0 -64 26t-26 64t26.5 64.5t63.5 26.5
q38 0 64.5 -26.5t26.5 -64.5q0 -37 -26.5 -63.5t-64.5 -26.5z" />
    <glyph glyph-name="Ccaron" unicode="&#x10c;" horiz-adv-x="623" 
d="M608 561l-110 -126q-54 56 -134 56q-66 0 -111.5 -49.5t-45.5 -120.5t47 -121t118 -50q36 0 70.5 15t55.5 41l110 -122q-82 -99 -247 -99q-141 0 -236 98t-95 238q0 139 97.5 237t234.5 98q161 0 246 -95zM424 694h-144l-117 156h151l38 -67l38 67h151z" />
    <glyph glyph-name="ccaron" unicode="&#x10d;" horiz-adv-x="490" 
d="M389 303q-41 40 -99 40q-46 0 -74 -29.5t-28 -74.5q0 -44 28.5 -73.5t73.5 -29.5q59 0 105 44l80 -118q-29 -34 -80 -55.5t-109 -21.5q-108 0 -183.5 74.5t-75.5 179.5q0 106 75 180.5t180 74.5q124 0 198 -77zM337 532h-144l-117 156h151l38 -67l38 67h151z" />
    <glyph glyph-name="Dcaron" unicode="&#x10e;" horiz-adv-x="686" 
d="M60 0v641h233q157 0 260 -91.5t103 -230.5q0 -138 -103 -228.5t-260 -90.5h-233zM290 486h-60v-331h61q85 0 136.5 45.5t51.5 120.5q0 74 -52 119.5t-137 45.5zM345 694h-144l-117 156h151l38 -67l38 67h151z" />
    <glyph glyph-name="dcaron" unicode="&#x10f;" horiz-adv-x="686" 
d="M282 136q40 0 67 29.5t27 73.5t-27 74t-67 30t-67 -30t-27 -74t27 -73.5t67 -29.5zM376 688h161v-688h-161v45q-47 -60 -122 -60q-94 0 -160.5 70.5t-66.5 183.5q0 110 64.5 182.5t162.5 72.5q78 0 122 -55v249zM733 688l-46 -166h-115l20 166h141z" />
    <glyph glyph-name="Dcroat" unicode="&#x110;" horiz-adv-x="686" 
d="M60 0v272h-55v135h55v234h233q157 0 260 -91.5t103 -230.5q0 -138 -103 -228.5t-260 -90.5h-233zM290 486h-60v-79h100v-135h-100v-117h61q85 0 136.5 45.5t51.5 120.5q0 74 -52 119.5t-137 45.5z" />
    <glyph glyph-name="dcroat" unicode="&#x111;" horiz-adv-x="592" 
d="M282 136q40 0 67 29.5t27 73.5t-27 74t-67 30t-67 -30t-27 -74t27 -73.5t67 -29.5zM376 688h161v-40h46v-115h-46v-533h-161v45q-47 -60 -122 -60q-94 0 -160.5 70.5t-66.5 183.5q0 110 64.5 182.5t162.5 72.5q78 0 122 -55v94h-108v115h108v40z" />
    <glyph glyph-name="Emacron" unicode="&#x112;" horiz-adv-x="516" 
d="M60 0v641h426v-155h-261v-84h221v-155h-221v-92h261v-155h-426zM110 830h315v-115h-315v115z" />
    <glyph glyph-name="emacron" unicode="&#x113;" horiz-adv-x="546" 
d="M291 -15q-113 0 -188.5 74t-75.5 180t71.5 180.5t175.5 74.5q105 0 176.5 -70t71.5 -175q0 -35 -3 -50h-325q10 -34 37 -53.5t66 -19.5q56 0 99 45l82 -109q-27 -33 -77 -55t-110 -22zM277 359q-59 0 -80 -62h160q-19 62 -80 62zM115 668h315v-115h-315v115z" />
    <glyph glyph-name="Ebreve" unicode="&#x114;" horiz-adv-x="516" 
d="M60 0v641h426v-155h-261v-84h221v-155h-221v-92h261v-155h-426zM268 684q-69 0 -114.5 47.5t-45.5 118.5h109q0 -31 14.5 -47.5t36.5 -16.5t36.5 16.5t14.5 47.5h110q0 -71 -46 -118.5t-115 -47.5z" />
    <glyph glyph-name="ebreve" unicode="&#x115;" horiz-adv-x="546" 
d="M291 -15q-113 0 -188.5 74t-75.5 180t71.5 180.5t175.5 74.5q105 0 176.5 -70t71.5 -175q0 -35 -3 -50h-325q10 -34 37 -53.5t66 -19.5q56 0 99 45l82 -109q-27 -33 -77 -55t-110 -22zM277 359q-59 0 -80 -62h160q-19 62 -80 62zM273 522q-69 0 -114.5 47.5t-45.5 118.5
h109q0 -31 14.5 -47.5t36.5 -16.5t36.5 16.5t14.5 47.5h110q0 -71 -46 -118.5t-115 -47.5z" />
    <glyph glyph-name="Edotaccent" unicode="&#x116;" horiz-adv-x="516" 
d="M60 0v641h426v-155h-261v-84h221v-155h-221v-92h261v-155h-426zM267 684q-37 0 -63.5 26t-26.5 64t26.5 64.5t63.5 26.5t64 -26.5t27 -64.5q0 -37 -26.5 -63.5t-64.5 -26.5z" />
    <glyph glyph-name="edotaccent" unicode="&#x117;" horiz-adv-x="546" 
d="M291 -15q-113 0 -188.5 74t-75.5 180t71.5 180.5t175.5 74.5q105 0 176.5 -70t71.5 -175q0 -35 -3 -50h-325q10 -34 37 -53.5t66 -19.5q56 0 99 45l82 -109q-27 -33 -77 -55t-110 -22zM277 359q-59 0 -80 -62h160q-19 62 -80 62zM272 522q-38 0 -64 26t-26 64t26.5 64.5
t63.5 26.5q38 0 64.5 -26.5t26.5 -64.5q0 -37 -26.5 -63.5t-64.5 -26.5z" />
    <glyph glyph-name="Eogonek" unicode="&#x118;" horiz-adv-x="516" 
d="M60 0v641h426v-155h-261v-84h221v-155h-221v-92h261v-155h-37q-65 -43 -65 -86q0 -28 28 -28q21 0 45 18l45 -65q-42 -50 -115 -50q-48 0 -83.5 25.5t-35.5 73.5q0 61 64 112h-272z" />
    <glyph glyph-name="eogonek" unicode="&#x119;" horiz-adv-x="546" 
d="M444 -161q-42 -50 -115 -50q-48 0 -83.5 25.5t-35.5 73.5q0 54 48 99q-101 11 -166 82.5t-65 169.5q0 106 71.5 180.5t175.5 74.5q105 0 176.5 -70t71.5 -175q0 -35 -3 -50h-325q10 -34 37 -53.5t66 -19.5q56 0 99 45l82 -109q-29 -34 -74 -54q-78 -48 -78 -94
q0 -28 28 -28q21 0 45 18zM277 359q-59 0 -80 -62h160q-19 62 -80 62z" />
    <glyph glyph-name="Ecaron" unicode="&#x11a;" horiz-adv-x="516" 
d="M60 0v641h426v-155h-261v-84h221v-155h-221v-92h261v-155h-426zM340 694h-144l-117 156h151l38 -67l38 67h151z" />
    <glyph glyph-name="ecaron" unicode="&#x11b;" horiz-adv-x="546" 
d="M291 -15q-113 0 -188.5 74t-75.5 180t71.5 180.5t175.5 74.5q105 0 176.5 -70t71.5 -175q0 -35 -3 -50h-325q10 -34 37 -53.5t66 -19.5q56 0 99 45l82 -109q-27 -33 -77 -55t-110 -22zM277 359q-59 0 -80 -62h160q-19 62 -80 62zM345 532h-144l-117 156h151l38 -67l38 67
h151z" />
    <glyph glyph-name="Gcircumflex" unicode="&#x11c;" horiz-adv-x="676" 
d="M615 63q-94 -78 -254 -78q-141 0 -236 98t-95 238q0 139 97.5 237t234.5 98q161 0 246 -95l-110 -126q-54 56 -134 56q-66 0 -111.5 -49.5t-45.5 -120.5t47 -121t118 -50q42 0 78 18v151h165v-256zM286 850h144l117 -156h-151l-38 67l-38 -67h-151z" />
    <glyph glyph-name="gcircumflex" unicode="&#x11d;" horiz-adv-x="582" 
d="M140 -20q54 -44 123 -44q46 0 74.5 23.5t28.5 66.5v45q-47 -57 -122 -57q-90 0 -153.5 66.5t-63.5 173.5q0 103 63.5 169.5t153.5 66.5q78 0 122 -50v39h161v-446q0 -72 -24.5 -123t-65 -75.5t-80.5 -35t-84 -10.5q-143 0 -213 67zM277 165q38 0 63.5 25.5t25.5 63.5
t-25.5 63.5t-63.5 25.5t-63.5 -25.5t-25.5 -63.5t25.5 -63.5t63.5 -25.5zM199 688h144l117 -156h-151l-38 67l-38 -67h-151z" />
    <glyph glyph-name="Gbreve" unicode="&#x11e;" horiz-adv-x="676" 
d="M615 63q-94 -78 -254 -78q-141 0 -236 98t-95 238q0 139 97.5 237t234.5 98q161 0 246 -95l-110 -126q-54 56 -134 56q-66 0 -111.5 -49.5t-45.5 -120.5t47 -121t118 -50q42 0 78 18v151h165v-256zM358 684q-69 0 -114.5 47.5t-45.5 118.5h109q0 -31 14.5 -47.5
t36.5 -16.5t36.5 16.5t14.5 47.5h110q0 -71 -46 -118.5t-115 -47.5z" />
    <glyph glyph-name="gbreve" unicode="&#x11f;" horiz-adv-x="582" 
d="M140 -20q54 -44 123 -44q46 0 74.5 23.5t28.5 66.5v45q-47 -57 -122 -57q-90 0 -153.5 66.5t-63.5 173.5q0 103 63.5 169.5t153.5 66.5q78 0 122 -50v39h161v-446q0 -72 -24.5 -123t-65 -75.5t-80.5 -35t-84 -10.5q-143 0 -213 67zM277 165q38 0 63.5 25.5t25.5 63.5
t-25.5 63.5t-63.5 25.5t-63.5 -25.5t-25.5 -63.5t25.5 -63.5t63.5 -25.5zM271 522q-69 0 -114.5 47.5t-45.5 118.5h109q0 -31 14.5 -47.5t36.5 -16.5t36.5 16.5t14.5 47.5h110q0 -71 -46 -118.5t-115 -47.5z" />
    <glyph glyph-name="Gdotaccent" unicode="&#x120;" horiz-adv-x="676" 
d="M615 63q-94 -78 -254 -78q-141 0 -236 98t-95 238q0 139 97.5 237t234.5 98q161 0 246 -95l-110 -126q-54 56 -134 56q-66 0 -111.5 -49.5t-45.5 -120.5t47 -121t118 -50q42 0 78 18v151h165v-256zM357 684q-37 0 -63.5 26t-26.5 64t26.5 64.5t63.5 26.5t64 -26.5
t27 -64.5q0 -37 -26.5 -63.5t-64.5 -26.5z" />
    <glyph glyph-name="gdotaccent" unicode="&#x121;" horiz-adv-x="582" 
d="M140 -20q54 -44 123 -44q46 0 74.5 23.5t28.5 66.5v45q-47 -57 -122 -57q-90 0 -153.5 66.5t-63.5 173.5q0 103 63.5 169.5t153.5 66.5q78 0 122 -50v39h161v-446q0 -72 -24.5 -123t-65 -75.5t-80.5 -35t-84 -10.5q-143 0 -213 67zM277 165q38 0 63.5 25.5t25.5 63.5
t-25.5 63.5t-63.5 25.5t-63.5 -25.5t-25.5 -63.5t25.5 -63.5t63.5 -25.5zM270 522q-38 0 -64 26t-26 64t26.5 64.5t63.5 26.5q38 0 64.5 -26.5t26.5 -64.5q0 -37 -26.5 -63.5t-64.5 -26.5z" />
    <glyph glyph-name="uni0122" unicode="&#x122;" horiz-adv-x="676" 
d="M615 63q-94 -78 -254 -78q-141 0 -236 98t-95 238q0 139 97.5 237t234.5 98q161 0 246 -95l-110 -126q-54 56 -134 56q-66 0 -111.5 -49.5t-45.5 -120.5t47 -121t118 -50q42 0 78 18v151h165v-256zM440 -51l-60 -160h-125l30 160h155z" />
    <glyph glyph-name="uni0123" unicode="&#x123;" horiz-adv-x="582" 
d="M140 -20q54 -44 123 -44q46 0 74.5 23.5t28.5 66.5v45q-47 -57 -122 -57q-90 0 -153.5 66.5t-63.5 173.5q0 103 63.5 169.5t153.5 66.5q78 0 122 -50v39h161v-446q0 -72 -24.5 -123t-65 -75.5t-80.5 -35t-84 -10.5q-143 0 -213 67zM277 165q38 0 63.5 25.5t25.5 63.5
t-25.5 63.5t-63.5 25.5t-63.5 -25.5t-25.5 -63.5t25.5 -63.5t63.5 -25.5zM182 538l60 160h125l-30 -160h-155z" />
    <glyph glyph-name="Hcircumflex" unicode="&#x124;" horiz-adv-x="697" 
d="M472 0v253h-247v-253h-165v641h165v-233h247v233h165v-641h-165zM277 850h144l117 -156h-151l-38 67l-38 -67h-151z" />
    <glyph glyph-name="hcircumflex" unicode="&#x125;" 
d="M216 264v-264h-161v688h161v-268q38 74 124 74q82 0 130 -55.5t48 -152.5v-286h-161v264q0 36 -19 57.5t-51 21.5t-51.5 -21.5t-19.5 -57.5zM185 888h144l117 -156h-151l-38 67l-38 -67h-151z" />
    <glyph glyph-name="Hbar" unicode="&#x126;" horiz-adv-x="697" 
d="M225 408h247v60h-247v-60zM472 0v253h-247v-253h-165v468h-39v115h39v58h165v-58h247v58h165v-58h39v-115h-39v-468h-165z" />
    <glyph glyph-name="hbar" unicode="&#x127;" 
d="M216 264v-264h-161v523h-46v115h46v50h161v-50h108v-115h-108v-103q38 74 124 74q82 0 130 -55.5t48 -152.5v-286h-161v264q0 36 -19 57.5t-51 21.5t-51.5 -21.5t-19.5 -57.5z" />
    <glyph glyph-name="Itilde" unicode="&#x128;" horiz-adv-x="285" 
d="M60 0v641h165v-641h-165zM225 692q-30 0 -74 18.5t-66 18.5q-30 0 -59 -45l-78 65q39 93 111 93q30 0 74 -18.5t66 -18.5q30 0 59 45l78 -65q-39 -93 -111 -93z" />
    <glyph glyph-name="itilde" unicode="&#x129;" horiz-adv-x="271" 
d="M216 479v-479h-161v479h161zM218 530q-30 0 -74 18.5t-66 18.5q-30 0 -59 -45l-78 65q39 93 111 93q30 0 74 -18.5t66 -18.5q30 0 59 45l78 -65q-39 -93 -111 -93z" />
    <glyph glyph-name="Imacron" unicode="&#x12a;" horiz-adv-x="285" 
d="M60 0v641h165v-641h-165zM-16 830h315v-115h-315v115z" />
    <glyph glyph-name="imacron" unicode="&#x12b;" horiz-adv-x="271" 
d="M216 479v-479h-161v479h161zM-23 668h315v-115h-315v115z" />
    <glyph glyph-name="Ibreve" unicode="&#x12c;" horiz-adv-x="285" 
d="M60 0v641h165v-641h-165zM142 684q-69 0 -114.5 47.5t-45.5 118.5h109q0 -31 14.5 -47.5t36.5 -16.5t36.5 16.5t14.5 47.5h110q0 -71 -46 -118.5t-115 -47.5z" />
    <glyph glyph-name="ibreve" unicode="&#x12d;" horiz-adv-x="271" 
d="M216 479v-479h-161v479h161zM135 522q-69 0 -114.5 47.5t-45.5 118.5h109q0 -31 14.5 -47.5t36.5 -16.5t36.5 16.5t14.5 47.5h110q0 -71 -46 -118.5t-115 -47.5z" />
    <glyph glyph-name="Iogonek" unicode="&#x12e;" horiz-adv-x="285" 
d="M227 -161q-42 -50 -115 -50q-48 0 -83.5 25.5t-35.5 73.5q0 63 67 115v638h165v-641h-51q-65 -43 -65 -86q0 -28 28 -28q21 0 45 18z" />
    <glyph glyph-name="iogonek" unicode="&#x12f;" horiz-adv-x="271" 
d="M216 479v-479h-57q-65 -43 -65 -86q0 -28 28 -28q21 0 45 18l45 -65q-42 -50 -115 -50q-48 0 -83.5 25.5t-35.5 73.5q0 66 77 122v469h161zM135 522q-37 0 -63.5 26t-26.5 64t26.5 64.5t63.5 26.5t64 -26.5t27 -64.5q0 -37 -26.5 -63.5t-64.5 -26.5z" />
    <glyph glyph-name="Idotaccent" unicode="&#x130;" horiz-adv-x="285" 
d="M60 0v641h165v-641h-165zM141 684q-37 0 -63.5 26t-26.5 64t26.5 64.5t63.5 26.5t64 -26.5t27 -64.5q0 -37 -26.5 -63.5t-64.5 -26.5z" />
    <glyph glyph-name="dotlessi" unicode="&#x131;" horiz-adv-x="271" 
d="M216 479v-479h-161v479h161z" />
    <glyph glyph-name="IJ" unicode="&#x132;" horiz-adv-x="769" 
d="M60 0v641h165v-641h-165zM295 82l111 114q34 -46 75 -46q68 0 68 85v406h165v-395q0 -129 -62.5 -195t-165.5 -66q-64 0 -115 27.5t-76 69.5z" />
    <glyph glyph-name="ij" unicode="&#x133;" horiz-adv-x="542" 
d="M216 479v-479h-161v479h161zM135 522q-37 0 -63.5 26t-26.5 64t26.5 64.5t63.5 26.5t64 -26.5t27 -64.5q0 -37 -26.5 -63.5t-64.5 -26.5zM406 703q38 0 64.5 -26.5t26.5 -64.5q0 -37 -26.5 -63.5t-64.5 -26.5t-64 26t-26 64t26.5 64.5t63.5 26.5zM487 479v-463
q0 -103 -53.5 -165t-150.5 -62q-89 0 -139 50l75 119q26 -22 56 -22q22 0 36.5 18.5t14.5 53.5v471h161z" />
    <glyph glyph-name="Jcircumflex" unicode="&#x134;" horiz-adv-x="484" 
d="M10 82l111 114q35 -46 75 -46q68 0 68 85v406h165v-395q0 -129 -62.5 -195t-165.5 -66q-64 0 -115 27.5t-76 69.5zM269 850h144l117 -156h-151l-38 67l-38 -67h-151z" />
    <glyph glyph-name="jcircumflex" unicode="&#x135;" horiz-adv-x="271" 
d="M216 479v-463q0 -103 -53.5 -165t-150.5 -62q-89 0 -139 50l75 119q26 -22 56 -22q22 0 36.5 18.5t14.5 53.5v471h161zM63 688h144l117 -156h-151l-38 67l-38 -67h-151z" />
    <glyph glyph-name="uni0136" unicode="&#x136;" horiz-adv-x="634" 
d="M60 0v641h165v-243h47l150 243h184l-195 -311l213 -330h-199l-149 243h-51v-243h-165zM404 -51l-60 -160h-125l30 160h155z" />
    <glyph glyph-name="uni0137" unicode="&#x137;" horiz-adv-x="589" 
d="M55 0v688h161v-366h38l101 157h197l-153 -221l170 -258h-201l-112 177h-40v-177h-161zM377 -51l-60 -160h-125l30 160h155z" />
    <glyph glyph-name="Lacute" unicode="&#x139;" horiz-adv-x="526" 
d="M60 0v641h165v-486h291v-155h-456zM171 850h188l-140 -156h-146z" />
    <glyph glyph-name="lacute" unicode="&#x13a;" horiz-adv-x="271" 
d="M55 0v688h161v-688h-161zM168 888h188l-140 -156h-146z" />
    <glyph glyph-name="uni013B" unicode="&#x13b;" horiz-adv-x="526" 
d="M60 0v641h165v-486h291v-155h-456zM365 -51l-60 -160h-125l30 160h155z" />
    <glyph glyph-name="uni013C" unicode="&#x13c;" horiz-adv-x="271" 
d="M55 0v688h161v-688h-161zM217 -51l-60 -160h-125l30 160h155z" />
    <glyph glyph-name="Lcaron" unicode="&#x13d;" horiz-adv-x="526" 
d="M60 0v641h165v-486h291v-155h-456zM440 688l-46 -166h-115l20 166h141z" />
    <glyph glyph-name="lcaron" unicode="&#x13e;" horiz-adv-x="363" 
d="M55 0v688h161v-688h-161zM410 688l-46 -166h-115l20 166h141z" />
    <glyph glyph-name="Ldot" unicode="&#x13f;" horiz-adv-x="526" 
d="M60 0v641h165v-486h291v-155h-456zM405 262q-37 0 -63.5 26t-26.5 64t26.5 64.5t63.5 26.5t64 -26.5t27 -64.5q0 -37 -26.5 -63.5t-64.5 -26.5z" />
    <glyph glyph-name="ldot" unicode="&#x140;" horiz-adv-x="397" 
d="M55 0v688h161v-688h-161zM335 202q-37 0 -63.5 26t-26.5 64t26.5 64.5t63.5 26.5t64 -26.5t27 -64.5q0 -37 -26.5 -63.5t-64.5 -26.5z" />
    <glyph glyph-name="Lslash" unicode="&#x141;" horiz-adv-x="526" 
d="M60 0v259l-55 -17v135l55 17v247h165v-194l95 30v-135l-95 -30v-157h291v-155h-456z" />
    <glyph glyph-name="lslash" unicode="&#x142;" horiz-adv-x="271" 
d="M55 0v261l-50 -19v135l50 19v292h161v-230l50 19v-135l-50 -19v-323h-161z" />
    <glyph glyph-name="Nacute" unicode="&#x143;" horiz-adv-x="697" 
d="M460 0l-235 365v-365h-165v641h177l235 -371v371h165v-641h-177zM372 850h188l-140 -156h-146z" />
    <glyph glyph-name="nacute" unicode="&#x144;" 
d="M216 264v-264h-161v479h161v-59q38 74 124 74q82 0 130 -55.5t48 -152.5v-286h-161v264q0 36 -19 57.5t-51 21.5t-51.5 -21.5t-19.5 -57.5zM310 688h188l-140 -156h-146z" />
    <glyph glyph-name="uni0145" unicode="&#x145;" horiz-adv-x="697" 
d="M460 0l-235 365v-365h-165v641h177l235 -371v371h165v-641h-177zM431 -51l-60 -160h-125l30 160h155z" />
    <glyph glyph-name="uni0146" unicode="&#x146;" 
d="M216 264v-264h-161v479h161v-59q38 74 124 74q82 0 130 -55.5t48 -152.5v-286h-161v264q0 36 -19 57.5t-51 21.5t-51.5 -21.5t-19.5 -57.5zM369 -51l-60 -160h-125l30 160h155z" />
    <glyph glyph-name="Ncaron" unicode="&#x147;" horiz-adv-x="697" 
d="M460 0l-235 365v-365h-165v641h177l235 -371v371h165v-641h-177zM421 694h-144l-117 156h151l38 -67l38 67h151z" />
    <glyph glyph-name="ncaron" unicode="&#x148;" 
d="M216 264v-264h-161v479h161v-59q38 74 124 74q82 0 130 -55.5t48 -152.5v-286h-161v264q0 36 -19 57.5t-51 21.5t-51.5 -21.5t-19.5 -57.5zM359 532h-144l-117 156h151l38 -67l38 67h151z" />
    <glyph glyph-name="Omacron" unicode="&#x14c;" horiz-adv-x="732" 
d="M366 656q139 0 237.5 -98.5t98.5 -237.5t-98.5 -237t-237.5 -98t-237.5 98.5t-98.5 237.5t98.5 237t237.5 98zM366 150q66 0 112.5 49.5t46.5 120.5t-46.5 121t-112.5 50t-112.5 -49.5t-46.5 -120.5t46.5 -121t112.5 -50zM208 830h315v-115h-315v115z" />
    <glyph glyph-name="omacron" unicode="&#x14d;" horiz-adv-x="564" 
d="M282 -15q-105 0 -180 74.5t-75 179.5q0 106 75 180.5t180 74.5t180 -74.5t75 -180.5q0 -105 -75 -179.5t-180 -74.5zM282 136q40 0 67 29.5t27 73.5t-27 74t-67 30t-67 -30t-27 -74t27 -73.5t67 -29.5zM124 668h315v-115h-315v115z" />
    <glyph glyph-name="Obreve" unicode="&#x14e;" horiz-adv-x="732" 
d="M366 656q139 0 237.5 -98.5t98.5 -237.5t-98.5 -237t-237.5 -98t-237.5 98.5t-98.5 237.5t98.5 237t237.5 98zM366 150q66 0 112.5 49.5t46.5 120.5t-46.5 121t-112.5 50t-112.5 -49.5t-46.5 -120.5t46.5 -121t112.5 -50zM366 684q-69 0 -114.5 47.5t-45.5 118.5h109
q0 -31 14.5 -47.5t36.5 -16.5t36.5 16.5t14.5 47.5h110q0 -71 -46 -118.5t-115 -47.5z" />
    <glyph glyph-name="obreve" unicode="&#x14f;" horiz-adv-x="564" 
d="M282 -15q-105 0 -180 74.5t-75 179.5q0 106 75 180.5t180 74.5t180 -74.5t75 -180.5q0 -105 -75 -179.5t-180 -74.5zM282 136q40 0 67 29.5t27 73.5t-27 74t-67 30t-67 -30t-27 -74t27 -73.5t67 -29.5zM282 522q-69 0 -114.5 47.5t-45.5 118.5h109q0 -31 14.5 -47.5
t36.5 -16.5t36.5 16.5t14.5 47.5h110q0 -71 -46 -118.5t-115 -47.5z" />
    <glyph glyph-name="Ohungarumlaut" unicode="&#x150;" horiz-adv-x="732" 
d="M366 656q139 0 237.5 -98.5t98.5 -237.5t-98.5 -237t-237.5 -98t-237.5 98.5t-98.5 237.5t98.5 237t237.5 98zM366 150q66 0 112.5 49.5t46.5 120.5t-46.5 121t-112.5 50t-112.5 -49.5t-46.5 -120.5t46.5 -121t112.5 -50zM300 850h153l-130 -156h-121zM501 850h163
l-140 -156h-121z" />
    <glyph glyph-name="ohungarumlaut" unicode="&#x151;" horiz-adv-x="564" 
d="M282 -15q-105 0 -180 74.5t-75 179.5q0 106 75 180.5t180 74.5t180 -74.5t75 -180.5q0 -105 -75 -179.5t-180 -74.5zM282 136q40 0 67 29.5t27 73.5t-27 74t-67 30t-67 -30t-27 -74t27 -73.5t67 -29.5zM216 688h153l-130 -156h-121zM417 688h163l-140 -156h-121z" />
    <glyph glyph-name="OE" unicode="&#x152;" horiz-adv-x="981" 
d="M366 150q66 0 112.5 49.5t46.5 120.5t-46.5 121t-112.5 50t-112.5 -49.5t-46.5 -120.5t46.5 -121t112.5 -50zM525 0v36q-70 -51 -159 -51q-139 0 -237.5 98.5t-98.5 237.5t98.5 237t237.5 98q90 0 159 -52v37h426v-155h-261v-84h221v-155h-221v-92h261v-155h-426z" />
    <glyph glyph-name="oe" unicode="&#x153;" horiz-adv-x="891" 
d="M282 -15q-105 0 -180 74.5t-75 179.5q0 106 75 180.5t180 74.5q103 0 172 -77q66 77 164 77q105 0 176.5 -70t71.5 -175q0 -35 -3 -50h-325q10 -33 35.5 -53t60.5 -20q63 0 106 45l82 -109q-27 -32 -80.5 -54.5t-111.5 -22.5q-103 0 -174 79q-69 -79 -174 -79zM282 136
q40 0 67 29.5t27 73.5t-27 74t-67 30t-67 -30t-27 -74t27 -73.5t67 -29.5zM621 359q-59 0 -80 -62h160q-19 62 -80 62z" />
    <glyph glyph-name="Racute" unicode="&#x154;" horiz-adv-x="610" 
d="M60 0v641h233q122 0 196.5 -58t74.5 -154q0 -62 -31 -109.5t-88 -74.5l135 -245h-191l-110 214h-54v-214h-165zM306 496h-81v-137h81q37 0 60 19t23 51q0 30 -23 48.5t-60 18.5zM278 850h188l-140 -156h-146z" />
    <glyph glyph-name="racute" unicode="&#x155;" horiz-adv-x="425" 
d="M216 259v-259h-161v479h161v-74q39 89 114 89q50 0 80 -27l-66 -152q-26 23 -65 23q-29 0 -46 -21.5t-17 -57.5zM236 688h188l-140 -156h-146z" />
    <glyph glyph-name="uni0156" unicode="&#x156;" horiz-adv-x="610" 
d="M60 0v641h233q122 0 196.5 -58t74.5 -154q0 -62 -31 -109.5t-88 -74.5l135 -245h-191l-110 214h-54v-214h-165zM306 496h-81v-137h81q37 0 60 19t23 51q0 30 -23 48.5t-60 18.5zM387 -51l-60 -160h-125l30 160h155z" />
    <glyph glyph-name="uni0157" unicode="&#x157;" horiz-adv-x="425" 
d="M216 259v-259h-161v479h161v-74q39 89 114 89q50 0 80 -27l-66 -152q-26 23 -65 23q-29 0 -46 -21.5t-17 -57.5zM225 -51l-60 -160h-125l30 160h155z" />
    <glyph glyph-name="Rcaron" unicode="&#x158;" horiz-adv-x="610" 
d="M60 0v641h233q122 0 196.5 -58t74.5 -154q0 -62 -31 -109.5t-88 -74.5l135 -245h-191l-110 214h-54v-214h-165zM306 496h-81v-137h81q37 0 60 19t23 51q0 30 -23 48.5t-60 18.5zM337 694h-144l-117 156h151l38 -67l38 67h151z" />
    <glyph glyph-name="rcaron" unicode="&#x159;" horiz-adv-x="425" 
d="M216 259v-259h-161v479h161v-74q39 89 114 89q50 0 80 -27l-66 -152q-26 23 -65 23q-29 0 -46 -21.5t-17 -57.5zM285 532h-144l-117 156h151l38 -67l38 67h151z" />
    <glyph glyph-name="Sacute" unicode="&#x15a;" horiz-adv-x="561" 
d="M536 539l-112 -112q-52 74 -140 74q-61 0 -61 -39q0 -22 32 -37.5t78.5 -29.5t92.5 -34t78 -63t32 -105q0 -90 -72 -149t-184 -59q-184 0 -260 120l117 110q54 -75 146 -75q76 0 76 46q0 17 -17.5 30t-45 22.5t-60.5 19.5t-66.5 25.5t-61 36.5t-45 56.5t-17.5 81.5
q0 86 69 142t176 56q81 0 144.5 -31.5t100.5 -85.5zM304 850h188l-140 -156h-146z" />
    <glyph glyph-name="sacute" unicode="&#x15b;" horiz-adv-x="463" 
d="M194 341q0 -16 25 -26.5t60 -19t70.5 -22.5t60.5 -47.5t25 -84.5q0 -65 -55.5 -110.5t-156.5 -45.5q-137 0 -212 82l87 102q57 -57 134 -57q44 0 44 27q0 14 -18 24t-44.5 16t-58 18t-58 27.5t-44.5 46t-18 71.5q0 61 52 106.5t144 45.5q144 0 205 -84l-88 -94
q-44 51 -112 51q-42 0 -42 -26zM255 688h188l-140 -156h-146z" />
    <glyph glyph-name="Scircumflex" unicode="&#x15c;" horiz-adv-x="561" 
d="M536 539l-112 -112q-52 74 -140 74q-61 0 -61 -39q0 -22 32 -37.5t78.5 -29.5t92.5 -34t78 -63t32 -105q0 -90 -72 -149t-184 -59q-184 0 -260 120l117 110q54 -75 146 -75q76 0 76 46q0 17 -17.5 30t-45 22.5t-60.5 19.5t-66.5 25.5t-61 36.5t-45 56.5t-17.5 81.5
q0 86 69 142t176 56q81 0 144.5 -31.5t100.5 -85.5zM209 850h144l117 -156h-151l-38 67l-38 -67h-151z" />
    <glyph glyph-name="scircumflex" unicode="&#x15d;" horiz-adv-x="463" 
d="M194 341q0 -16 25 -26.5t60 -19t70.5 -22.5t60.5 -47.5t25 -84.5q0 -65 -55.5 -110.5t-156.5 -45.5q-137 0 -212 82l87 102q57 -57 134 -57q44 0 44 27q0 14 -18 24t-44.5 16t-58 18t-58 27.5t-44.5 46t-18 71.5q0 61 52 106.5t144 45.5q144 0 205 -84l-88 -94
q-44 51 -112 51q-42 0 -42 -26zM160 688h144l117 -156h-151l-38 67l-38 -67h-151z" />
    <glyph glyph-name="uni015E" unicode="&#x15e;" horiz-adv-x="561" 
d="M536 539l-112 -112q-52 74 -140 74q-61 0 -61 -39q0 -22 32 -37.5t78.5 -29.5t92.5 -34t78 -63t32 -105q0 -75 -51 -130t-137 -72l-65 -187l-128 50l80 133q-148 14 -215 118l117 110q54 -75 146 -75q76 0 76 46q0 17 -17.5 30t-45 22.5t-60.5 19.5t-66.5 25.5t-61 36.5
t-45 56.5t-17.5 81.5q0 86 69 142t176 56q81 0 144.5 -31.5t100.5 -85.5z" />
    <glyph glyph-name="uni015F" unicode="&#x15f;" horiz-adv-x="463" 
d="M194 341q0 -16 25 -26.5t60 -19t70.5 -22.5t60.5 -47.5t25 -84.5q0 -53 -37.5 -94.5t-108.5 -55.5l-65 -187l-128 50l80 134q-106 13 -165 79l87 102q57 -57 134 -57q44 0 44 27q0 14 -18 24t-44.5 16t-58 18t-58 27.5t-44.5 46t-18 71.5q0 61 52 106.5t144 45.5
q144 0 205 -84l-88 -94q-44 51 -112 51q-42 0 -42 -26z" />
    <glyph glyph-name="Scaron" unicode="&#x160;" horiz-adv-x="561" 
d="M536 539l-112 -112q-52 74 -140 74q-61 0 -61 -39q0 -22 32 -37.5t78.5 -29.5t92.5 -34t78 -63t32 -105q0 -90 -72 -149t-184 -59q-184 0 -260 120l117 110q54 -75 146 -75q76 0 76 46q0 17 -17.5 30t-45 22.5t-60.5 19.5t-66.5 25.5t-61 36.5t-45 56.5t-17.5 81.5
q0 86 69 142t176 56q81 0 144.5 -31.5t100.5 -85.5zM353 694h-144l-117 156h151l38 -67l38 67h151z" />
    <glyph glyph-name="scaron" unicode="&#x161;" horiz-adv-x="463" 
d="M194 341q0 -16 25 -26.5t60 -19t70.5 -22.5t60.5 -47.5t25 -84.5q0 -65 -55.5 -110.5t-156.5 -45.5q-137 0 -212 82l87 102q57 -57 134 -57q44 0 44 27q0 14 -18 24t-44.5 16t-58 18t-58 27.5t-44.5 46t-18 71.5q0 61 52 106.5t144 45.5q144 0 205 -84l-88 -94
q-44 51 -112 51q-42 0 -42 -26zM304 532h-144l-117 156h151l38 -67l38 67h151z" />
    <glyph glyph-name="uni0162" unicode="&#x162;" horiz-adv-x="536" 
d="M526 486h-176v-486h-29l-68 -196l-128 50l87 146h-27v486h-175v155h516v-155z" />
    <glyph glyph-name="uni0163" unicode="&#x163;" horiz-adv-x="435" 
d="M10 338v141h91v130h161v-130h122v-141h-120v-147q0 -55 41 -55q32 0 50 23l70 -119q-43 -43 -114 -53l-63 -183l-128 50l86 143q-106 40 -106 190v151h-90z" />
    <glyph glyph-name="Tcaron" unicode="&#x164;" horiz-adv-x="536" 
d="M526 486h-176v-486h-165v486h-175v155h516v-155zM340 694h-144l-117 156h151l38 -67l38 67h151z" />
    <glyph glyph-name="tcaron" unicode="&#x165;" horiz-adv-x="435" 
d="M10 338v141h91v130h161v-130h122v-141h-120v-147q0 -55 41 -55q32 0 50 23l70 -119q-55 -55 -148 -55q-82 0 -129.5 52t-47.5 150v151h-90zM455 688l-46 -166h-115l20 166h141z" />
    <glyph glyph-name="Tbar" unicode="&#x166;" horiz-adv-x="536" 
d="M526 486h-176v-136h75v-115h-75v-235h-165v235h-75v115h75v136h-175v155h516v-155z" />
    <glyph glyph-name="tbar" unicode="&#x167;" horiz-adv-x="435" 
d="M10 338v141h91v130h161v-130h122v-141h-120v-35h91v-115h-91q1 -52 41 -52q32 0 50 23l70 -119q-55 -55 -148 -55q-82 0 -129.5 52t-47.5 150v1h-60v115h60v35h-90z" />
    <glyph glyph-name="Utilde" unicode="&#x168;" horiz-adv-x="659" 
d="M55 274v367h165v-363q0 -58 30.5 -93t80.5 -35q49 0 78.5 34.5t29.5 92.5v364h165v-367q0 -130 -75.5 -209.5t-200.5 -79.5q-123 0 -198 79.5t-75 209.5zM413 692q-30 0 -74 18.5t-66 18.5q-30 0 -59 -45l-78 65q39 93 111 93q30 0 74 -18.5t66 -18.5q30 0 59 45l78 -65
q-39 -93 -111 -93z" />
    <glyph glyph-name="utilde" unicode="&#x169;" 
d="M211 479v-252q0 -41 21 -66t55 -25t54.5 25t20.5 66v252h161v-264q0 -104 -65 -167t-171 -63q-107 0 -172 63t-65 167v264h161zM370 530q-30 0 -74 18.5t-66 18.5q-30 0 -59 -45l-78 65q39 93 111 93q30 0 74 -18.5t66 -18.5q30 0 59 45l78 -65q-39 -93 -111 -93z" />
    <glyph glyph-name="Umacron" unicode="&#x16a;" horiz-adv-x="659" 
d="M55 274v367h165v-363q0 -58 30.5 -93t80.5 -35q49 0 78.5 34.5t29.5 92.5v364h165v-367q0 -130 -75.5 -209.5t-200.5 -79.5q-123 0 -198 79.5t-75 209.5zM172 830h315v-115h-315v115z" />
    <glyph glyph-name="umacron" unicode="&#x16b;" 
d="M211 479v-252q0 -41 21 -66t55 -25t54.5 25t20.5 66v252h161v-264q0 -104 -65 -167t-171 -63q-107 0 -172 63t-65 167v264h161zM129 668h315v-115h-315v115z" />
    <glyph glyph-name="Ubreve" unicode="&#x16c;" horiz-adv-x="659" 
d="M55 274v367h165v-363q0 -58 30.5 -93t80.5 -35q49 0 78.5 34.5t29.5 92.5v364h165v-367q0 -130 -75.5 -209.5t-200.5 -79.5q-123 0 -198 79.5t-75 209.5zM330 684q-69 0 -114.5 47.5t-45.5 118.5h109q0 -31 14.5 -47.5t36.5 -16.5t36.5 16.5t14.5 47.5h110
q0 -71 -46 -118.5t-115 -47.5z" />
    <glyph glyph-name="ubreve" unicode="&#x16d;" 
d="M211 479v-252q0 -41 21 -66t55 -25t54.5 25t20.5 66v252h161v-264q0 -104 -65 -167t-171 -63q-107 0 -172 63t-65 167v264h161zM287 522q-69 0 -114.5 47.5t-45.5 118.5h109q0 -31 14.5 -47.5t36.5 -16.5t36.5 16.5t14.5 47.5h110q0 -71 -46 -118.5t-115 -47.5z" />
    <glyph glyph-name="Uring" unicode="&#x16e;" horiz-adv-x="659" 
d="M55 274v367h165v-363q0 -58 30.5 -93t80.5 -35q49 0 78.5 34.5t29.5 92.5v364h165v-367q0 -130 -75.5 -209.5t-200.5 -79.5q-123 0 -198 79.5t-75 209.5zM330 684q-54 0 -90.5 36t-36.5 87t36.5 87t90.5 36t90.5 -36t36.5 -87t-36.5 -87t-90.5 -36zM331 763
q17 0 29.5 12.5t12.5 31.5t-12.5 31.5t-29.5 12.5t-29.5 -12.5t-12.5 -31.5t12.5 -31.5t29.5 -12.5z" />
    <glyph glyph-name="uring" unicode="&#x16f;" 
d="M211 479v-252q0 -41 21 -66t55 -25t54.5 25t20.5 66v252h161v-264q0 -104 -65 -167t-171 -63q-107 0 -172 63t-65 167v264h161zM287 522q-54 0 -90.5 36t-36.5 87t36.5 87t90.5 36t90.5 -36t36.5 -87t-36.5 -87t-90.5 -36zM288 601q17 0 29.5 12.5t12.5 31.5t-12.5 31.5
t-29.5 12.5t-29.5 -12.5t-12.5 -31.5t12.5 -31.5t29.5 -12.5z" />
    <glyph glyph-name="Uhungarumlaut" unicode="&#x170;" horiz-adv-x="659" 
d="M55 274v367h165v-363q0 -58 30.5 -93t80.5 -35q49 0 78.5 34.5t29.5 92.5v364h165v-367q0 -130 -75.5 -209.5t-200.5 -79.5q-123 0 -198 79.5t-75 209.5zM264 850h153l-130 -156h-121zM465 850h163l-140 -156h-121z" />
    <glyph glyph-name="uhungarumlaut" unicode="&#x171;" 
d="M211 479v-252q0 -41 21 -66t55 -25t54.5 25t20.5 66v252h161v-264q0 -104 -65 -167t-171 -63q-107 0 -172 63t-65 167v264h161zM221 688h153l-130 -156h-121zM422 688h163l-140 -156h-121z" />
    <glyph glyph-name="Uogonek" unicode="&#x172;" horiz-adv-x="659" 
d="M55 274v367h165v-363q0 -58 30.5 -93t80.5 -35q49 0 78.5 34.5t29.5 92.5v364h165v-367q0 -104 -50 -177.5t-137 -99.5q-61 -42 -61 -83q0 -28 28 -28q21 0 45 18l45 -65q-42 -50 -115 -50q-48 0 -83.5 25.5t-35.5 73.5q0 54 49 99q-107 13 -170.5 90.5t-63.5 196.5z" />
    <glyph glyph-name="uogonek" unicode="&#x173;" 
d="M211 479v-252q0 -41 21 -66t55 -25t54.5 25t20.5 66v252h161v-264q0 -79 -39 -136t-107 -80q-64 -44 -64 -85q0 -28 28 -28q21 0 45 18l45 -65q-42 -50 -115 -50q-48 0 -83.5 25.5t-35.5 73.5q0 54 49 100q-90 12 -143 73t-53 154v264h161z" />
    <glyph glyph-name="Wcircumflex" unicode="&#x174;" horiz-adv-x="1040" 
d="M847 641h173l-200 -641h-208l-96 436l-96 -436h-200l-200 641h182l118 -451l101 451h207l101 -451zM448 850h144l117 -156h-151l-38 67l-38 -67h-151z" />
    <glyph glyph-name="wcircumflex" unicode="&#x175;" horiz-adv-x="821" 
d="M634 479h172l-141 -479h-201l-65 278l-62 -278h-181l-141 479h172l63 -304l71 304h173l74 -307zM339 688h144l117 -156h-151l-38 67l-38 -67h-151z" />
    <glyph glyph-name="Ycircumflex" unicode="&#x176;" horiz-adv-x="651" 
d="M243 0v210l-233 431h183l136 -258l138 258h174l-233 -431v-210h-165zM254 850h144l117 -156h-151l-38 67l-38 -67h-151z" />
    <glyph glyph-name="ycircumflex" unicode="&#x177;" horiz-adv-x="558" 
d="M181 479l113 -277l92 277h162l-183 -520q-59 -170 -205 -170q-88 0 -150 58l71 126q34 -33 78 -33q43 0 65 52l-221 487h178zM207 688h144l117 -156h-151l-38 67l-38 -67h-151z" />
    <glyph glyph-name="Ydieresis" unicode="&#x178;" horiz-adv-x="651" 
d="M243 0v210l-233 431h183l136 -258l138 258h174l-233 -431v-210h-165zM225 685q-34 0 -57.5 23.5t-23.5 57.5t23.5 58t57.5 24t58 -24t24 -58t-24 -57.5t-58 -23.5zM425 685q-34 0 -57.5 23.5t-23.5 57.5t23.5 58t57.5 24t58 -24t24 -58t-24 -57.5t-58 -23.5z" />
    <glyph glyph-name="Zacute" unicode="&#x179;" horiz-adv-x="582" 
d="M35 155l287 331h-277v155h492v-155l-287 -331h297v-155h-512v155zM314 850h188l-140 -156h-146z" />
    <glyph glyph-name="zacute" unicode="&#x17a;" horiz-adv-x="483" 
d="M35 141l194 197h-184v141h394v-141l-195 -197h204v-141h-413v141zM265 688h188l-140 -156h-146z" />
    <glyph glyph-name="Zdotaccent" unicode="&#x17b;" horiz-adv-x="582" 
d="M35 155l287 331h-277v155h492v-155l-287 -331h297v-155h-512v155zM290 684q-38 0 -64 26t-26 64t26.5 64.5t63.5 26.5q38 0 64.5 -26.5t26.5 -64.5q0 -37 -26.5 -63.5t-64.5 -26.5z" />
    <glyph glyph-name="zdotaccent" unicode="&#x17c;" horiz-adv-x="483" 
d="M35 141l194 197h-184v141h394v-141l-195 -197h204v-141h-413v141zM241 522q-37 0 -63.5 26t-26.5 64t26.5 64.5t63.5 26.5t64 -26.5t27 -64.5q0 -37 -26.5 -63.5t-64.5 -26.5z" />
    <glyph glyph-name="Zcaron" unicode="&#x17d;" horiz-adv-x="582" 
d="M35 155l287 331h-277v155h492v-155l-287 -331h297v-155h-512v155zM363 694h-144l-117 156h151l38 -67l38 67h151z" />
    <glyph glyph-name="zcaron" unicode="&#x17e;" horiz-adv-x="483" 
d="M35 141l194 197h-184v141h394v-141l-195 -197h204v-141h-413v141zM314 532h-144l-117 156h151l38 -67l38 67h151z" />
    <glyph glyph-name="florin" unicode="&#x192;" horiz-adv-x="562" 
d="M106 237v120h86v119q0 105 54.5 166t148.5 61q103 0 157 -54l-76 -122q-25 25 -63 25q-28 0 -44 -18.5t-16 -54.5v-122h127v-120h-127v-181q0 -103 -53.5 -165t-150.5 -62q-89 0 -139 50l75 119q26 -22 56 -22q22 0 36.5 18.5t14.5 53.5v189h-86z" />
    <glyph glyph-name="uni0218" unicode="&#x218;" horiz-adv-x="561" 
d="M536 539l-112 -112q-52 74 -140 74q-61 0 -61 -39q0 -22 32 -37.5t78.5 -29.5t92.5 -34t78 -63t32 -105q0 -90 -72 -149t-184 -59q-184 0 -260 120l117 110q54 -75 146 -75q76 0 76 46q0 17 -17.5 30t-45 22.5t-60.5 19.5t-66.5 25.5t-61 36.5t-45 56.5t-17.5 81.5
q0 86 69 142t176 56q81 0 144.5 -31.5t100.5 -85.5zM363 -51l-60 -160h-125l30 160h155z" />
    <glyph glyph-name="uni0219" unicode="&#x219;" horiz-adv-x="463" 
d="M194 341q0 -16 25 -26.5t60 -19t70.5 -22.5t60.5 -47.5t25 -84.5q0 -65 -55.5 -110.5t-156.5 -45.5q-137 0 -212 82l87 102q57 -57 134 -57q44 0 44 27q0 14 -18 24t-44.5 16t-58 18t-58 27.5t-44.5 46t-18 71.5q0 61 52 106.5t144 45.5q144 0 205 -84l-88 -94
q-44 51 -112 51q-42 0 -42 -26zM314 -51l-60 -160h-125l30 160h155z" />
    <glyph glyph-name="uni021A" unicode="&#x21a;" horiz-adv-x="536" 
d="M526 486h-176v-486h-165v486h-175v155h516v-155zM350 -51l-60 -160h-125l30 160h155z" />
    <glyph glyph-name="uni021B" unicode="&#x21b;" horiz-adv-x="435" 
d="M10 338v141h91v130h161v-130h122v-141h-120v-147q0 -55 41 -55q32 0 50 23l70 -119q-55 -55 -148 -55q-82 0 -129.5 52t-47.5 150v151h-90zM300 -51l-60 -160h-125l30 160h155z" />
    <glyph glyph-name="uni0237" unicode="&#x237;" horiz-adv-x="271" 
d="M216 479v-463q0 -103 -53.5 -165t-150.5 -62q-89 0 -139 50l75 119q26 -22 56 -22q22 0 36.5 18.5t14.5 53.5v471h161z" />
    <glyph glyph-name="circumflex" unicode="&#x2c6;" horiz-adv-x="400" 
d="M128 688h144l117 -156h-151l-38 67l-38 -67h-151z" />
    <glyph glyph-name="caron" unicode="&#x2c7;" horiz-adv-x="400" 
d="M272 532h-144l-117 156h151l38 -67l38 67h151z" />
    <glyph glyph-name="breve" unicode="&#x2d8;" horiz-adv-x="400" 
d="M200 522q-69 0 -114.5 47.5t-45.5 118.5h109q0 -31 14.5 -47.5t36.5 -16.5t36.5 16.5t14.5 47.5h110q0 -71 -46 -118.5t-115 -47.5z" />
    <glyph glyph-name="dotaccent" unicode="&#x2d9;" horiz-adv-x="400" 
d="M199 522q-37 0 -63.5 26t-26.5 64t26.5 64.5t63.5 26.5t64 -26.5t27 -64.5q0 -37 -26.5 -63.5t-64.5 -26.5z" />
    <glyph glyph-name="ring" unicode="&#x2da;" horiz-adv-x="400" 
d="M200 522q-54 0 -90.5 36t-36.5 87t36.5 87t90.5 36t90.5 -36t36.5 -87t-36.5 -87t-90.5 -36zM201 601q17 0 29.5 12.5t12.5 31.5t-12.5 31.5t-29.5 12.5t-29.5 -12.5t-12.5 -31.5t12.5 -31.5t29.5 -12.5z" />
    <glyph glyph-name="ogonek" unicode="&#x2db;" horiz-adv-x="400" 
d="M212 44l77 -27q-93 -51 -93 -103q0 -28 28 -28q21 0 45 18l45 -65q-42 -50 -115 -50q-48 0 -83.5 25.5t-35.5 73.5q0 85 132 156z" />
    <glyph glyph-name="tilde" unicode="&#x2dc;" horiz-adv-x="400" 
d="M283 530q-30 0 -74 18.5t-66 18.5q-30 0 -59 -45l-78 65q39 93 111 93q30 0 74 -18.5t66 -18.5q30 0 59 45l78 -65q-39 -93 -111 -93z" />
    <glyph glyph-name="hungarumlaut" unicode="&#x2dd;" horiz-adv-x="400" 
d="M134 688h153l-130 -156h-121zM335 688h163l-140 -156h-121z" />
    <glyph glyph-name="uni0326" unicode="&#x326;" horiz-adv-x="400" 
d="M282 -51l-60 -160h-125l30 160h155z" />
    <glyph glyph-name="pi" unicode="&#x3c0;" horiz-adv-x="626" 
d="M30 338v141h566v-141h-72v-147q0 -55 41 -55h31v-136h-59q-177 0 -177 187v151h-96v-337h-164v337h-70z" />
    <glyph glyph-name="Wgrave" unicode="&#x1e80;" horiz-adv-x="1040" 
d="M847 641h173l-200 -641h-208l-96 436l-96 -436h-200l-200 641h182l118 -451l101 451h207l101 -451zM497 850l98 -156h-146l-140 156h188z" />
    <glyph glyph-name="wgrave" unicode="&#x1e81;" horiz-adv-x="821" 
d="M634 479h172l-141 -479h-201l-65 278l-62 -278h-181l-141 479h172l63 -304l71 304h173l74 -307zM388 688l98 -156h-146l-140 156h188z" />
    <glyph glyph-name="Wacute" unicode="&#x1e82;" horiz-adv-x="1040" 
d="M847 641h173l-200 -641h-208l-96 436l-96 -436h-200l-200 641h182l118 -451l101 451h207l101 -451zM543 850h188l-140 -156h-146z" />
    <glyph glyph-name="wacute" unicode="&#x1e83;" horiz-adv-x="821" 
d="M634 479h172l-141 -479h-201l-65 278l-62 -278h-181l-141 479h172l63 -304l71 304h173l74 -307zM434 688h188l-140 -156h-146z" />
    <glyph glyph-name="Wdieresis" unicode="&#x1e84;" horiz-adv-x="1040" 
d="M847 641h173l-200 -641h-208l-96 436l-96 -436h-200l-200 641h182l118 -451l101 451h207l101 -451zM419 685q-34 0 -57.5 23.5t-23.5 57.5t23.5 58t57.5 24t58 -24t24 -58t-24 -57.5t-58 -23.5zM619 685q-34 0 -57.5 23.5t-23.5 57.5t23.5 58t57.5 24t58 -24t24 -58
t-24 -57.5t-58 -23.5z" />
    <glyph glyph-name="wdieresis" unicode="&#x1e85;" horiz-adv-x="821" 
d="M634 479h172l-141 -479h-201l-65 278l-62 -278h-181l-141 479h172l63 -304l71 304h173l74 -307zM310 523q-34 0 -57.5 23.5t-23.5 57.5t23.5 58t57.5 24t58 -24t24 -58t-24 -57.5t-58 -23.5zM510 523q-34 0 -57.5 23.5t-23.5 57.5t23.5 58t57.5 24t58 -24t24 -58
t-24 -57.5t-58 -23.5z" />
    <glyph glyph-name="Ygrave" unicode="&#x1ef2;" horiz-adv-x="651" 
d="M243 0v210l-233 431h183l136 -258l138 258h174l-233 -431v-210h-165zM303 850l98 -156h-146l-140 156h188z" />
    <glyph glyph-name="ygrave" unicode="&#x1ef3;" horiz-adv-x="558" 
d="M181 479l113 -277l92 277h162l-183 -520q-59 -170 -205 -170q-88 0 -150 58l71 126q34 -33 78 -33q43 0 65 52l-221 487h178zM256 688l98 -156h-146l-140 156h188z" />
    <glyph glyph-name="endash" unicode="&#x2013;" horiz-adv-x="500" 
d="M40 317h420v-135h-420v135z" />
    <glyph glyph-name="emdash" unicode="&#x2014;" horiz-adv-x="1000" 
d="M40 317h920v-135h-920v135z" />
    <glyph glyph-name="quoteleft" unicode="&#x2018;" horiz-adv-x="247" 
d="M25 454l60 234h117l-25 -234h-152z" />
    <glyph glyph-name="quoteright" unicode="&#x2019;" horiz-adv-x="247" 
d="M222 688l-60 -234h-117l25 234h152z" />
    <glyph glyph-name="quotesinglbase" unicode="&#x201a;" horiz-adv-x="247" 
d="M222 118l-60 -234h-117l25 234h152z" />
    <glyph glyph-name="quotedblleft" unicode="&#x201c;" horiz-adv-x="447" 
d="M225 454l60 234h117l-25 -234h-152zM25 454l60 234h117l-25 -234h-152z" />
    <glyph glyph-name="quotedblright" unicode="&#x201d;" horiz-adv-x="447" 
d="M222 688l-60 -234h-117l25 234h152zM422 688l-60 -234h-117l25 234h152z" />
    <glyph glyph-name="quotedblbase" unicode="&#x201e;" horiz-adv-x="447" 
d="M222 118l-60 -234h-117l25 234h152zM422 118l-60 -234h-117l25 234h152z" />
    <glyph glyph-name="dagger" unicode="&#x2020;" horiz-adv-x="521" 
d="M180 -196v548h-150v141h150v195h161v-195h150v-141h-150v-548h-161z" />
    <glyph glyph-name="daggerdbl" unicode="&#x2021;" horiz-adv-x="521" 
d="M180 -196v195h-150v141h150v212h-150v141h150v195h161v-195h150v-141h-150v-212h150v-141h-150v-195h-161z" />
    <glyph glyph-name="bullet" unicode="&#x2022;" horiz-adv-x="440" 
d="M220 90q-67 0 -113.5 46.5t-46.5 113.5t46.5 113.5t113.5 46.5t113.5 -46.5t46.5 -113.5t-46.5 -113.5t-113.5 -46.5z" />
    <glyph glyph-name="ellipsis" unicode="&#x2026;" horiz-adv-x="847" 
d="M134 -15q-41 0 -70 29t-29 70t29 70.5t70 29.5t70.5 -29.5t29.5 -70.5t-29.5 -70t-70.5 -29zM423 -15q-41 0 -70 29t-29 70t29 70.5t70 29.5t70.5 -29.5t29.5 -70.5t-29.5 -70t-70.5 -29zM712 -15q-41 0 -70 29t-29 70t29 70.5t70 29.5t70.5 -29.5t29.5 -70.5t-29.5 -70
t-70.5 -29z" />
    <glyph glyph-name="perthousand" unicode="&#x2030;" horiz-adv-x="944" 
d="M150 313q-63 0 -104 47t-41 120q0 74 39 122t100 48q64 0 105 -48t40 -121q1 -73 -38.5 -120.5t-100.5 -47.5zM147 407q40 0 40 73q0 75 -40 75q-19 0 -29.5 -19.5t-10.5 -54.5q0 -74 40 -74zM54 0l422 641h120l-420 -641h-122zM506 -8q-63 0 -104 47t-41 120
q0 74 39 122t100 48q64 0 105 -48t40 -121q1 -73 -38.5 -120.5t-100.5 -47.5zM503 86q40 0 40 73q0 75 -40 75q-19 0 -29.5 -19.5t-10.5 -54.5q0 -74 40 -74zM800 -8q-63 0 -104 47t-41 120q0 74 39 122t100 48q64 0 105 -48t40 -121q1 -73 -38.5 -120.5t-100.5 -47.5z
M797 86q40 0 40 73q0 75 -40 75q-19 0 -29.5 -19.5t-10.5 -54.5q0 -74 40 -74z" />
    <glyph glyph-name="guilsinglleft" unicode="&#x2039;" horiz-adv-x="335" 
d="M40 251l157 197l98 -81l-98 -116l98 -116l-98 -81z" />
    <glyph glyph-name="guilsinglright" unicode="&#x203a;" horiz-adv-x="335" 
d="M295 251l-157 -197l-98 81l98 116l-98 116l98 81z" />
    <glyph glyph-name="fraction" unicode="&#x2044;" horiz-adv-x="62" 
d="M-240 0l422 641h120l-420 -641h-122z" />
    <glyph glyph-name="zero.superior" unicode="&#x2070;" horiz-adv-x="294" 
d="M150 313q-63 0 -104 47t-41 120q0 74 39 122t100 48q64 0 105 -48t40 -121q1 -73 -38.5 -120.5t-100.5 -47.5zM147 407q40 0 40 73q0 75 -40 75q-19 0 -29.5 -19.5t-10.5 -54.5q0 -74 40 -74z" />
    <glyph glyph-name="four.superior" unicode="&#x2074;" horiz-adv-x="294" 
d="M155 321v40h-151v92l147 188h102v-188h37v-92h-37v-40h-98zM155 453v93l-74 -93h74z" />
    <glyph glyph-name="Euro" unicode="&#x20ac;" horiz-adv-x="654" 
d="M639 561l-99 -114q-23 24 -61 39t-79 15q-74 0 -121 -60h172l-30 -104h-182q-1 -5 -1 -16q0 -17 1 -25h176l-30 -104h-103q45 -52 118 -52q92 0 138 57l101 -113q-84 -99 -242 -99q-103 0 -184 57t-118 150h-85l30 104h32q-1 8 -1 25v16h-61l30 104h53q36 96 119 155.5
t186 59.5q154 0 241 -95z" />
    <glyph glyph-name="uni2113" unicode="&#x2113;" horiz-adv-x="536" 
d="M445 40q-55 -55 -155 -55q-76 0 -125.5 40t-61.5 117l-67 -27v163l64 23v180q0 101 52.5 161.5t139.5 60.5q96 0 149.5 -56.5t53.5 -158.5q0 -84 -60.5 -156t-170.5 -124v-7q0 -65 54 -65q39 0 57 23zM264 497v-129q77 51 77 129q0 55 -36 55q-41 0 -41 -55z" />
    <glyph glyph-name="trademark" unicode="&#x2122;" horiz-adv-x="885" 
d="M115 291v251h-95v99h312v-99h-105v-251h-112zM605 354l-116 141l5 -204h-110v350h110l115 -143l114 143h102v-350h-110l5 204z" />
    <glyph glyph-name="uni2126" unicode="&#x2126;" horiz-adv-x="732" 
d="M366 491q-67 0 -113 -45.5t-46 -115.5q0 -59 35 -107t82 -78v-145h-285v145l96 -3q-105 90 -105 218q0 118 99.5 207t236.5 89t236.5 -89t99.5 -207q0 -128 -105 -218l96 3v-145h-285v145q47 30 82 78t35 107q0 70 -46 115.5t-113 45.5z" />
    <glyph glyph-name="partialdiff" unicode="&#x2202;" horiz-adv-x="564" 
d="M282 136q40 0 67 31.5t27 78.5q0 48 -27 80t-67 32t-67 -32t-27 -80q0 -47 27 -78.5t67 -31.5zM282 494q18 0 32 -3q-63 83 -175 136l109 100q130 -64 209.5 -185t79.5 -258q0 -135 -70 -217t-185 -82q-105 0 -180 76.5t-75 184.5t74 178t181 70z" />
    <glyph glyph-name="uni2206" unicode="&#x2206;" horiz-adv-x="714" 
d="M10 0l250 641h194l250 -641h-694zM469 146l-116 320l-117 -320h233z" />
    <glyph glyph-name="product" unicode="&#x220f;" horiz-adv-x="666" 
d="M401 486h-136v-682h-165v682h-70v155h606v-155h-70v-682h-165v682z" />
    <glyph glyph-name="summation" unicode="&#x2211;" horiz-adv-x="511" 
d="M408 311v-130l-190 -211h283v-166h-491v191l228 262l-228 263v168h491v-165h-283z" />
    <glyph glyph-name="minus" unicode="&#x2212;" horiz-adv-x="521" 
d="M30 248v145h461v-145h-461z" />
    <glyph glyph-name="uni2215" unicode="&#x2215;" horiz-adv-x="62" 
d="M-240 0l422 641h120l-420 -641h-122z" />
    <glyph glyph-name="radical" unicode="&#x221a;" horiz-adv-x="617" 
d="M409 0h-209l-112 334h-78v145h207l91 -337l136 546h163z" />
    <glyph glyph-name="infinity" unicode="&#x221e;" horiz-adv-x="521" 
d="M364 171q-73 0 -113 65q-41 -65 -101 -65q-52 0 -86 42t-34 106q0 67 35 109.5t93 42.5q71 0 111 -62q44 62 102 62q52 0 86 -42t34 -107q0 -66 -35 -108.5t-92 -42.5zM357 280q17 0 29.5 12t12.5 28q0 18 -12.5 30t-29.5 12q-32 0 -53 -22q12 -30 24 -45t29 -15z
M165 280q28 0 50 27q-13 28 -23.5 41.5t-26.5 13.5q-18 0 -29.5 -12t-11.5 -30q0 -17 11.5 -28.5t29.5 -11.5z" />
    <glyph glyph-name="integral" unicode="&#x222b;" horiz-adv-x="562" 
d="M192 48v428q0 105 54.5 166t148.5 61q103 0 157 -54l-76 -122q-25 25 -63 25q-28 0 -44 -18.5t-16 -54.5v-423q0 -103 -53.5 -165t-150.5 -62q-89 0 -139 50l75 119q26 -22 56 -22q22 0 36.5 18.5t14.5 53.5z" />
    <glyph glyph-name="approxequal" unicode="&#x2248;" horiz-adv-x="521" 
d="M30 127v145q55 37 119 37q51 0 117 -26t107 -26q79 0 118 30v-145q-49 -30 -116 -30q-49 0 -116 26t-109 26q-83 0 -120 -37zM30 350v145q55 37 119 37q51 0 117 -26t107 -26q79 0 118 30v-145q-49 -30 -116 -30q-49 0 -116 26t-109 26q-83 0 -120 -37z" />
    <glyph glyph-name="notequal" unicode="&#x2260;" horiz-adv-x="521" 
d="M75 61l39 77h-84v145h156l38 75h-194v145h266l39 78h111l-39 -78h84v-145h-156l-38 -75h194v-145h-266l-39 -77h-111z" />
    <glyph glyph-name="lessequal" unicode="&#x2264;" horiz-adv-x="521" 
d="M491 320v-156l-461 168v142l461 167v-156l-289 -82zM30 0v145h461v-145h-461z" />
    <glyph glyph-name="greaterequal" unicode="&#x2265;" horiz-adv-x="521" 
d="M30 320l289 83l-289 82v156l461 -167v-142l-461 -168v156zM491 0h-461v145h461v-145z" />
    <glyph glyph-name="lozenge" unicode="&#x25ca;" horiz-adv-x="544" 
d="M343 320l-75 181l-76 -181l76 -180zM514 320l-155 -320h-174l-155 320l155 321h174z" />
    <glyph glyph-name="ITF" horiz-adv-x="1511" 
d="M60 0v641h198v-641h-198zM299 454v187h198v-187h-198zM537 0v641h198v-641h-198zM777 454v187h197v-187h-197zM1015 0v641h197v-641h-197zM1254 454v187h197v-187h-197zM1254 227v186h197v-186h-197z" />
    <glyph glyph-name="i.loclTRK" horiz-adv-x="271" 
d="M216 479v-479h-161v479h161zM135 522q-37 0 -63.5 26t-26.5 64t26.5 64.5t63.5 26.5t64 -26.5t27 -64.5q0 -37 -26.5 -63.5t-64.5 -26.5z" />
    <glyph glyph-name="caron.alt" horiz-adv-x="400" 
d="M287 688l-46 -166h-115l20 166h141z" />
    <glyph glyph-name="commaaccent.alt" horiz-adv-x="400" 
d="M111 538l60 160h125l-30 -160h-155z" />
    </font>
</defs>
</svg>
